G04 (created by PCBNEW (2013-07-07 BZR 4022)-stable) date Mon 15 Dec 2014 10:20:57 PM EET*
%MOIN*%
G04 Gerber Fmt 3.4, Leading zero omitted, Abs format*
%FSLAX34Y34*%
G01*
G70*
G90*
G04 APERTURE LIST*
%ADD10C,0.006*%
%ADD11R,0.0531496X0.0295276*%
%ADD12R,0.06X0.08*%
%ADD13R,0.06X0.06*%
%ADD14C,0.06*%
%ADD15R,0.0610236X0.0708661*%
%ADD16R,0.0688976X0.0708661*%
%ADD17C,0.0244094*%
%ADD18C,0.16*%
G04 APERTURE END LIST*
G54D10*
G54D11*
X92133Y-59283D03*
X93629Y-59283D03*
X87098Y-60125D03*
X88594Y-60125D03*
G54D12*
X93531Y-55346D03*
X92231Y-55346D03*
G54D13*
X82578Y-51673D03*
G54D14*
X81578Y-51673D03*
G54D13*
X99043Y-61062D03*
G54D14*
X99043Y-60062D03*
X99043Y-59062D03*
X99043Y-58062D03*
X99043Y-57062D03*
X99043Y-56062D03*
G54D15*
X91730Y-57314D03*
X94033Y-57314D03*
G54D16*
X86659Y-62106D03*
X89474Y-62106D03*
G54D17*
X97185Y-46870D03*
X97185Y-46594D03*
X97185Y-46318D03*
X97185Y-46043D03*
X97185Y-45748D03*
X97185Y-45413D03*
X97185Y-45059D03*
X97185Y-44685D03*
X97165Y-44429D03*
X97460Y-46909D03*
X97755Y-46909D03*
X98070Y-46909D03*
X98385Y-46909D03*
X99370Y-46909D03*
X99645Y-46909D03*
X98248Y-47185D03*
X98051Y-47381D03*
X97795Y-47637D03*
X97578Y-47854D03*
X97381Y-48051D03*
X97165Y-48267D03*
X97755Y-48996D03*
X97972Y-48799D03*
X98208Y-48562D03*
X98444Y-48326D03*
X98681Y-48090D03*
X98917Y-47854D03*
X99153Y-47618D03*
X99350Y-47381D03*
X99370Y-47145D03*
X92539Y-51200D03*
X92535Y-51606D03*
X92539Y-52259D03*
X91877Y-51559D03*
X91763Y-52106D03*
X91425Y-52448D03*
X90850Y-50885D03*
X90822Y-51448D03*
X96011Y-46389D03*
X95893Y-46929D03*
X95905Y-47523D03*
X96755Y-47283D03*
X96661Y-48090D03*
X95885Y-48712D03*
X95429Y-48838D03*
X96496Y-48413D03*
X95366Y-47692D03*
X96543Y-46598D03*
X94905Y-46724D03*
X93228Y-47039D03*
X93381Y-46629D03*
X92503Y-46342D03*
X93129Y-46220D03*
X92870Y-46610D03*
X91811Y-46850D03*
X90921Y-46669D03*
X90169Y-45429D03*
X89799Y-45799D03*
X91011Y-44578D03*
X91771Y-44590D03*
X92559Y-44740D03*
X93409Y-44688D03*
X89129Y-44590D03*
X88208Y-44740D03*
X88031Y-45551D03*
X85149Y-44759D03*
X84208Y-45330D03*
X84629Y-45929D03*
X80818Y-46740D03*
X83779Y-44598D03*
X83039Y-44669D03*
X83551Y-47444D03*
X84133Y-46846D03*
X84448Y-47326D03*
X81870Y-47354D03*
X81059Y-47291D03*
X84629Y-44818D03*
X89173Y-47220D03*
X87779Y-46484D03*
X87795Y-47370D03*
X84921Y-49192D03*
X85822Y-49543D03*
X84720Y-49917D03*
X85295Y-49763D03*
X85141Y-48641D03*
X86570Y-49940D03*
X86185Y-50543D03*
X84968Y-50641D03*
X80850Y-49590D03*
X80669Y-51133D03*
X80791Y-52696D03*
X83236Y-52708D03*
X84161Y-52996D03*
X84196Y-51118D03*
X85633Y-58948D03*
X86248Y-58822D03*
X86602Y-58259D03*
X86421Y-57681D03*
X85338Y-57492D03*
X85015Y-57830D03*
X85023Y-58295D03*
X85240Y-58724D03*
X85929Y-57385D03*
X85007Y-56980D03*
X84448Y-57657D03*
X84377Y-58433D03*
X84909Y-59299D03*
X85799Y-59570D03*
X86610Y-59358D03*
X87157Y-58677D03*
X87240Y-57992D03*
X87066Y-57464D03*
X86763Y-57086D03*
X86370Y-56834D03*
X85917Y-56724D03*
X85429Y-56767D03*
X84681Y-57251D03*
X91240Y-61169D03*
X93031Y-61019D03*
X94409Y-61940D03*
X94440Y-62385D03*
X95370Y-61078D03*
X96212Y-60933D03*
X96673Y-61425D03*
X95055Y-61996D03*
X90944Y-63389D03*
X96539Y-63389D03*
X96913Y-62759D03*
X97574Y-62909D03*
X99641Y-61838D03*
X98220Y-61618D03*
X97566Y-59248D03*
X97551Y-59625D03*
X95838Y-61251D03*
X95118Y-61551D03*
X95988Y-59051D03*
X98259Y-60051D03*
X84039Y-59850D03*
X85094Y-60181D03*
X83401Y-59055D03*
X97649Y-55948D03*
X97645Y-56421D03*
X99374Y-54433D03*
X99389Y-52409D03*
X98559Y-49736D03*
X99118Y-48893D03*
X99259Y-50681D03*
X99330Y-49594D03*
X91885Y-54255D03*
X89649Y-55251D03*
X90240Y-56921D03*
X92330Y-57858D03*
X94318Y-58015D03*
X91078Y-57846D03*
X92681Y-57870D03*
X91055Y-56531D03*
X91649Y-56704D03*
X89000Y-50350D03*
G54D18*
X82980Y-46110D03*
X98838Y-62700D03*
X81629Y-62370D03*
M02*
