G04 (created by PCBNEW (2013-07-07 BZR 4022)-stable) date Mon 15 Dec 2014 10:20:57 PM EET*
%MOIN*%
G04 Gerber Fmt 3.4, Leading zero omitted, Abs format*
%FSLAX34Y34*%
G01*
G70*
G90*
G04 APERTURE LIST*
%ADD10C,0.006*%
%ADD11R,0.0610236X0.0511811*%
%ADD12R,0.036X0.036*%
%ADD13R,0.03X0.06*%
%ADD14R,0.025X0.045*%
%ADD15R,0.045X0.025*%
%ADD16R,0.0236X0.0157*%
%ADD17R,0.0157X0.0236*%
%ADD18O,0.0110236X0.0334646*%
%ADD19R,0.163386X0.163386*%
%ADD20O,0.0334646X0.0110236*%
%ADD21R,0.06X0.06*%
%ADD22C,0.06*%
%ADD23R,0.0944882X0.0299213*%
%ADD24R,0.0320079X0.0120079*%
%ADD25R,0.0120079X0.0320079*%
%ADD26R,0.00984252X0.0216535*%
%ADD27R,0.0787X0.0394*%
%ADD28R,0.0944882X0.0669291*%
%ADD29C,0.314961*%
%ADD30C,0.0244094*%
%ADD31R,0.0275591X0.00885827*%
%ADD32R,0.00885827X0.0275591*%
%ADD33R,0.181102X0.181102*%
%ADD34C,0.16*%
%ADD35C,0.01*%
%ADD36C,0.0442913*%
%ADD37C,0.0352756*%
%ADD38C,0.00598425*%
G04 APERTURE END LIST*
G54D10*
G54D11*
X84285Y-50385D03*
X81155Y-50385D03*
X84285Y-48614D03*
X81155Y-48614D03*
G54D12*
X85313Y-51323D03*
X85313Y-52023D03*
X84513Y-51673D03*
X88130Y-53954D03*
X88830Y-53954D03*
X88480Y-54754D03*
X95579Y-62261D03*
X96279Y-62261D03*
X95929Y-63061D03*
X95613Y-59829D03*
X94913Y-59829D03*
X95263Y-59029D03*
X91961Y-59958D03*
X92661Y-59958D03*
X92311Y-60758D03*
G54D13*
X87240Y-45134D03*
X86740Y-45134D03*
X86240Y-45134D03*
X85740Y-45134D03*
X87240Y-48134D03*
X86740Y-48134D03*
X86240Y-48134D03*
X85740Y-48134D03*
G54D14*
X90268Y-48393D03*
X90868Y-48393D03*
X93479Y-59204D03*
X94079Y-59204D03*
X96268Y-58141D03*
X95668Y-58141D03*
G54D15*
X94271Y-61209D03*
X94271Y-60609D03*
X92161Y-61696D03*
X92161Y-62296D03*
X90460Y-52504D03*
X90460Y-51904D03*
X91905Y-59083D03*
X91905Y-58483D03*
X93181Y-61688D03*
X93181Y-62288D03*
G54D14*
X88783Y-48393D03*
X89383Y-48393D03*
X96644Y-60106D03*
X97244Y-60106D03*
X91118Y-60240D03*
X90518Y-60240D03*
X97168Y-61822D03*
X97768Y-61822D03*
G54D16*
X94218Y-57115D03*
X94218Y-57469D03*
X93493Y-57441D03*
X93493Y-57087D03*
G54D17*
X93492Y-58053D03*
X93846Y-58053D03*
G54D16*
X93328Y-52511D03*
X93328Y-52865D03*
X94127Y-51473D03*
X94127Y-51827D03*
X93552Y-51428D03*
X93552Y-51782D03*
X93931Y-52446D03*
X93931Y-52800D03*
G54D17*
X88631Y-49953D03*
X88985Y-49953D03*
G54D16*
X86948Y-51616D03*
X86948Y-51970D03*
G54D17*
X86985Y-50983D03*
X86631Y-50983D03*
X96693Y-59236D03*
X97047Y-59236D03*
G54D16*
X92551Y-58976D03*
X92551Y-58622D03*
X91824Y-50465D03*
X91824Y-50819D03*
X97116Y-49952D03*
X97116Y-50306D03*
X90448Y-51098D03*
X90448Y-50744D03*
X95849Y-48334D03*
X95849Y-47980D03*
X87374Y-53440D03*
X87374Y-53086D03*
X96068Y-45905D03*
X96068Y-45551D03*
X92668Y-45895D03*
X92668Y-45541D03*
X95779Y-50830D03*
X95779Y-51184D03*
G54D17*
X93856Y-47352D03*
X93502Y-47352D03*
G54D16*
X89188Y-45426D03*
X89188Y-45780D03*
G54D17*
X90136Y-44523D03*
X90490Y-44523D03*
G54D16*
X96263Y-49752D03*
X96263Y-50106D03*
G54D17*
X91735Y-53638D03*
X91381Y-53638D03*
G54D16*
X91848Y-48305D03*
X91848Y-47951D03*
X88558Y-47340D03*
X88558Y-46986D03*
X91808Y-56135D03*
X91808Y-55781D03*
X94799Y-57129D03*
X94799Y-57483D03*
X90283Y-53515D03*
X90283Y-53161D03*
X91200Y-57295D03*
X91200Y-56941D03*
G54D17*
X96063Y-55968D03*
X96417Y-55968D03*
X96043Y-54394D03*
X96397Y-54394D03*
G54D16*
X92944Y-51683D03*
X92944Y-51329D03*
G54D17*
X92091Y-52828D03*
X92445Y-52828D03*
G54D18*
X93237Y-56253D03*
G54D19*
X93926Y-55082D03*
G54D18*
X93040Y-56253D03*
X93434Y-56253D03*
X93631Y-56253D03*
X93828Y-56253D03*
X94024Y-56253D03*
X94221Y-56253D03*
X94418Y-56253D03*
X94615Y-56253D03*
X94812Y-56253D03*
G54D20*
X95097Y-55968D03*
X95097Y-55771D03*
X95097Y-55574D03*
X95097Y-55377D03*
X95097Y-55180D03*
X95097Y-54984D03*
X95097Y-54787D03*
X95097Y-54590D03*
X95097Y-54393D03*
X95097Y-54196D03*
G54D18*
X94812Y-53911D03*
X94615Y-53911D03*
X94418Y-53911D03*
X94221Y-53911D03*
X94024Y-53911D03*
X93828Y-53911D03*
X93631Y-53911D03*
X93434Y-53911D03*
X93237Y-53911D03*
X93040Y-53911D03*
G54D20*
X92755Y-54196D03*
X92755Y-54393D03*
X92755Y-54590D03*
X92755Y-54787D03*
X92755Y-54984D03*
X92755Y-55180D03*
X92755Y-55377D03*
X92755Y-55574D03*
X92755Y-55771D03*
X92755Y-55968D03*
G54D21*
X82578Y-51673D03*
G54D22*
X81578Y-51673D03*
G54D21*
X99043Y-61062D03*
G54D22*
X99043Y-60062D03*
X99043Y-59062D03*
X99043Y-58062D03*
X99043Y-57062D03*
X99043Y-56062D03*
G54D23*
X98381Y-52448D03*
X98381Y-51948D03*
X98381Y-51448D03*
X98381Y-53448D03*
X98381Y-52948D03*
X96846Y-51448D03*
X96846Y-51948D03*
X96846Y-52448D03*
X96846Y-52948D03*
X96846Y-53448D03*
G54D24*
X87926Y-50984D03*
X87926Y-51181D03*
X87926Y-51378D03*
X87926Y-51575D03*
X87926Y-51772D03*
G54D25*
X88231Y-51880D03*
X88428Y-51880D03*
X88625Y-51880D03*
G54D24*
X88930Y-51772D03*
X88930Y-51575D03*
X88930Y-51378D03*
X88930Y-51181D03*
X88930Y-50984D03*
G54D25*
X88625Y-50876D03*
X88428Y-50876D03*
X88231Y-50876D03*
G54D26*
X97313Y-48821D03*
X97116Y-48821D03*
X96919Y-48821D03*
X96919Y-49155D03*
X97116Y-49155D03*
X97313Y-49155D03*
G54D27*
X98901Y-46342D03*
X98901Y-45004D03*
G54D28*
X90511Y-55929D03*
X90511Y-54472D03*
G54D10*
G36*
X89894Y-46313D02*
X90506Y-46926D01*
X90145Y-47288D01*
X89532Y-46675D01*
X89894Y-46313D01*
X89894Y-46313D01*
G37*
G36*
X91063Y-45144D02*
X91676Y-45757D01*
X91314Y-46118D01*
X90701Y-45506D01*
X91063Y-45144D01*
X91063Y-45144D01*
G37*
G36*
X95348Y-45529D02*
X95057Y-45902D01*
X94623Y-45562D01*
X94913Y-45190D01*
X95348Y-45529D01*
X95348Y-45529D01*
G37*
G36*
X94665Y-44996D02*
X94374Y-45368D01*
X93940Y-45029D01*
X94231Y-44657D01*
X94665Y-44996D01*
X94665Y-44996D01*
G37*
G36*
X94253Y-45524D02*
X93962Y-45896D01*
X93528Y-45556D01*
X93819Y-45184D01*
X94253Y-45524D01*
X94253Y-45524D01*
G37*
G36*
X94936Y-46057D02*
X94645Y-46429D01*
X94211Y-46090D01*
X94501Y-45717D01*
X94936Y-46057D01*
X94936Y-46057D01*
G37*
G54D29*
X85799Y-58169D03*
G54D10*
G36*
X89362Y-60201D02*
X90893Y-61732D01*
X89362Y-63263D01*
X87831Y-61732D01*
X89362Y-60201D01*
X89362Y-60201D01*
G37*
G36*
X82235Y-53074D02*
X83766Y-54605D01*
X82235Y-56137D01*
X80704Y-54605D01*
X82235Y-53074D01*
X82235Y-53074D01*
G37*
G54D30*
X97185Y-46870D03*
X97185Y-46594D03*
X97185Y-46318D03*
X97185Y-46043D03*
X97185Y-45748D03*
X97185Y-45413D03*
X97185Y-45059D03*
X97185Y-44685D03*
X97165Y-44429D03*
X97460Y-46909D03*
X97755Y-46909D03*
X98070Y-46909D03*
X98385Y-46909D03*
X99370Y-46909D03*
X99645Y-46909D03*
X98248Y-47185D03*
X98051Y-47381D03*
X97795Y-47637D03*
X97578Y-47854D03*
X97381Y-48051D03*
X97165Y-48267D03*
X97755Y-48996D03*
X97972Y-48799D03*
X98208Y-48562D03*
X98444Y-48326D03*
X98681Y-48090D03*
X98917Y-47854D03*
X99153Y-47618D03*
X99350Y-47381D03*
X99370Y-47145D03*
X92539Y-51200D03*
X92535Y-51606D03*
X92539Y-52259D03*
X91877Y-51559D03*
X91763Y-52106D03*
X91425Y-52448D03*
X90850Y-50885D03*
X90822Y-51448D03*
X96011Y-46389D03*
X95893Y-46929D03*
X95905Y-47523D03*
X96755Y-47283D03*
X96661Y-48090D03*
X95885Y-48712D03*
X95429Y-48838D03*
X96496Y-48413D03*
X95366Y-47692D03*
X96543Y-46598D03*
X94905Y-46724D03*
X93228Y-47039D03*
X93381Y-46629D03*
X92503Y-46342D03*
X93129Y-46220D03*
X92870Y-46610D03*
X91811Y-46850D03*
X90921Y-46669D03*
X90169Y-45429D03*
X89799Y-45799D03*
X91011Y-44578D03*
X91771Y-44590D03*
X92559Y-44740D03*
X93409Y-44688D03*
X89129Y-44590D03*
X88208Y-44740D03*
X88031Y-45551D03*
X85149Y-44759D03*
X84208Y-45330D03*
X84629Y-45929D03*
X80818Y-46740D03*
X83779Y-44598D03*
X83039Y-44669D03*
X83551Y-47444D03*
X84133Y-46846D03*
X84448Y-47326D03*
X81870Y-47354D03*
X81059Y-47291D03*
X84629Y-44818D03*
X89173Y-47220D03*
X87779Y-46484D03*
X87795Y-47370D03*
X84921Y-49192D03*
X85822Y-49543D03*
X84720Y-49917D03*
X85295Y-49763D03*
X85141Y-48641D03*
X86570Y-49940D03*
X86185Y-50543D03*
X84968Y-50641D03*
X80850Y-49590D03*
X80669Y-51133D03*
X80791Y-52696D03*
X83236Y-52708D03*
X84161Y-52996D03*
X84196Y-51118D03*
X85633Y-58948D03*
X86248Y-58822D03*
X86602Y-58259D03*
X86421Y-57681D03*
X85338Y-57492D03*
X85015Y-57830D03*
X85023Y-58295D03*
X85240Y-58724D03*
X85929Y-57385D03*
X85007Y-56980D03*
X84448Y-57657D03*
X84377Y-58433D03*
X84909Y-59299D03*
X85799Y-59570D03*
X86610Y-59358D03*
X87157Y-58677D03*
X87240Y-57992D03*
X87066Y-57464D03*
X86763Y-57086D03*
X86370Y-56834D03*
X85917Y-56724D03*
X85429Y-56767D03*
X84681Y-57251D03*
X91240Y-61169D03*
X93031Y-61019D03*
X94409Y-61940D03*
X94440Y-62385D03*
X95370Y-61078D03*
X96212Y-60933D03*
X96673Y-61425D03*
X95055Y-61996D03*
X90944Y-63389D03*
X96539Y-63389D03*
X96913Y-62759D03*
X97574Y-62909D03*
X99641Y-61838D03*
X98220Y-61618D03*
X97566Y-59248D03*
X97551Y-59625D03*
X95838Y-61251D03*
X95118Y-61551D03*
X95988Y-59051D03*
X98259Y-60051D03*
X84039Y-59850D03*
X85094Y-60181D03*
X83401Y-59055D03*
X97649Y-55948D03*
X97645Y-56421D03*
X99374Y-54433D03*
X99389Y-52409D03*
X98559Y-49736D03*
X99118Y-48893D03*
X99259Y-50681D03*
X99330Y-49594D03*
X91885Y-54255D03*
X89649Y-55251D03*
X90240Y-56921D03*
X92330Y-57858D03*
X94318Y-58015D03*
X91078Y-57846D03*
X92681Y-57870D03*
X91055Y-56531D03*
X91649Y-56704D03*
X89000Y-50350D03*
G54D31*
X92656Y-48537D03*
X92656Y-48694D03*
X92656Y-48852D03*
X92656Y-49009D03*
X92656Y-49167D03*
X92656Y-49324D03*
X92656Y-49482D03*
X92656Y-49639D03*
X92656Y-49797D03*
X92656Y-49954D03*
X92656Y-50112D03*
X92656Y-50269D03*
X94940Y-49009D03*
X94940Y-48852D03*
X94940Y-48694D03*
X94940Y-48537D03*
G54D32*
X93562Y-50545D03*
X93719Y-50545D03*
X93877Y-50545D03*
X94034Y-50545D03*
X94192Y-50545D03*
X94349Y-50545D03*
X94507Y-50545D03*
X94664Y-50545D03*
G54D33*
X93798Y-49403D03*
G54D32*
X92932Y-50545D03*
X93089Y-50545D03*
X93247Y-50545D03*
X93404Y-50545D03*
G54D31*
X94940Y-50269D03*
X94940Y-50112D03*
X94940Y-49954D03*
X94940Y-49797D03*
X94940Y-49639D03*
X94940Y-49482D03*
X94940Y-49324D03*
X94940Y-49167D03*
G54D32*
X94664Y-48261D03*
X94507Y-48261D03*
X94349Y-48261D03*
X94192Y-48261D03*
X94034Y-48261D03*
X93877Y-48261D03*
X93719Y-48261D03*
X93562Y-48261D03*
X93404Y-48261D03*
X93247Y-48261D03*
X93089Y-48261D03*
X92932Y-48261D03*
G54D34*
X82980Y-46110D03*
X98838Y-62700D03*
X81629Y-62370D03*
G54D30*
X95358Y-53909D03*
X95480Y-50330D03*
X92607Y-53225D03*
X93196Y-53523D03*
X95035Y-52141D03*
X95602Y-53385D03*
X94127Y-52129D03*
X95066Y-51744D03*
X95578Y-53059D03*
X93552Y-52157D03*
X95716Y-53751D03*
X95074Y-53437D03*
X93931Y-53204D03*
X96881Y-50940D03*
X97830Y-54452D03*
X95842Y-49866D03*
X98338Y-54515D03*
X96346Y-50909D03*
X97425Y-56984D03*
X87460Y-51716D03*
X87944Y-52244D03*
X84326Y-48027D03*
X92354Y-48082D03*
X88648Y-47753D03*
X94940Y-48000D03*
X89065Y-47798D03*
X88751Y-49488D03*
X88366Y-49488D03*
X89484Y-49594D03*
X90885Y-50460D03*
X91850Y-51212D03*
X92472Y-50799D03*
X87228Y-63468D03*
X85799Y-58169D03*
X85535Y-50381D03*
X90673Y-57448D03*
X89460Y-51519D03*
X86889Y-52862D03*
X89389Y-54389D03*
X96023Y-55299D03*
X95566Y-55421D03*
X93023Y-57204D03*
X90000Y-60251D03*
X95145Y-63074D03*
X92338Y-57279D03*
X90448Y-62893D03*
X87448Y-50173D03*
X87440Y-49803D03*
X92165Y-53519D03*
X89047Y-55574D03*
X88405Y-53539D03*
X95527Y-54440D03*
X87787Y-52720D03*
X87795Y-53409D03*
X96644Y-58527D03*
X91287Y-59007D03*
X89362Y-55846D03*
X89692Y-55803D03*
X91708Y-53228D03*
X96644Y-59598D03*
X91342Y-59460D03*
X97216Y-61200D03*
X91708Y-54610D03*
X91405Y-48366D03*
X87724Y-48362D03*
X87448Y-50551D03*
X88149Y-53334D03*
X95535Y-54779D03*
X95582Y-56224D03*
X87090Y-53893D03*
X91448Y-55783D03*
X87511Y-53988D03*
G54D10*
X93247Y-50545D02*
X93247Y-51045D01*
X93434Y-53446D02*
X93434Y-53911D01*
X93066Y-53078D02*
X93434Y-53446D01*
X93066Y-52014D02*
X93066Y-53078D01*
X93214Y-51866D02*
X93066Y-52014D01*
X93214Y-51078D02*
X93214Y-51866D01*
X93247Y-51045D02*
X93214Y-51078D01*
X92944Y-51329D02*
X92944Y-51069D01*
X93089Y-50924D02*
X93089Y-50545D01*
X92944Y-51069D02*
X93089Y-50924D01*
X94349Y-50545D02*
X94349Y-50893D01*
X94812Y-51304D02*
X94812Y-53911D01*
X94460Y-50952D02*
X94812Y-51304D01*
X94408Y-50952D02*
X94460Y-50952D01*
X94349Y-50893D02*
X94408Y-50952D01*
X94192Y-50545D02*
X94192Y-51052D01*
X94615Y-51285D02*
X94615Y-53911D01*
X94404Y-51074D02*
X94615Y-51285D01*
X94214Y-51074D02*
X94404Y-51074D01*
X94192Y-51052D02*
X94214Y-51074D01*
X94940Y-50269D02*
X95419Y-50269D01*
X95097Y-54170D02*
X95097Y-54196D01*
X95358Y-53909D02*
X95097Y-54170D01*
X95419Y-50269D02*
X95480Y-50330D01*
X94034Y-50545D02*
X94034Y-51072D01*
X94418Y-51268D02*
X94418Y-53911D01*
X94348Y-51198D02*
X94418Y-51268D01*
X94160Y-51198D02*
X94348Y-51198D01*
X94034Y-51072D02*
X94160Y-51198D01*
X93237Y-53911D02*
X93237Y-53564D01*
X92445Y-53063D02*
X92445Y-52828D01*
X92607Y-53225D02*
X92445Y-53063D01*
X93237Y-53564D02*
X93196Y-53523D01*
X95035Y-52818D02*
X95035Y-52141D01*
X95602Y-53385D02*
X95035Y-52818D01*
X94127Y-51827D02*
X94127Y-52129D01*
X94127Y-52129D02*
X94127Y-52153D01*
X94201Y-53890D02*
X94221Y-53911D01*
X94201Y-52227D02*
X94201Y-53890D01*
X94127Y-52153D02*
X94201Y-52227D01*
X95251Y-51929D02*
X95066Y-51744D01*
X95251Y-52732D02*
X95251Y-51929D01*
X95578Y-53059D02*
X95251Y-52732D01*
X93552Y-51782D02*
X93552Y-52157D01*
X93552Y-52157D02*
X93552Y-52244D01*
X93828Y-53467D02*
X93828Y-53911D01*
X93598Y-53237D02*
X93828Y-53467D01*
X93598Y-52290D02*
X93598Y-53237D01*
X93552Y-52244D02*
X93598Y-52290D01*
X95618Y-53653D02*
X95716Y-53751D01*
X95291Y-53653D02*
X95618Y-53653D01*
X95074Y-53437D02*
X95291Y-53653D01*
X93931Y-52800D02*
X93931Y-53204D01*
X93931Y-53204D02*
X93931Y-53275D01*
X94024Y-53368D02*
X94024Y-53911D01*
X93931Y-53275D02*
X94024Y-53368D01*
X93328Y-52865D02*
X93328Y-53152D01*
X93631Y-53455D02*
X93631Y-53911D01*
X93328Y-53152D02*
X93631Y-53455D01*
X94940Y-49324D02*
X96345Y-49324D01*
X96514Y-49155D02*
X96919Y-49155D01*
X96345Y-49324D02*
X96514Y-49155D01*
X94940Y-49167D02*
X95879Y-49167D01*
X96225Y-48821D02*
X96919Y-48821D01*
X95879Y-49167D02*
X96225Y-48821D01*
X94079Y-59204D02*
X94079Y-58888D01*
X95600Y-49954D02*
X94940Y-49954D01*
X96248Y-50602D02*
X95600Y-49954D01*
X96346Y-50602D02*
X96248Y-50602D01*
X96440Y-50696D02*
X96346Y-50602D01*
X96637Y-50696D02*
X96440Y-50696D01*
X96881Y-50940D02*
X96637Y-50696D01*
X97606Y-54677D02*
X97830Y-54452D01*
X97606Y-55362D02*
X97606Y-54677D01*
X94079Y-58888D02*
X97606Y-55362D01*
X92656Y-49009D02*
X86627Y-49009D01*
X86240Y-48622D02*
X86240Y-48134D01*
X86627Y-49009D02*
X86240Y-48622D01*
X92656Y-49167D02*
X86296Y-49167D01*
X85740Y-48611D02*
X85740Y-48134D01*
X86296Y-49167D02*
X85740Y-48611D01*
X92656Y-48852D02*
X86970Y-48852D01*
X86740Y-48622D02*
X86740Y-48134D01*
X86970Y-48852D02*
X86740Y-48622D01*
X92656Y-49324D02*
X90454Y-49324D01*
X89261Y-51378D02*
X88930Y-51378D01*
X89465Y-51174D02*
X89261Y-51378D01*
X89465Y-50313D02*
X89465Y-51174D01*
X90454Y-49324D02*
X89465Y-50313D01*
X92656Y-49482D02*
X90485Y-49482D01*
X89454Y-51772D02*
X88930Y-51772D01*
X89688Y-51703D02*
X89454Y-51772D01*
X89688Y-50444D02*
X89688Y-51703D01*
X90485Y-49482D02*
X89688Y-50444D01*
X92656Y-50112D02*
X90757Y-50112D01*
X90448Y-50421D02*
X90448Y-50744D01*
X90757Y-50112D02*
X90448Y-50421D01*
G54D35*
X97768Y-61822D02*
X97768Y-59948D01*
X98047Y-54807D02*
X98338Y-54515D01*
X98047Y-59669D02*
X98047Y-54807D01*
X97768Y-59948D02*
X98047Y-59669D01*
G54D10*
X95773Y-49797D02*
X94940Y-49797D01*
X95842Y-49866D02*
X95773Y-49797D01*
X98338Y-54519D02*
X98338Y-54515D01*
X95263Y-59029D02*
X95263Y-57944D01*
X95576Y-50112D02*
X94940Y-50112D01*
X95842Y-50377D02*
X95576Y-50112D01*
X95842Y-50405D02*
X95842Y-50377D01*
X96346Y-50909D02*
X95842Y-50405D01*
X96736Y-57673D02*
X97425Y-56984D01*
X95535Y-57673D02*
X96736Y-57673D01*
X95263Y-57944D02*
X95535Y-57673D01*
X95668Y-58141D02*
X95668Y-58624D01*
X95668Y-58624D02*
X95263Y-59029D01*
X92656Y-49639D02*
X90545Y-49639D01*
X88428Y-52190D02*
X88428Y-51880D01*
X88552Y-52314D02*
X88428Y-52190D01*
X89102Y-52314D02*
X88552Y-52314D01*
X89816Y-51773D02*
X89102Y-52314D01*
X89816Y-50541D02*
X89816Y-51773D01*
X90545Y-49639D02*
X89816Y-50541D01*
X92656Y-49954D02*
X90734Y-49954D01*
X87601Y-51575D02*
X87926Y-51575D01*
X87460Y-51716D02*
X87601Y-51575D01*
X88322Y-52622D02*
X87944Y-52244D01*
X89314Y-52622D02*
X88322Y-52622D01*
X89633Y-52303D02*
X89314Y-52622D01*
X89811Y-52303D02*
X89633Y-52303D01*
X90082Y-52031D02*
X89811Y-52303D01*
X90082Y-50653D02*
X90082Y-52031D01*
X90248Y-50488D02*
X90082Y-50653D01*
X90248Y-50440D02*
X90248Y-50488D01*
X90734Y-49954D02*
X90248Y-50440D01*
X92656Y-49797D02*
X90604Y-49797D01*
X88231Y-52311D02*
X88231Y-51880D01*
X88398Y-52478D02*
X88231Y-52311D01*
X89158Y-52478D02*
X88398Y-52478D01*
X89959Y-51822D02*
X89158Y-52478D01*
X89959Y-50587D02*
X89959Y-51822D01*
X90604Y-49797D02*
X89959Y-50587D01*
X92932Y-48261D02*
X92533Y-48261D01*
X84285Y-48068D02*
X84285Y-48614D01*
X84326Y-48027D02*
X84285Y-48068D01*
X92533Y-48261D02*
X92354Y-48082D01*
X81155Y-48614D02*
X84285Y-48614D01*
X96846Y-52948D02*
X96287Y-52948D01*
X94870Y-50830D02*
X94870Y-50830D01*
X94921Y-50830D02*
X94870Y-50830D01*
X95547Y-51456D02*
X94921Y-50830D01*
X95547Y-52208D02*
X95547Y-51456D01*
X96287Y-52948D02*
X95547Y-52208D01*
X94664Y-50545D02*
X94664Y-50668D01*
X94826Y-50830D02*
X94870Y-50830D01*
X94870Y-50830D02*
X95779Y-50830D01*
X94664Y-50668D02*
X94826Y-50830D01*
X94507Y-50545D02*
X94507Y-50700D01*
X96275Y-53448D02*
X96846Y-53448D01*
X95409Y-52582D02*
X96275Y-53448D01*
X95409Y-51602D02*
X95409Y-52582D01*
X94507Y-50700D02*
X95409Y-51602D01*
X94940Y-49482D02*
X97074Y-49482D01*
X97074Y-49482D02*
X97116Y-49440D01*
X97116Y-49952D02*
X97116Y-49440D01*
X97116Y-49440D02*
X97116Y-49155D01*
X94940Y-48694D02*
X94940Y-48537D01*
G54D35*
X94940Y-48537D02*
X94940Y-48000D01*
X94940Y-48000D02*
X94940Y-48000D01*
X88783Y-48080D02*
X88783Y-48393D01*
X89065Y-47798D02*
X88783Y-48080D01*
G54D10*
X88783Y-48393D02*
X88783Y-47888D01*
X88783Y-47888D02*
X88648Y-47753D01*
X88648Y-47753D02*
X88558Y-47663D01*
X88558Y-47663D02*
X88558Y-47340D01*
X94940Y-48537D02*
X95646Y-48537D01*
X95646Y-48537D02*
X95849Y-48334D01*
X98051Y-47381D02*
X98248Y-47185D01*
X98248Y-47185D02*
X98248Y-47047D01*
X98248Y-47047D02*
X98385Y-46909D01*
X98385Y-46909D02*
X98070Y-46909D01*
X98070Y-46909D02*
X97755Y-46909D01*
X97755Y-46909D02*
X97460Y-46909D01*
X97460Y-46909D02*
X97421Y-46870D01*
X97421Y-46870D02*
X97185Y-46870D01*
X97185Y-46870D02*
X97185Y-46594D01*
X97185Y-46594D02*
X97185Y-46318D01*
X97185Y-46318D02*
X97185Y-46043D01*
X97185Y-46043D02*
X97185Y-45748D01*
X97185Y-45748D02*
X97185Y-45413D01*
X97185Y-45413D02*
X97185Y-45059D01*
X97185Y-45059D02*
X97185Y-44685D01*
X97185Y-44685D02*
X97165Y-44665D01*
X97165Y-44665D02*
X97165Y-44429D01*
X98051Y-47381D02*
X96447Y-47381D01*
X96447Y-47381D02*
X95849Y-47980D01*
X97100Y-46600D02*
X96763Y-46600D01*
X96763Y-46600D02*
X96068Y-45905D01*
X92755Y-55968D02*
X93040Y-55968D01*
X93040Y-55968D02*
X93926Y-55082D01*
X92755Y-54393D02*
X93237Y-54393D01*
X93237Y-54393D02*
X93926Y-55082D01*
X95097Y-55771D02*
X94615Y-55771D01*
X94615Y-55771D02*
X93926Y-55082D01*
X95097Y-55574D02*
X94418Y-55574D01*
X94418Y-55574D02*
X93926Y-55082D01*
X95097Y-54984D02*
X94024Y-54984D01*
X94024Y-54984D02*
X93926Y-55082D01*
X95097Y-54393D02*
X94615Y-54393D01*
X94615Y-54393D02*
X93926Y-55082D01*
X92755Y-55180D02*
X93828Y-55180D01*
X93828Y-55180D02*
X93926Y-55082D01*
X88559Y-49480D02*
X88559Y-49488D01*
X88559Y-49480D02*
X88559Y-49488D01*
G54D35*
X87926Y-51772D02*
X87926Y-51876D01*
X87374Y-52429D02*
X87374Y-53086D01*
X87926Y-51876D02*
X87374Y-52429D01*
X89484Y-49594D02*
X89344Y-49594D01*
X89344Y-49594D02*
X88985Y-49953D01*
G54D36*
X91850Y-51212D02*
X91637Y-51212D01*
X89438Y-49548D02*
X88985Y-49548D01*
X89484Y-49594D02*
X89438Y-49548D01*
X91637Y-51212D02*
X90885Y-50460D01*
G54D35*
X92932Y-50545D02*
X92726Y-50545D01*
X91824Y-51186D02*
X91824Y-50819D01*
X91850Y-51212D02*
X91824Y-51186D01*
X92726Y-50545D02*
X92472Y-50799D01*
X94940Y-48852D02*
X94349Y-48852D01*
X94349Y-48852D02*
X93798Y-49403D01*
X94940Y-49009D02*
X94192Y-49009D01*
X94192Y-49009D02*
X93798Y-49403D01*
X92932Y-50545D02*
X92932Y-50269D01*
X92932Y-50269D02*
X93798Y-49403D01*
X88985Y-49953D02*
X88985Y-49548D01*
X86429Y-49488D02*
X85535Y-50381D01*
X88985Y-49548D02*
X88925Y-49488D01*
X88925Y-49488D02*
X88751Y-49488D01*
X88751Y-49488D02*
X88559Y-49488D01*
X88559Y-49488D02*
X88366Y-49488D01*
X88366Y-49488D02*
X86429Y-49488D01*
X85535Y-50381D02*
X86029Y-50381D01*
X86029Y-50381D02*
X86631Y-50983D01*
X85799Y-58169D02*
X85799Y-63007D01*
X86259Y-63468D02*
X87228Y-63468D01*
X85799Y-63007D02*
X86259Y-63468D01*
X84285Y-50385D02*
X85531Y-50385D01*
X85531Y-50385D02*
X85535Y-50381D01*
X90673Y-57448D02*
X90826Y-57295D01*
X90826Y-57295D02*
X91200Y-57295D01*
X89405Y-51575D02*
X89460Y-51519D01*
X88930Y-51575D02*
X89405Y-51575D01*
X88930Y-51181D02*
X89238Y-51181D01*
X89238Y-51181D02*
X89271Y-51148D01*
X89271Y-51148D02*
X89271Y-50239D01*
X89271Y-50239D02*
X88985Y-49953D01*
X81578Y-51673D02*
X81578Y-51866D01*
X85313Y-52418D02*
X85313Y-52023D01*
X85035Y-52696D02*
X85313Y-52418D01*
X82409Y-52696D02*
X85035Y-52696D01*
X81578Y-51866D02*
X82409Y-52696D01*
G54D10*
X81155Y-50385D02*
X84285Y-50385D01*
X81578Y-51673D02*
X81578Y-51279D01*
X81155Y-50856D02*
X81155Y-50385D01*
X81578Y-51279D02*
X81155Y-50856D01*
G54D35*
X92755Y-54393D02*
X91850Y-54393D01*
X91381Y-53924D02*
X91381Y-53638D01*
X91850Y-54393D02*
X91381Y-53924D01*
X88830Y-53954D02*
X88954Y-53954D01*
X87114Y-53086D02*
X87374Y-53086D01*
X86889Y-52862D02*
X87114Y-53086D01*
X88954Y-53954D02*
X89389Y-54389D01*
X87374Y-53086D02*
X87350Y-53086D01*
X87350Y-53086D02*
X86948Y-52684D01*
X86948Y-52684D02*
X86948Y-51970D01*
G54D10*
X88830Y-53954D02*
X89167Y-53954D01*
X89960Y-53161D02*
X90283Y-53161D01*
X89167Y-53954D02*
X89960Y-53161D01*
X90511Y-55929D02*
X90511Y-56507D01*
X90945Y-56941D02*
X91200Y-56941D01*
X90511Y-56507D02*
X90945Y-56941D01*
X92755Y-55574D02*
X92074Y-55574D01*
X90984Y-55929D02*
X90511Y-55929D01*
X91578Y-55334D02*
X90984Y-55929D01*
X91834Y-55334D02*
X91578Y-55334D01*
X92074Y-55574D02*
X91834Y-55334D01*
G54D35*
X95097Y-55180D02*
X95905Y-55180D01*
X95905Y-55180D02*
X96023Y-55299D01*
G54D10*
X95905Y-55180D02*
X96023Y-55299D01*
X95523Y-55377D02*
X95566Y-55421D01*
X95523Y-55377D02*
X95097Y-55377D01*
G54D35*
X93023Y-57204D02*
X93023Y-56952D01*
X93023Y-56952D02*
X93237Y-56738D01*
X93237Y-56738D02*
X93237Y-56253D01*
G54D10*
X93237Y-56738D02*
X93237Y-56253D01*
X93023Y-56952D02*
X93237Y-56738D01*
X94218Y-57115D02*
X94218Y-56256D01*
X94218Y-56256D02*
X94221Y-56253D01*
X94913Y-59829D02*
X94913Y-59967D01*
X94913Y-59967D02*
X94271Y-60609D01*
X93040Y-53911D02*
X93040Y-53681D01*
X92944Y-53585D02*
X92944Y-51683D01*
X93040Y-53681D02*
X92944Y-53585D01*
X90511Y-54472D02*
X90511Y-54106D01*
X90283Y-53877D02*
X90283Y-53515D01*
X90511Y-54106D02*
X90283Y-53877D01*
X92755Y-55377D02*
X92157Y-55377D01*
X91251Y-54472D02*
X90511Y-54472D01*
X92157Y-55377D02*
X91251Y-54472D01*
G54D35*
X90518Y-60240D02*
X90011Y-60240D01*
X90011Y-60240D02*
X90000Y-60251D01*
X95929Y-63061D02*
X95159Y-63061D01*
X95159Y-63061D02*
X95145Y-63074D01*
X96279Y-62261D02*
X96372Y-62261D01*
X96811Y-61822D02*
X97168Y-61822D01*
X96372Y-62261D02*
X96811Y-61822D01*
G54D10*
X96379Y-62161D02*
X96279Y-62261D01*
X92661Y-59958D02*
X92725Y-59958D01*
X92725Y-59958D02*
X93479Y-59204D01*
X94349Y-48261D02*
X94349Y-47845D01*
X94349Y-47845D02*
X93856Y-47352D01*
X93404Y-50545D02*
X93404Y-51076D01*
X93336Y-52503D02*
X93328Y-52511D01*
X93336Y-51144D02*
X93336Y-52503D01*
X93404Y-51076D02*
X93336Y-51144D01*
X93562Y-50545D02*
X93562Y-51418D01*
X93562Y-51418D02*
X93552Y-51428D01*
X93719Y-50545D02*
X93719Y-51161D01*
X93830Y-52345D02*
X93931Y-52446D01*
X93830Y-51271D02*
X93830Y-52345D01*
X93719Y-51161D02*
X93830Y-51271D01*
X93877Y-50545D02*
X93877Y-51092D01*
X94127Y-51342D02*
X94127Y-51473D01*
X93877Y-51092D02*
X94127Y-51342D01*
X90448Y-51098D02*
X90448Y-51892D01*
X90448Y-51892D02*
X90460Y-51904D01*
G54D36*
X89362Y-61732D02*
X89362Y-57850D01*
X88480Y-56968D02*
X88480Y-54754D01*
X89362Y-57850D02*
X88480Y-56968D01*
X88480Y-54754D02*
X87651Y-54754D01*
X87651Y-54754D02*
X87503Y-54605D01*
X87503Y-54605D02*
X82235Y-54605D01*
G54D35*
X82235Y-54605D02*
X87503Y-54605D01*
X87503Y-54605D02*
X87651Y-54754D01*
X82578Y-51673D02*
X84513Y-51673D01*
G54D10*
X94799Y-57129D02*
X94799Y-56803D01*
X94615Y-56619D02*
X94615Y-56253D01*
X94799Y-56803D02*
X94615Y-56619D01*
X93493Y-57441D02*
X92653Y-57441D01*
X92775Y-56299D02*
X92771Y-56295D01*
X92775Y-56492D02*
X92775Y-56299D01*
X92000Y-57267D02*
X92775Y-56492D01*
X92000Y-57330D02*
X92000Y-57267D01*
X92216Y-57547D02*
X92000Y-57330D01*
X92547Y-57547D02*
X92216Y-57547D01*
X92653Y-57441D02*
X92547Y-57547D01*
X93493Y-57441D02*
X93493Y-58052D01*
X93493Y-58052D02*
X93492Y-58053D01*
G54D35*
X97313Y-48821D02*
X97313Y-48777D01*
G54D37*
X98901Y-47188D02*
X97488Y-48602D01*
X98901Y-47188D02*
X98901Y-46342D01*
G54D35*
X97313Y-48777D02*
X97488Y-48602D01*
X90868Y-48393D02*
X91169Y-48694D01*
X91169Y-48694D02*
X91919Y-48694D01*
G54D10*
X92656Y-48694D02*
X91919Y-48694D01*
X91919Y-48694D02*
X91169Y-48694D01*
G54D35*
X90268Y-48393D02*
X89383Y-48393D01*
G54D10*
X93631Y-56253D02*
X93631Y-56949D01*
X93631Y-56949D02*
X93493Y-57087D01*
G54D35*
X93040Y-56253D02*
X93040Y-56577D01*
X93040Y-56577D02*
X92338Y-57279D01*
G54D10*
X92338Y-57279D02*
X93040Y-56577D01*
G54D35*
X91646Y-61696D02*
X92161Y-61696D01*
X90448Y-62893D02*
X91646Y-61696D01*
G54D10*
X94271Y-61209D02*
X93659Y-61209D01*
X93659Y-61209D02*
X93181Y-61688D01*
X93181Y-61688D02*
X92169Y-61688D01*
X92169Y-61688D02*
X92161Y-61696D01*
X92311Y-60758D02*
X92311Y-61546D01*
X92311Y-61546D02*
X92161Y-61696D01*
X94940Y-49639D02*
X96151Y-49639D01*
X96151Y-49639D02*
X96263Y-49752D01*
G54D35*
X87926Y-51181D02*
X87383Y-51181D01*
X87383Y-51181D02*
X86948Y-51616D01*
G54D10*
X94985Y-45546D02*
X96063Y-45546D01*
X96063Y-45546D02*
X96068Y-45551D01*
X94664Y-48261D02*
X94664Y-47704D01*
X95413Y-45974D02*
X94985Y-45546D01*
X95413Y-46955D02*
X95413Y-45974D01*
X94664Y-47704D02*
X95413Y-46955D01*
X94507Y-48261D02*
X94507Y-47032D01*
X93891Y-46416D02*
X93891Y-45540D01*
X94507Y-47032D02*
X93891Y-46416D01*
X93891Y-45540D02*
X92669Y-45540D01*
X92669Y-45540D02*
X92668Y-45541D01*
X89188Y-45780D02*
X89188Y-45969D01*
X89188Y-45969D02*
X90019Y-46801D01*
X93247Y-48261D02*
X93247Y-47987D01*
X90617Y-47398D02*
X90019Y-46801D01*
X92658Y-47398D02*
X90617Y-47398D01*
X93247Y-47987D02*
X92658Y-47398D01*
X90490Y-44523D02*
X90490Y-44933D01*
X90490Y-44933D02*
X91189Y-45631D01*
X93404Y-48261D02*
X93404Y-47847D01*
X93404Y-47847D02*
X91189Y-45631D01*
G54D35*
X90460Y-52504D02*
X89723Y-52504D01*
X89723Y-52504D02*
X89086Y-53141D01*
X89086Y-53141D02*
X88342Y-53141D01*
X88342Y-53141D02*
X88149Y-53334D01*
G54D10*
X88342Y-53141D02*
X88149Y-53334D01*
X89086Y-53141D02*
X88342Y-53141D01*
X89723Y-52504D02*
X89086Y-53141D01*
G54D35*
X88625Y-50876D02*
X88625Y-50593D01*
X88625Y-50593D02*
X88204Y-50173D01*
X88204Y-50173D02*
X87448Y-50173D01*
X87448Y-50551D02*
X87016Y-50983D01*
G54D36*
X87448Y-50551D02*
X88046Y-49953D01*
G54D35*
X87440Y-49803D02*
X87440Y-50165D01*
X87440Y-50165D02*
X87448Y-50173D01*
X88631Y-49953D02*
X87668Y-49953D01*
X87668Y-49953D02*
X87448Y-50173D01*
X88631Y-49953D02*
X87591Y-49953D01*
X87591Y-49953D02*
X87440Y-49803D01*
X88631Y-49953D02*
X88046Y-49953D01*
G54D36*
X89692Y-55803D02*
X89405Y-55803D01*
X89177Y-55574D02*
X89047Y-55574D01*
X89405Y-55803D02*
X89177Y-55574D01*
G54D35*
X91118Y-60240D02*
X91118Y-59684D01*
X91118Y-59684D02*
X91342Y-59460D01*
X91905Y-59083D02*
X91719Y-59083D01*
X91719Y-59083D02*
X91342Y-59460D01*
G54D36*
X89692Y-55803D02*
X89692Y-57413D01*
X89692Y-57413D02*
X91287Y-59007D01*
X87795Y-53409D02*
X87795Y-52725D01*
X87795Y-52725D02*
X87788Y-52719D01*
X88149Y-53334D02*
X88149Y-53080D01*
X88149Y-53080D02*
X87788Y-52719D01*
X87788Y-52719D02*
X87787Y-52720D01*
X88405Y-53539D02*
X88354Y-53539D01*
X88354Y-53539D02*
X88149Y-53334D01*
X87511Y-53988D02*
X87185Y-53988D01*
X87185Y-53988D02*
X87090Y-53893D01*
X88149Y-53334D02*
X88149Y-53935D01*
X88149Y-53935D02*
X87795Y-53580D01*
X87795Y-53580D02*
X87795Y-53704D01*
X87795Y-53704D02*
X87511Y-53988D01*
G54D35*
X96043Y-54394D02*
X95920Y-54394D01*
X95920Y-54394D02*
X95535Y-54779D01*
X96043Y-54394D02*
X95574Y-54394D01*
X95574Y-54394D02*
X95527Y-54440D01*
X95527Y-54440D02*
X95535Y-54440D01*
X95535Y-54440D02*
X95527Y-54440D01*
X95527Y-54440D02*
X95535Y-54440D01*
X95097Y-54787D02*
X95097Y-54590D01*
X95097Y-54590D02*
X95535Y-54590D01*
X95535Y-54590D02*
X95539Y-54586D01*
X95539Y-54586D02*
X95543Y-54586D01*
X95543Y-54586D02*
X95535Y-54586D01*
X87795Y-53409D02*
X88130Y-53744D01*
X88130Y-53744D02*
X88130Y-53954D01*
X96692Y-58850D02*
X96644Y-58850D01*
X96692Y-58850D02*
X96644Y-58850D01*
X91961Y-59958D02*
X91840Y-59958D01*
X91840Y-59958D02*
X91342Y-59460D01*
X91287Y-59007D02*
X89692Y-57413D01*
X92091Y-52828D02*
X92091Y-52845D01*
X92091Y-52845D02*
X91708Y-53228D01*
X91735Y-53638D02*
X91735Y-53255D01*
X91735Y-53255D02*
X91708Y-53228D01*
X92676Y-54196D02*
X92755Y-54196D01*
X91708Y-53228D02*
X92676Y-54196D01*
X91342Y-59460D02*
X91344Y-59462D01*
X91344Y-59462D02*
X91342Y-59464D01*
X91342Y-59464D02*
X91342Y-59460D01*
X96644Y-60106D02*
X96644Y-60629D01*
X96644Y-60629D02*
X97216Y-61200D01*
X96644Y-60106D02*
X96644Y-59598D01*
X96644Y-59598D02*
X96644Y-58850D01*
X96644Y-58850D02*
X96644Y-58527D01*
X96644Y-58527D02*
X96644Y-58518D01*
X96644Y-58518D02*
X96268Y-58141D01*
X96693Y-59236D02*
X96693Y-58566D01*
X96693Y-58566D02*
X96268Y-58141D01*
X91905Y-59083D02*
X92443Y-59083D01*
X92443Y-59083D02*
X92551Y-58976D01*
X91905Y-59083D02*
X91905Y-59902D01*
X91905Y-59902D02*
X91961Y-59958D01*
X91961Y-59958D02*
X91400Y-59958D01*
X91400Y-59958D02*
X91118Y-60240D01*
X91840Y-59958D02*
X91342Y-59460D01*
X91708Y-54610D02*
X91728Y-54590D01*
X91728Y-54590D02*
X91921Y-54590D01*
X91848Y-48305D02*
X91466Y-48305D01*
X91466Y-48305D02*
X91405Y-48366D01*
X91824Y-50465D02*
X92020Y-50269D01*
X92020Y-50269D02*
X92297Y-50269D01*
X92204Y-50409D02*
X92204Y-50362D01*
X92204Y-50362D02*
X92297Y-50269D01*
X90523Y-52811D02*
X91523Y-52811D01*
X92204Y-52129D02*
X92204Y-50409D01*
X92204Y-50409D02*
X92204Y-50405D01*
X91523Y-52811D02*
X92204Y-52129D01*
G54D10*
X92091Y-52828D02*
X92091Y-53282D01*
X92091Y-53282D02*
X91735Y-53638D01*
G54D35*
X98381Y-53448D02*
X98381Y-53645D01*
X98381Y-53645D02*
X98161Y-53866D01*
X98161Y-53866D02*
X96011Y-53866D01*
X96011Y-53866D02*
X95535Y-54342D01*
X95535Y-54342D02*
X95535Y-54440D01*
X95535Y-54440D02*
X95535Y-54586D01*
X95535Y-54586D02*
X95535Y-54779D01*
X87724Y-48362D02*
X87496Y-48134D01*
X87496Y-48134D02*
X87240Y-48134D01*
X87448Y-50551D02*
X87492Y-50551D01*
X87492Y-50551D02*
X87926Y-50984D01*
X88130Y-53954D02*
X88130Y-53063D01*
X88130Y-53063D02*
X87787Y-52720D01*
X87016Y-50983D02*
X86985Y-50983D01*
X88149Y-53334D02*
X87905Y-53334D01*
X87799Y-53440D02*
X87374Y-53440D01*
X87905Y-53334D02*
X87799Y-53440D01*
X95097Y-54787D02*
X95527Y-54787D01*
X95527Y-54787D02*
X95535Y-54779D01*
X88130Y-53353D02*
X88130Y-53551D01*
X88149Y-53334D02*
X88130Y-53353D01*
X88130Y-53551D02*
X88130Y-53954D01*
X87421Y-53846D02*
X87421Y-53488D01*
X87421Y-53488D02*
X87374Y-53440D01*
X87421Y-53846D02*
X87421Y-53846D01*
X87421Y-53846D02*
X87421Y-53897D01*
X87421Y-53897D02*
X87511Y-53988D01*
X95097Y-55968D02*
X95326Y-55968D01*
X95326Y-55968D02*
X95582Y-56224D01*
X87151Y-53954D02*
X87342Y-53954D01*
X87090Y-53893D02*
X87151Y-53954D01*
X87342Y-53954D02*
X87649Y-53954D01*
X87649Y-53954D02*
X87748Y-53954D01*
X87748Y-53954D02*
X88130Y-53954D01*
X91808Y-55781D02*
X91450Y-55781D01*
X91450Y-55781D02*
X91448Y-55783D01*
X87511Y-53988D02*
X87545Y-53954D01*
X87545Y-53954D02*
X88130Y-53954D01*
X92755Y-54590D02*
X91921Y-54590D01*
X91921Y-54590D02*
X91759Y-54590D01*
X90830Y-53118D02*
X90523Y-52811D01*
X90830Y-53661D02*
X90830Y-53118D01*
X91759Y-54590D02*
X90830Y-53661D01*
X90523Y-52811D02*
X89720Y-52811D01*
X89720Y-52811D02*
X89181Y-53350D01*
X89181Y-53350D02*
X88734Y-53350D01*
X88734Y-53350D02*
X88130Y-53954D01*
X92656Y-48537D02*
X92080Y-48537D01*
X92080Y-48537D02*
X91848Y-48305D01*
X87374Y-53440D02*
X86928Y-53440D01*
X86928Y-53440D02*
X86129Y-52641D01*
X86129Y-52641D02*
X86129Y-51661D01*
X86129Y-51661D02*
X85791Y-51323D01*
X85791Y-51323D02*
X85313Y-51323D01*
G54D10*
X92656Y-50269D02*
X92297Y-50269D01*
X92297Y-50269D02*
X92020Y-50269D01*
G54D35*
X87926Y-50984D02*
X86986Y-50984D01*
G54D10*
X86986Y-50984D02*
X86985Y-50983D01*
G54D35*
X88625Y-50876D02*
X88625Y-49959D01*
G54D10*
X88625Y-49959D02*
X88631Y-49953D01*
X91808Y-55781D02*
X92745Y-55781D01*
X92745Y-55781D02*
X92755Y-55771D01*
X96063Y-55968D02*
X95097Y-55968D01*
X95097Y-55968D02*
X95097Y-55968D01*
X95097Y-54590D02*
X95597Y-54590D01*
X95597Y-54590D02*
X95770Y-54417D01*
X96043Y-54394D02*
X95793Y-54394D01*
X95793Y-54394D02*
X95770Y-54417D01*
X95770Y-54417D02*
X95400Y-54787D01*
X95400Y-54787D02*
X95097Y-54787D01*
X92755Y-54196D02*
X92293Y-54196D01*
X92293Y-54196D02*
X91735Y-53638D01*
G36*
X91824Y-55214D02*
X91578Y-55214D01*
X91532Y-55223D01*
X91493Y-55249D01*
X91493Y-55249D01*
X91074Y-55669D01*
X91074Y-55576D01*
X91060Y-55543D01*
X91035Y-55518D01*
X91002Y-55504D01*
X90966Y-55504D01*
X90021Y-55504D01*
X89988Y-55518D01*
X89963Y-55543D01*
X89949Y-55576D01*
X89949Y-55612D01*
X89949Y-55637D01*
X89913Y-55582D01*
X89812Y-55515D01*
X89692Y-55491D01*
X89534Y-55491D01*
X89397Y-55354D01*
X89296Y-55287D01*
X89177Y-55263D01*
X89047Y-55263D01*
X88928Y-55287D01*
X88827Y-55354D01*
X88791Y-55407D01*
X88791Y-54754D01*
X88767Y-54635D01*
X88750Y-54608D01*
X88750Y-54556D01*
X88736Y-54523D01*
X88711Y-54498D01*
X88678Y-54484D01*
X88642Y-54484D01*
X88626Y-54484D01*
X88599Y-54466D01*
X88480Y-54442D01*
X87780Y-54442D01*
X87723Y-54385D01*
X87622Y-54318D01*
X87520Y-54297D01*
X87630Y-54275D01*
X87731Y-54208D01*
X87846Y-54094D01*
X87860Y-54094D01*
X87860Y-54152D01*
X87874Y-54185D01*
X87899Y-54210D01*
X87932Y-54224D01*
X87968Y-54224D01*
X88038Y-54224D01*
X88149Y-54246D01*
X88260Y-54224D01*
X88328Y-54224D01*
X88361Y-54210D01*
X88386Y-54185D01*
X88400Y-54152D01*
X88400Y-54116D01*
X88400Y-54109D01*
X88437Y-54054D01*
X88460Y-53935D01*
X88460Y-53839D01*
X88524Y-53827D01*
X88625Y-53759D01*
X88693Y-53658D01*
X88710Y-53572D01*
X88792Y-53490D01*
X89181Y-53490D01*
X89234Y-53479D01*
X89280Y-53449D01*
X89778Y-52950D01*
X90465Y-52950D01*
X90690Y-53176D01*
X90690Y-53661D01*
X90701Y-53714D01*
X90731Y-53760D01*
X91031Y-54060D01*
X91002Y-54047D01*
X90966Y-54047D01*
X90614Y-54047D01*
X90596Y-54021D01*
X90596Y-54021D01*
X90403Y-53828D01*
X90403Y-53684D01*
X90419Y-53684D01*
X90452Y-53670D01*
X90477Y-53645D01*
X90491Y-53612D01*
X90491Y-53576D01*
X90491Y-53419D01*
X90477Y-53386D01*
X90452Y-53360D01*
X90419Y-53347D01*
X90383Y-53347D01*
X90147Y-53347D01*
X90114Y-53360D01*
X90089Y-53386D01*
X90075Y-53419D01*
X90075Y-53454D01*
X90075Y-53611D01*
X90089Y-53644D01*
X90114Y-53670D01*
X90147Y-53683D01*
X90163Y-53684D01*
X90163Y-53877D01*
X90172Y-53923D01*
X90198Y-53962D01*
X90283Y-54047D01*
X90021Y-54047D01*
X89988Y-54061D01*
X89963Y-54086D01*
X89949Y-54119D01*
X89949Y-54155D01*
X89949Y-54824D01*
X89963Y-54857D01*
X89988Y-54883D01*
X90021Y-54896D01*
X90057Y-54897D01*
X91002Y-54897D01*
X91035Y-54883D01*
X91060Y-54858D01*
X91074Y-54825D01*
X91074Y-54789D01*
X91074Y-54592D01*
X91202Y-54592D01*
X91824Y-55214D01*
X91824Y-55214D01*
G37*
G54D38*
X91824Y-55214D02*
X91578Y-55214D01*
X91532Y-55223D01*
X91493Y-55249D01*
X91493Y-55249D01*
X91074Y-55669D01*
X91074Y-55576D01*
X91060Y-55543D01*
X91035Y-55518D01*
X91002Y-55504D01*
X90966Y-55504D01*
X90021Y-55504D01*
X89988Y-55518D01*
X89963Y-55543D01*
X89949Y-55576D01*
X89949Y-55612D01*
X89949Y-55637D01*
X89913Y-55582D01*
X89812Y-55515D01*
X89692Y-55491D01*
X89534Y-55491D01*
X89397Y-55354D01*
X89296Y-55287D01*
X89177Y-55263D01*
X89047Y-55263D01*
X88928Y-55287D01*
X88827Y-55354D01*
X88791Y-55407D01*
X88791Y-54754D01*
X88767Y-54635D01*
X88750Y-54608D01*
X88750Y-54556D01*
X88736Y-54523D01*
X88711Y-54498D01*
X88678Y-54484D01*
X88642Y-54484D01*
X88626Y-54484D01*
X88599Y-54466D01*
X88480Y-54442D01*
X87780Y-54442D01*
X87723Y-54385D01*
X87622Y-54318D01*
X87520Y-54297D01*
X87630Y-54275D01*
X87731Y-54208D01*
X87846Y-54094D01*
X87860Y-54094D01*
X87860Y-54152D01*
X87874Y-54185D01*
X87899Y-54210D01*
X87932Y-54224D01*
X87968Y-54224D01*
X88038Y-54224D01*
X88149Y-54246D01*
X88260Y-54224D01*
X88328Y-54224D01*
X88361Y-54210D01*
X88386Y-54185D01*
X88400Y-54152D01*
X88400Y-54116D01*
X88400Y-54109D01*
X88437Y-54054D01*
X88460Y-53935D01*
X88460Y-53839D01*
X88524Y-53827D01*
X88625Y-53759D01*
X88693Y-53658D01*
X88710Y-53572D01*
X88792Y-53490D01*
X89181Y-53490D01*
X89234Y-53479D01*
X89280Y-53449D01*
X89778Y-52950D01*
X90465Y-52950D01*
X90690Y-53176D01*
X90690Y-53661D01*
X90701Y-53714D01*
X90731Y-53760D01*
X91031Y-54060D01*
X91002Y-54047D01*
X90966Y-54047D01*
X90614Y-54047D01*
X90596Y-54021D01*
X90596Y-54021D01*
X90403Y-53828D01*
X90403Y-53684D01*
X90419Y-53684D01*
X90452Y-53670D01*
X90477Y-53645D01*
X90491Y-53612D01*
X90491Y-53576D01*
X90491Y-53419D01*
X90477Y-53386D01*
X90452Y-53360D01*
X90419Y-53347D01*
X90383Y-53347D01*
X90147Y-53347D01*
X90114Y-53360D01*
X90089Y-53386D01*
X90075Y-53419D01*
X90075Y-53454D01*
X90075Y-53611D01*
X90089Y-53644D01*
X90114Y-53670D01*
X90147Y-53683D01*
X90163Y-53684D01*
X90163Y-53877D01*
X90172Y-53923D01*
X90198Y-53962D01*
X90283Y-54047D01*
X90021Y-54047D01*
X89988Y-54061D01*
X89963Y-54086D01*
X89949Y-54119D01*
X89949Y-54155D01*
X89949Y-54824D01*
X89963Y-54857D01*
X89988Y-54883D01*
X90021Y-54896D01*
X90057Y-54897D01*
X91002Y-54897D01*
X91035Y-54883D01*
X91060Y-54858D01*
X91074Y-54825D01*
X91074Y-54789D01*
X91074Y-54592D01*
X91202Y-54592D01*
X91824Y-55214D01*
G54D10*
G36*
X92064Y-52071D02*
X91465Y-52671D01*
X90765Y-52671D01*
X90775Y-52647D01*
X90775Y-52611D01*
X90775Y-52361D01*
X90761Y-52328D01*
X90736Y-52303D01*
X90703Y-52289D01*
X90667Y-52289D01*
X90217Y-52289D01*
X90184Y-52303D01*
X90159Y-52328D01*
X90145Y-52361D01*
X90145Y-52364D01*
X89918Y-52364D01*
X90167Y-52116D01*
X90167Y-52116D01*
X90167Y-52116D01*
X90178Y-52099D01*
X90184Y-52105D01*
X90217Y-52119D01*
X90253Y-52119D01*
X90703Y-52119D01*
X90736Y-52106D01*
X90761Y-52080D01*
X90775Y-52047D01*
X90775Y-52011D01*
X90775Y-51761D01*
X90761Y-51728D01*
X90736Y-51703D01*
X90703Y-51689D01*
X90667Y-51689D01*
X90568Y-51689D01*
X90568Y-51266D01*
X90584Y-51266D01*
X90617Y-51253D01*
X90643Y-51227D01*
X90656Y-51194D01*
X90656Y-51158D01*
X90656Y-51001D01*
X90643Y-50968D01*
X90617Y-50943D01*
X90584Y-50929D01*
X90549Y-50929D01*
X90313Y-50929D01*
X90279Y-50943D01*
X90254Y-50968D01*
X90240Y-51001D01*
X90240Y-51037D01*
X90240Y-51194D01*
X90254Y-51227D01*
X90279Y-51252D01*
X90312Y-51266D01*
X90328Y-51266D01*
X90328Y-51689D01*
X90217Y-51689D01*
X90202Y-51696D01*
X90202Y-50703D01*
X90240Y-50664D01*
X90240Y-50683D01*
X90240Y-50840D01*
X90254Y-50873D01*
X90279Y-50898D01*
X90312Y-50912D01*
X90348Y-50912D01*
X90584Y-50912D01*
X90617Y-50899D01*
X90643Y-50873D01*
X90656Y-50840D01*
X90656Y-50804D01*
X90656Y-50647D01*
X90643Y-50614D01*
X90617Y-50589D01*
X90584Y-50575D01*
X90568Y-50575D01*
X90568Y-50470D01*
X90807Y-50232D01*
X91859Y-50232D01*
X91794Y-50296D01*
X91688Y-50296D01*
X91655Y-50310D01*
X91630Y-50335D01*
X91616Y-50368D01*
X91616Y-50404D01*
X91616Y-50561D01*
X91630Y-50594D01*
X91655Y-50620D01*
X91688Y-50633D01*
X91724Y-50633D01*
X91960Y-50633D01*
X91993Y-50620D01*
X92018Y-50594D01*
X92032Y-50561D01*
X92032Y-50526D01*
X92032Y-50455D01*
X92064Y-50422D01*
X92064Y-52071D01*
X92064Y-52071D01*
G37*
G54D38*
X92064Y-52071D02*
X91465Y-52671D01*
X90765Y-52671D01*
X90775Y-52647D01*
X90775Y-52611D01*
X90775Y-52361D01*
X90761Y-52328D01*
X90736Y-52303D01*
X90703Y-52289D01*
X90667Y-52289D01*
X90217Y-52289D01*
X90184Y-52303D01*
X90159Y-52328D01*
X90145Y-52361D01*
X90145Y-52364D01*
X89918Y-52364D01*
X90167Y-52116D01*
X90167Y-52116D01*
X90167Y-52116D01*
X90178Y-52099D01*
X90184Y-52105D01*
X90217Y-52119D01*
X90253Y-52119D01*
X90703Y-52119D01*
X90736Y-52106D01*
X90761Y-52080D01*
X90775Y-52047D01*
X90775Y-52011D01*
X90775Y-51761D01*
X90761Y-51728D01*
X90736Y-51703D01*
X90703Y-51689D01*
X90667Y-51689D01*
X90568Y-51689D01*
X90568Y-51266D01*
X90584Y-51266D01*
X90617Y-51253D01*
X90643Y-51227D01*
X90656Y-51194D01*
X90656Y-51158D01*
X90656Y-51001D01*
X90643Y-50968D01*
X90617Y-50943D01*
X90584Y-50929D01*
X90549Y-50929D01*
X90313Y-50929D01*
X90279Y-50943D01*
X90254Y-50968D01*
X90240Y-51001D01*
X90240Y-51037D01*
X90240Y-51194D01*
X90254Y-51227D01*
X90279Y-51252D01*
X90312Y-51266D01*
X90328Y-51266D01*
X90328Y-51689D01*
X90217Y-51689D01*
X90202Y-51696D01*
X90202Y-50703D01*
X90240Y-50664D01*
X90240Y-50683D01*
X90240Y-50840D01*
X90254Y-50873D01*
X90279Y-50898D01*
X90312Y-50912D01*
X90348Y-50912D01*
X90584Y-50912D01*
X90617Y-50899D01*
X90643Y-50873D01*
X90656Y-50840D01*
X90656Y-50804D01*
X90656Y-50647D01*
X90643Y-50614D01*
X90617Y-50589D01*
X90584Y-50575D01*
X90568Y-50575D01*
X90568Y-50470D01*
X90807Y-50232D01*
X91859Y-50232D01*
X91794Y-50296D01*
X91688Y-50296D01*
X91655Y-50310D01*
X91630Y-50335D01*
X91616Y-50368D01*
X91616Y-50404D01*
X91616Y-50561D01*
X91630Y-50594D01*
X91655Y-50620D01*
X91688Y-50633D01*
X91724Y-50633D01*
X91960Y-50633D01*
X91993Y-50620D01*
X92018Y-50594D01*
X92032Y-50561D01*
X92032Y-50526D01*
X92032Y-50455D01*
X92064Y-50422D01*
X92064Y-52071D01*
G54D10*
G36*
X99841Y-63695D02*
X99728Y-63695D01*
X99728Y-62524D01*
X99593Y-62197D01*
X99433Y-62036D01*
X99433Y-59985D01*
X99433Y-58985D01*
X99433Y-57985D01*
X99433Y-56985D01*
X99374Y-56842D01*
X99264Y-56732D01*
X99121Y-56673D01*
X98966Y-56673D01*
X98822Y-56732D01*
X98712Y-56841D01*
X98653Y-56985D01*
X98653Y-57140D01*
X98712Y-57283D01*
X98822Y-57393D01*
X98965Y-57452D01*
X99120Y-57452D01*
X99263Y-57393D01*
X99373Y-57284D01*
X99433Y-57140D01*
X99433Y-56985D01*
X99433Y-57985D01*
X99374Y-57842D01*
X99264Y-57732D01*
X99121Y-57673D01*
X98966Y-57673D01*
X98822Y-57732D01*
X98712Y-57841D01*
X98653Y-57985D01*
X98653Y-58140D01*
X98712Y-58283D01*
X98822Y-58393D01*
X98965Y-58452D01*
X99120Y-58452D01*
X99263Y-58393D01*
X99373Y-58284D01*
X99433Y-58140D01*
X99433Y-57985D01*
X99433Y-58985D01*
X99374Y-58842D01*
X99264Y-58732D01*
X99121Y-58673D01*
X98966Y-58673D01*
X98822Y-58732D01*
X98712Y-58841D01*
X98653Y-58985D01*
X98653Y-59140D01*
X98712Y-59283D01*
X98822Y-59393D01*
X98965Y-59452D01*
X99120Y-59452D01*
X99263Y-59393D01*
X99373Y-59284D01*
X99433Y-59140D01*
X99433Y-58985D01*
X99433Y-59985D01*
X99374Y-59842D01*
X99264Y-59732D01*
X99121Y-59673D01*
X98966Y-59673D01*
X98822Y-59732D01*
X98712Y-59841D01*
X98653Y-59985D01*
X98653Y-60140D01*
X98712Y-60283D01*
X98822Y-60393D01*
X98965Y-60452D01*
X99120Y-60452D01*
X99263Y-60393D01*
X99373Y-60284D01*
X99433Y-60140D01*
X99433Y-59985D01*
X99433Y-62036D01*
X99433Y-62036D01*
X99433Y-61345D01*
X99433Y-60745D01*
X99419Y-60712D01*
X99394Y-60686D01*
X99361Y-60673D01*
X99325Y-60673D01*
X98725Y-60673D01*
X98692Y-60686D01*
X98667Y-60711D01*
X98653Y-60745D01*
X98653Y-60780D01*
X98653Y-61380D01*
X98667Y-61413D01*
X98692Y-61439D01*
X98725Y-61452D01*
X98761Y-61452D01*
X99361Y-61452D01*
X99394Y-61439D01*
X99419Y-61413D01*
X99433Y-61380D01*
X99433Y-61345D01*
X99433Y-62036D01*
X99343Y-61946D01*
X99016Y-61811D01*
X98662Y-61810D01*
X98550Y-61856D01*
X98550Y-54473D01*
X98518Y-54395D01*
X98458Y-54336D01*
X98380Y-54303D01*
X98296Y-54303D01*
X98218Y-54335D01*
X98158Y-54395D01*
X98126Y-54473D01*
X98126Y-54529D01*
X98042Y-54613D01*
X98042Y-54410D01*
X98010Y-54332D01*
X97950Y-54273D01*
X97873Y-54240D01*
X97788Y-54240D01*
X97710Y-54272D01*
X97651Y-54332D01*
X97618Y-54410D01*
X97618Y-54494D01*
X97618Y-54495D01*
X97521Y-54592D01*
X97495Y-54631D01*
X97486Y-54677D01*
X97486Y-55312D01*
X96235Y-56563D01*
X96235Y-55257D01*
X96203Y-55179D01*
X96143Y-55119D01*
X96065Y-55087D01*
X96009Y-55087D01*
X96004Y-55081D01*
X95958Y-55051D01*
X95905Y-55040D01*
X95240Y-55040D01*
X95214Y-55035D01*
X94980Y-55035D01*
X94924Y-55046D01*
X94877Y-55078D01*
X94846Y-55125D01*
X94835Y-55180D01*
X94846Y-55236D01*
X94875Y-55279D01*
X94846Y-55322D01*
X94835Y-55377D01*
X94846Y-55433D01*
X94877Y-55480D01*
X94924Y-55511D01*
X94980Y-55522D01*
X95214Y-55522D01*
X95270Y-55511D01*
X95291Y-55497D01*
X95369Y-55497D01*
X95387Y-55541D01*
X95446Y-55600D01*
X95524Y-55633D01*
X95608Y-55633D01*
X95686Y-55601D01*
X95746Y-55541D01*
X95778Y-55463D01*
X95778Y-55379D01*
X95754Y-55320D01*
X95811Y-55320D01*
X95811Y-55341D01*
X95843Y-55419D01*
X95903Y-55478D01*
X95981Y-55511D01*
X96065Y-55511D01*
X96143Y-55479D01*
X96203Y-55419D01*
X96235Y-55341D01*
X96235Y-55257D01*
X96235Y-56563D01*
X96231Y-56567D01*
X96231Y-56068D01*
X96231Y-55832D01*
X96218Y-55799D01*
X96192Y-55774D01*
X96159Y-55760D01*
X96124Y-55760D01*
X95967Y-55760D01*
X95934Y-55774D01*
X95908Y-55799D01*
X95895Y-55832D01*
X95895Y-55848D01*
X95394Y-55848D01*
X95380Y-55838D01*
X95326Y-55828D01*
X95240Y-55828D01*
X95214Y-55823D01*
X94980Y-55823D01*
X94924Y-55834D01*
X94877Y-55865D01*
X94846Y-55912D01*
X94835Y-55968D01*
X94841Y-55997D01*
X94812Y-55991D01*
X94756Y-56002D01*
X94713Y-56031D01*
X94670Y-56002D01*
X94615Y-55991D01*
X94559Y-56002D01*
X94512Y-56033D01*
X94481Y-56080D01*
X94470Y-56136D01*
X94470Y-56370D01*
X94481Y-56426D01*
X94495Y-56447D01*
X94495Y-56619D01*
X94504Y-56665D01*
X94530Y-56704D01*
X94679Y-56853D01*
X94679Y-56960D01*
X94663Y-56960D01*
X94630Y-56974D01*
X94605Y-56999D01*
X94591Y-57032D01*
X94591Y-57068D01*
X94591Y-57225D01*
X94605Y-57258D01*
X94630Y-57284D01*
X94663Y-57297D01*
X94699Y-57297D01*
X94935Y-57297D01*
X94968Y-57284D01*
X94993Y-57258D01*
X95007Y-57225D01*
X95007Y-57190D01*
X95007Y-57033D01*
X94993Y-57000D01*
X94968Y-56974D01*
X94935Y-56961D01*
X94919Y-56961D01*
X94919Y-56803D01*
X94910Y-56757D01*
X94910Y-56757D01*
X94884Y-56718D01*
X94884Y-56718D01*
X94735Y-56569D01*
X94735Y-56490D01*
X94756Y-56504D01*
X94812Y-56515D01*
X94867Y-56504D01*
X94914Y-56473D01*
X94946Y-56426D01*
X94957Y-56370D01*
X94957Y-56136D01*
X94951Y-56107D01*
X94980Y-56113D01*
X95214Y-56113D01*
X95240Y-56108D01*
X95268Y-56108D01*
X95370Y-56210D01*
X95370Y-56266D01*
X95402Y-56344D01*
X95462Y-56404D01*
X95540Y-56436D01*
X95624Y-56436D01*
X95702Y-56404D01*
X95762Y-56344D01*
X95794Y-56266D01*
X95794Y-56182D01*
X95762Y-56104D01*
X95746Y-56088D01*
X95894Y-56088D01*
X95894Y-56104D01*
X95908Y-56137D01*
X95933Y-56162D01*
X95966Y-56176D01*
X96002Y-56176D01*
X96159Y-56176D01*
X96192Y-56162D01*
X96218Y-56137D01*
X96231Y-56104D01*
X96231Y-56068D01*
X96231Y-56567D01*
X94426Y-58372D01*
X94426Y-57176D01*
X94426Y-57019D01*
X94412Y-56986D01*
X94387Y-56960D01*
X94354Y-56947D01*
X94338Y-56947D01*
X94338Y-56452D01*
X94355Y-56426D01*
X94366Y-56370D01*
X94366Y-56136D01*
X94355Y-56080D01*
X94324Y-56033D01*
X94277Y-56002D01*
X94221Y-55991D01*
X94166Y-56002D01*
X94123Y-56031D01*
X94080Y-56002D01*
X94024Y-55991D01*
X93969Y-56002D01*
X93926Y-56031D01*
X93883Y-56002D01*
X93828Y-55991D01*
X93772Y-56002D01*
X93729Y-56031D01*
X93686Y-56002D01*
X93631Y-55991D01*
X93575Y-56002D01*
X93528Y-56033D01*
X93497Y-56080D01*
X93486Y-56136D01*
X93486Y-56370D01*
X93497Y-56426D01*
X93511Y-56447D01*
X93511Y-56900D01*
X93492Y-56918D01*
X93357Y-56918D01*
X93324Y-56932D01*
X93299Y-56957D01*
X93285Y-56990D01*
X93285Y-57026D01*
X93285Y-57183D01*
X93299Y-57216D01*
X93324Y-57242D01*
X93357Y-57255D01*
X93393Y-57255D01*
X93629Y-57255D01*
X93662Y-57242D01*
X93687Y-57216D01*
X93701Y-57183D01*
X93701Y-57148D01*
X93701Y-57049D01*
X93715Y-57034D01*
X93741Y-56995D01*
X93741Y-56995D01*
X93751Y-56949D01*
X93751Y-56490D01*
X93772Y-56504D01*
X93828Y-56515D01*
X93883Y-56504D01*
X93926Y-56476D01*
X93969Y-56504D01*
X94024Y-56515D01*
X94080Y-56504D01*
X94098Y-56492D01*
X94098Y-56946D01*
X94082Y-56946D01*
X94049Y-56960D01*
X94024Y-56985D01*
X94010Y-57018D01*
X94010Y-57054D01*
X94010Y-57211D01*
X94024Y-57244D01*
X94049Y-57270D01*
X94082Y-57283D01*
X94118Y-57283D01*
X94354Y-57283D01*
X94387Y-57270D01*
X94412Y-57244D01*
X94426Y-57211D01*
X94426Y-57176D01*
X94426Y-58372D01*
X93994Y-58804D01*
X93968Y-58843D01*
X93959Y-58888D01*
X93959Y-58889D01*
X93936Y-58889D01*
X93903Y-58903D01*
X93878Y-58928D01*
X93864Y-58961D01*
X93864Y-58997D01*
X93864Y-59447D01*
X93878Y-59480D01*
X93903Y-59505D01*
X93936Y-59519D01*
X93972Y-59519D01*
X94222Y-59519D01*
X94255Y-59506D01*
X94280Y-59480D01*
X94294Y-59447D01*
X94294Y-59411D01*
X94294Y-58961D01*
X94280Y-58928D01*
X94255Y-58903D01*
X94240Y-58897D01*
X95143Y-57994D01*
X95143Y-58759D01*
X95065Y-58759D01*
X95032Y-58772D01*
X95007Y-58798D01*
X94993Y-58831D01*
X94993Y-58866D01*
X94993Y-59226D01*
X95007Y-59260D01*
X95032Y-59285D01*
X95065Y-59299D01*
X95101Y-59299D01*
X95461Y-59299D01*
X95494Y-59285D01*
X95519Y-59260D01*
X95533Y-59227D01*
X95533Y-59191D01*
X95533Y-58928D01*
X95753Y-58709D01*
X95753Y-58709D01*
X95753Y-58709D01*
X95779Y-58670D01*
X95779Y-58670D01*
X95788Y-58624D01*
X95788Y-58456D01*
X95811Y-58456D01*
X95844Y-58443D01*
X95869Y-58417D01*
X95883Y-58384D01*
X95883Y-58348D01*
X95883Y-57898D01*
X95869Y-57865D01*
X95844Y-57840D01*
X95811Y-57826D01*
X95775Y-57826D01*
X95551Y-57826D01*
X95585Y-57793D01*
X96736Y-57793D01*
X96782Y-57784D01*
X96782Y-57784D01*
X96821Y-57758D01*
X97382Y-57196D01*
X97467Y-57196D01*
X97545Y-57164D01*
X97604Y-57104D01*
X97637Y-57026D01*
X97637Y-56942D01*
X97605Y-56864D01*
X97545Y-56804D01*
X97467Y-56772D01*
X97383Y-56772D01*
X97305Y-56804D01*
X97245Y-56864D01*
X97213Y-56941D01*
X97213Y-57026D01*
X97213Y-57026D01*
X96686Y-57553D01*
X95584Y-57553D01*
X97691Y-55447D01*
X97717Y-55408D01*
X97717Y-55408D01*
X97726Y-55362D01*
X97726Y-54726D01*
X97788Y-54664D01*
X97872Y-54664D01*
X97950Y-54632D01*
X98010Y-54572D01*
X98042Y-54495D01*
X98042Y-54410D01*
X98042Y-54613D01*
X97948Y-54708D01*
X97917Y-54753D01*
X97907Y-54807D01*
X97907Y-59611D01*
X97669Y-59849D01*
X97639Y-59894D01*
X97628Y-59948D01*
X97628Y-61507D01*
X97625Y-61507D01*
X97592Y-61521D01*
X97567Y-61546D01*
X97553Y-61579D01*
X97553Y-61615D01*
X97553Y-62065D01*
X97567Y-62098D01*
X97592Y-62124D01*
X97625Y-62137D01*
X97661Y-62137D01*
X97911Y-62137D01*
X97944Y-62124D01*
X97969Y-62098D01*
X97983Y-62065D01*
X97983Y-62030D01*
X97983Y-61580D01*
X97969Y-61546D01*
X97944Y-61521D01*
X97911Y-61507D01*
X97908Y-61507D01*
X97908Y-60005D01*
X98146Y-59768D01*
X98176Y-59722D01*
X98187Y-59669D01*
X98187Y-54865D01*
X98324Y-54727D01*
X98380Y-54727D01*
X98458Y-54695D01*
X98518Y-54635D01*
X98550Y-54558D01*
X98550Y-54473D01*
X98550Y-61856D01*
X98335Y-61945D01*
X98084Y-62196D01*
X97948Y-62522D01*
X97948Y-62877D01*
X98083Y-63204D01*
X98333Y-63454D01*
X98660Y-63590D01*
X99014Y-63590D01*
X99342Y-63455D01*
X99592Y-63205D01*
X99728Y-62878D01*
X99728Y-62524D01*
X99728Y-63695D01*
X97428Y-63695D01*
X97428Y-61158D01*
X97396Y-61080D01*
X97336Y-61021D01*
X97258Y-60988D01*
X97202Y-60988D01*
X96784Y-60571D01*
X96784Y-60421D01*
X96787Y-60421D01*
X96820Y-60407D01*
X96846Y-60382D01*
X96859Y-60349D01*
X96859Y-60313D01*
X96859Y-59863D01*
X96846Y-59830D01*
X96820Y-59805D01*
X96787Y-59791D01*
X96784Y-59791D01*
X96784Y-59758D01*
X96824Y-59718D01*
X96856Y-59640D01*
X96856Y-59556D01*
X96824Y-59478D01*
X96790Y-59443D01*
X96822Y-59430D01*
X96847Y-59405D01*
X96861Y-59372D01*
X96861Y-59336D01*
X96861Y-59100D01*
X96847Y-59067D01*
X96833Y-59052D01*
X96833Y-58627D01*
X96856Y-58569D01*
X96856Y-58485D01*
X96824Y-58407D01*
X96765Y-58347D01*
X96687Y-58315D01*
X96640Y-58315D01*
X96483Y-58158D01*
X96483Y-57898D01*
X96469Y-57865D01*
X96444Y-57840D01*
X96411Y-57826D01*
X96375Y-57826D01*
X96125Y-57826D01*
X96092Y-57840D01*
X96067Y-57865D01*
X96053Y-57898D01*
X96053Y-57934D01*
X96053Y-58384D01*
X96067Y-58417D01*
X96092Y-58442D01*
X96125Y-58456D01*
X96161Y-58456D01*
X96385Y-58456D01*
X96432Y-58504D01*
X96432Y-58569D01*
X96465Y-58647D01*
X96504Y-58687D01*
X96504Y-58850D01*
X96504Y-59438D01*
X96465Y-59478D01*
X96432Y-59556D01*
X96432Y-59640D01*
X96465Y-59718D01*
X96504Y-59758D01*
X96504Y-59791D01*
X96502Y-59791D01*
X96469Y-59805D01*
X96443Y-59830D01*
X96429Y-59863D01*
X96429Y-59899D01*
X96429Y-60349D01*
X96443Y-60382D01*
X96468Y-60407D01*
X96501Y-60421D01*
X96504Y-60421D01*
X96504Y-60629D01*
X96515Y-60682D01*
X96545Y-60728D01*
X97004Y-61186D01*
X97004Y-61242D01*
X97036Y-61320D01*
X97096Y-61380D01*
X97174Y-61412D01*
X97258Y-61412D01*
X97336Y-61380D01*
X97396Y-61321D01*
X97428Y-61243D01*
X97428Y-61158D01*
X97428Y-63695D01*
X97383Y-63695D01*
X97383Y-62030D01*
X97383Y-61580D01*
X97369Y-61546D01*
X97344Y-61521D01*
X97311Y-61507D01*
X97275Y-61507D01*
X97025Y-61507D01*
X96992Y-61521D01*
X96967Y-61546D01*
X96953Y-61579D01*
X96953Y-61615D01*
X96953Y-61682D01*
X96811Y-61682D01*
X96811Y-61682D01*
X96757Y-61693D01*
X96712Y-61723D01*
X96712Y-61723D01*
X96444Y-61991D01*
X96441Y-61991D01*
X96081Y-61991D01*
X96048Y-62005D01*
X96022Y-62030D01*
X96009Y-62063D01*
X96009Y-62099D01*
X96009Y-62459D01*
X96022Y-62492D01*
X96048Y-62517D01*
X96081Y-62531D01*
X96116Y-62531D01*
X96476Y-62531D01*
X96510Y-62517D01*
X96535Y-62492D01*
X96549Y-62459D01*
X96549Y-62423D01*
X96549Y-62282D01*
X96868Y-61962D01*
X96953Y-61962D01*
X96953Y-62065D01*
X96967Y-62098D01*
X96992Y-62124D01*
X97025Y-62137D01*
X97061Y-62137D01*
X97311Y-62137D01*
X97344Y-62124D01*
X97369Y-62098D01*
X97383Y-62065D01*
X97383Y-62030D01*
X97383Y-63695D01*
X96199Y-63695D01*
X96199Y-63223D01*
X96199Y-62863D01*
X96185Y-62830D01*
X96160Y-62805D01*
X96127Y-62791D01*
X96091Y-62791D01*
X95731Y-62791D01*
X95698Y-62805D01*
X95672Y-62830D01*
X95659Y-62863D01*
X95659Y-62899D01*
X95659Y-62921D01*
X95292Y-62921D01*
X95265Y-62895D01*
X95188Y-62862D01*
X95183Y-62862D01*
X95183Y-59991D01*
X95183Y-59631D01*
X95170Y-59598D01*
X95144Y-59572D01*
X95111Y-59559D01*
X95075Y-59559D01*
X94715Y-59559D01*
X94682Y-59572D01*
X94657Y-59598D01*
X94643Y-59631D01*
X94643Y-59666D01*
X94643Y-60026D01*
X94655Y-60055D01*
X94316Y-60394D01*
X94028Y-60394D01*
X93995Y-60408D01*
X93970Y-60433D01*
X93956Y-60466D01*
X93956Y-60502D01*
X93956Y-60752D01*
X93970Y-60785D01*
X93995Y-60810D01*
X94028Y-60824D01*
X94064Y-60824D01*
X94514Y-60824D01*
X94547Y-60810D01*
X94572Y-60785D01*
X94586Y-60752D01*
X94586Y-60716D01*
X94586Y-60466D01*
X94585Y-60464D01*
X94951Y-60099D01*
X95111Y-60099D01*
X95144Y-60085D01*
X95169Y-60060D01*
X95183Y-60027D01*
X95183Y-59991D01*
X95183Y-62862D01*
X95103Y-62862D01*
X95025Y-62895D01*
X94966Y-62954D01*
X94933Y-63032D01*
X94933Y-63116D01*
X94965Y-63194D01*
X95025Y-63254D01*
X95103Y-63286D01*
X95187Y-63286D01*
X95265Y-63254D01*
X95318Y-63201D01*
X95659Y-63201D01*
X95659Y-63259D01*
X95672Y-63292D01*
X95698Y-63317D01*
X95731Y-63331D01*
X95766Y-63331D01*
X96126Y-63331D01*
X96160Y-63317D01*
X96185Y-63292D01*
X96199Y-63259D01*
X96199Y-63223D01*
X96199Y-63695D01*
X94586Y-63695D01*
X94586Y-61316D01*
X94586Y-61066D01*
X94572Y-61033D01*
X94547Y-61008D01*
X94514Y-60994D01*
X94478Y-60994D01*
X94028Y-60994D01*
X93995Y-61008D01*
X93970Y-61033D01*
X93956Y-61066D01*
X93956Y-61089D01*
X93701Y-61089D01*
X93701Y-57502D01*
X93701Y-57345D01*
X93687Y-57312D01*
X93662Y-57286D01*
X93629Y-57273D01*
X93593Y-57272D01*
X93357Y-57272D01*
X93324Y-57286D01*
X93299Y-57311D01*
X93295Y-57321D01*
X93204Y-57321D01*
X93235Y-57247D01*
X93235Y-57162D01*
X93203Y-57084D01*
X93163Y-57044D01*
X93163Y-57010D01*
X93336Y-56837D01*
X93336Y-56837D01*
X93336Y-56837D01*
X93366Y-56792D01*
X93377Y-56738D01*
X93377Y-56396D01*
X93382Y-56370D01*
X93382Y-56136D01*
X93371Y-56080D01*
X93340Y-56033D01*
X93292Y-56002D01*
X93237Y-55991D01*
X93181Y-56002D01*
X93139Y-56031D01*
X93096Y-56002D01*
X93040Y-55991D01*
X92985Y-56002D01*
X92938Y-56033D01*
X92906Y-56080D01*
X92895Y-56136D01*
X92895Y-56370D01*
X92900Y-56396D01*
X92900Y-56519D01*
X92887Y-56532D01*
X92893Y-56501D01*
X92895Y-56492D01*
X92895Y-56492D01*
X92895Y-56492D01*
X92895Y-56299D01*
X92886Y-56253D01*
X92886Y-56253D01*
X92860Y-56214D01*
X92856Y-56210D01*
X92817Y-56184D01*
X92771Y-56175D01*
X92725Y-56184D01*
X92686Y-56210D01*
X92660Y-56249D01*
X92651Y-56295D01*
X92655Y-56315D01*
X92655Y-56442D01*
X91915Y-57182D01*
X91889Y-57221D01*
X91880Y-57267D01*
X91880Y-57330D01*
X91889Y-57376D01*
X91915Y-57415D01*
X92131Y-57632D01*
X92131Y-57632D01*
X92170Y-57658D01*
X92170Y-57658D01*
X92216Y-57667D01*
X92547Y-57667D01*
X92593Y-57658D01*
X92593Y-57658D01*
X92632Y-57632D01*
X92702Y-57561D01*
X93295Y-57561D01*
X93299Y-57570D01*
X93324Y-57596D01*
X93357Y-57609D01*
X93373Y-57609D01*
X93373Y-57854D01*
X93363Y-57859D01*
X93337Y-57884D01*
X93324Y-57917D01*
X93323Y-57953D01*
X93323Y-58189D01*
X93337Y-58222D01*
X93362Y-58247D01*
X93395Y-58261D01*
X93431Y-58261D01*
X93588Y-58261D01*
X93621Y-58247D01*
X93647Y-58222D01*
X93660Y-58189D01*
X93660Y-58153D01*
X93660Y-57917D01*
X93647Y-57884D01*
X93621Y-57859D01*
X93613Y-57855D01*
X93613Y-57609D01*
X93629Y-57609D01*
X93662Y-57596D01*
X93687Y-57570D01*
X93701Y-57537D01*
X93701Y-57502D01*
X93701Y-61089D01*
X93694Y-61089D01*
X93694Y-59411D01*
X93694Y-58961D01*
X93680Y-58928D01*
X93655Y-58903D01*
X93622Y-58889D01*
X93586Y-58889D01*
X93336Y-58889D01*
X93303Y-58903D01*
X93278Y-58928D01*
X93264Y-58961D01*
X93264Y-58997D01*
X93264Y-59250D01*
X92826Y-59688D01*
X92823Y-59688D01*
X92463Y-59688D01*
X92430Y-59701D01*
X92404Y-59727D01*
X92391Y-59760D01*
X92391Y-59796D01*
X92391Y-60156D01*
X92404Y-60189D01*
X92430Y-60214D01*
X92463Y-60228D01*
X92498Y-60228D01*
X92858Y-60228D01*
X92891Y-60214D01*
X92917Y-60189D01*
X92930Y-60156D01*
X92930Y-60120D01*
X92930Y-59922D01*
X93334Y-59518D01*
X93336Y-59519D01*
X93372Y-59519D01*
X93622Y-59519D01*
X93655Y-59506D01*
X93680Y-59480D01*
X93694Y-59447D01*
X93694Y-59411D01*
X93694Y-61089D01*
X93659Y-61089D01*
X93613Y-61098D01*
X93575Y-61124D01*
X93575Y-61124D01*
X93226Y-61473D01*
X92938Y-61473D01*
X92905Y-61486D01*
X92879Y-61512D01*
X92866Y-61545D01*
X92866Y-61568D01*
X92476Y-61568D01*
X92476Y-61553D01*
X92462Y-61520D01*
X92437Y-61494D01*
X92430Y-61492D01*
X92430Y-61028D01*
X92508Y-61028D01*
X92541Y-61014D01*
X92567Y-60989D01*
X92580Y-60956D01*
X92580Y-60920D01*
X92580Y-60560D01*
X92567Y-60527D01*
X92542Y-60502D01*
X92508Y-60488D01*
X92473Y-60488D01*
X92113Y-60488D01*
X92080Y-60501D01*
X92054Y-60527D01*
X92041Y-60560D01*
X92041Y-60596D01*
X92041Y-60956D01*
X92054Y-60989D01*
X92080Y-61014D01*
X92113Y-61028D01*
X92148Y-61028D01*
X92191Y-61028D01*
X92191Y-61481D01*
X91918Y-61481D01*
X91885Y-61494D01*
X91860Y-61520D01*
X91846Y-61553D01*
X91846Y-61556D01*
X91646Y-61556D01*
X91592Y-61566D01*
X91547Y-61597D01*
X91547Y-61597D01*
X90462Y-62681D01*
X90406Y-62681D01*
X90328Y-62713D01*
X90269Y-62773D01*
X90236Y-62851D01*
X90236Y-62935D01*
X90269Y-63013D01*
X90328Y-63073D01*
X90406Y-63105D01*
X90490Y-63105D01*
X90568Y-63073D01*
X90628Y-63013D01*
X90660Y-62936D01*
X90660Y-62879D01*
X91704Y-61835D01*
X91846Y-61835D01*
X91846Y-61838D01*
X91860Y-61871D01*
X91885Y-61897D01*
X91918Y-61910D01*
X91954Y-61910D01*
X92404Y-61910D01*
X92437Y-61897D01*
X92462Y-61872D01*
X92476Y-61839D01*
X92476Y-61808D01*
X92866Y-61808D01*
X92866Y-61830D01*
X92879Y-61864D01*
X92905Y-61889D01*
X92938Y-61903D01*
X92973Y-61903D01*
X93423Y-61903D01*
X93456Y-61889D01*
X93482Y-61864D01*
X93496Y-61831D01*
X93496Y-61795D01*
X93496Y-61545D01*
X93495Y-61543D01*
X93709Y-61329D01*
X93956Y-61329D01*
X93956Y-61352D01*
X93970Y-61385D01*
X93995Y-61410D01*
X94028Y-61424D01*
X94064Y-61424D01*
X94514Y-61424D01*
X94547Y-61410D01*
X94572Y-61385D01*
X94586Y-61352D01*
X94586Y-61316D01*
X94586Y-63695D01*
X82519Y-63695D01*
X82519Y-62193D01*
X82384Y-61866D01*
X82134Y-61616D01*
X81807Y-61480D01*
X81453Y-61480D01*
X81126Y-61615D01*
X80875Y-61865D01*
X80740Y-62192D01*
X80739Y-62546D01*
X80875Y-62873D01*
X81125Y-63124D01*
X81452Y-63259D01*
X81806Y-63260D01*
X82133Y-63124D01*
X82383Y-62874D01*
X82519Y-62547D01*
X82519Y-62193D01*
X82519Y-63695D01*
X80398Y-63695D01*
X80398Y-44253D01*
X97340Y-44253D01*
X97340Y-46754D01*
X98635Y-46754D01*
X98635Y-47078D01*
X97299Y-48414D01*
X97242Y-48500D01*
X97221Y-48602D01*
X97227Y-48630D01*
X97213Y-48636D01*
X97187Y-48661D01*
X97174Y-48694D01*
X97174Y-48730D01*
X97174Y-48773D01*
X97173Y-48777D01*
X97173Y-48821D01*
X97174Y-48824D01*
X97174Y-48947D01*
X97178Y-48957D01*
X97147Y-48957D01*
X97054Y-48957D01*
X97058Y-48947D01*
X97058Y-48911D01*
X97058Y-48695D01*
X97045Y-48661D01*
X97019Y-48636D01*
X96986Y-48622D01*
X96950Y-48622D01*
X96852Y-48622D01*
X96819Y-48636D01*
X96794Y-48661D01*
X96780Y-48694D01*
X96780Y-48701D01*
X96276Y-48701D01*
X96276Y-45612D01*
X96276Y-45455D01*
X96262Y-45422D01*
X96237Y-45396D01*
X96204Y-45383D01*
X96168Y-45382D01*
X95932Y-45382D01*
X95899Y-45396D01*
X95874Y-45421D01*
X95872Y-45426D01*
X95361Y-45426D01*
X94955Y-45108D01*
X94920Y-45099D01*
X94885Y-45103D01*
X94854Y-45121D01*
X94832Y-45149D01*
X94757Y-45245D01*
X94757Y-45003D01*
X94752Y-44967D01*
X94735Y-44936D01*
X94707Y-44914D01*
X94272Y-44575D01*
X94238Y-44565D01*
X94202Y-44570D01*
X94171Y-44587D01*
X94149Y-44615D01*
X93858Y-44988D01*
X93849Y-45022D01*
X93853Y-45058D01*
X93871Y-45089D01*
X93899Y-45111D01*
X94333Y-45450D01*
X94368Y-45460D01*
X94403Y-45456D01*
X94434Y-45438D01*
X94456Y-45410D01*
X94747Y-45037D01*
X94757Y-45003D01*
X94757Y-45245D01*
X94541Y-45521D01*
X94531Y-45555D01*
X94536Y-45591D01*
X94553Y-45622D01*
X94581Y-45644D01*
X95016Y-45983D01*
X95050Y-45993D01*
X95086Y-45989D01*
X95117Y-45971D01*
X95139Y-45943D01*
X95171Y-45901D01*
X95293Y-46023D01*
X95293Y-46906D01*
X95027Y-47171D01*
X95027Y-46064D01*
X95023Y-46028D01*
X95005Y-45997D01*
X94977Y-45975D01*
X94543Y-45636D01*
X94508Y-45626D01*
X94473Y-45630D01*
X94442Y-45648D01*
X94420Y-45676D01*
X94129Y-46048D01*
X94119Y-46083D01*
X94123Y-46118D01*
X94141Y-46150D01*
X94169Y-46172D01*
X94604Y-46511D01*
X94638Y-46520D01*
X94674Y-46516D01*
X94705Y-46499D01*
X94727Y-46470D01*
X95018Y-46098D01*
X95027Y-46064D01*
X95027Y-47171D01*
X94627Y-47572D01*
X94627Y-47032D01*
X94617Y-46986D01*
X94617Y-46986D01*
X94591Y-46947D01*
X94011Y-46366D01*
X94011Y-45972D01*
X94022Y-45965D01*
X94044Y-45937D01*
X94335Y-45565D01*
X94345Y-45530D01*
X94340Y-45495D01*
X94323Y-45464D01*
X94295Y-45442D01*
X93860Y-45102D01*
X93826Y-45093D01*
X93790Y-45097D01*
X93759Y-45115D01*
X93737Y-45143D01*
X93520Y-45420D01*
X92866Y-45420D01*
X92862Y-45412D01*
X92837Y-45386D01*
X92804Y-45373D01*
X92768Y-45372D01*
X92532Y-45372D01*
X92499Y-45386D01*
X92474Y-45411D01*
X92460Y-45444D01*
X92460Y-45480D01*
X92460Y-45637D01*
X92474Y-45670D01*
X92499Y-45696D01*
X92532Y-45709D01*
X92568Y-45709D01*
X92804Y-45709D01*
X92837Y-45696D01*
X92862Y-45670D01*
X92866Y-45660D01*
X93514Y-45660D01*
X93771Y-45860D01*
X93771Y-46416D01*
X93780Y-46462D01*
X93806Y-46500D01*
X94387Y-47081D01*
X94387Y-47713D01*
X94024Y-47351D01*
X94024Y-47216D01*
X94011Y-47183D01*
X93985Y-47158D01*
X93952Y-47144D01*
X93917Y-47144D01*
X93760Y-47144D01*
X93727Y-47158D01*
X93701Y-47183D01*
X93688Y-47216D01*
X93687Y-47252D01*
X93687Y-47488D01*
X93701Y-47521D01*
X93726Y-47546D01*
X93759Y-47560D01*
X93795Y-47560D01*
X93894Y-47560D01*
X94229Y-47895D01*
X94229Y-48034D01*
X94218Y-48034D01*
X94130Y-48034D01*
X94113Y-48041D01*
X94096Y-48034D01*
X94061Y-48034D01*
X93972Y-48034D01*
X93955Y-48041D01*
X93939Y-48034D01*
X93903Y-48034D01*
X93815Y-48034D01*
X93798Y-48041D01*
X93781Y-48034D01*
X93746Y-48034D01*
X93657Y-48034D01*
X93640Y-48041D01*
X93624Y-48034D01*
X93588Y-48034D01*
X93524Y-48034D01*
X93524Y-47847D01*
X93524Y-47847D01*
X93524Y-47847D01*
X93522Y-47836D01*
X93515Y-47801D01*
X93515Y-47801D01*
X93508Y-47791D01*
X93489Y-47762D01*
X93489Y-47762D01*
X91643Y-45916D01*
X91752Y-45808D01*
X91766Y-45775D01*
X91766Y-45739D01*
X91752Y-45706D01*
X91727Y-45680D01*
X91114Y-45068D01*
X91081Y-45054D01*
X91045Y-45054D01*
X91012Y-45068D01*
X90987Y-45093D01*
X90904Y-45177D01*
X90610Y-44883D01*
X90610Y-44721D01*
X90619Y-44717D01*
X90645Y-44692D01*
X90658Y-44659D01*
X90658Y-44623D01*
X90658Y-44387D01*
X90645Y-44354D01*
X90619Y-44329D01*
X90586Y-44315D01*
X90551Y-44315D01*
X90394Y-44315D01*
X90361Y-44329D01*
X90335Y-44354D01*
X90322Y-44387D01*
X90321Y-44423D01*
X90321Y-44659D01*
X90335Y-44692D01*
X90360Y-44717D01*
X90370Y-44721D01*
X90370Y-44933D01*
X90379Y-44979D01*
X90405Y-45017D01*
X90734Y-45346D01*
X90625Y-45455D01*
X90611Y-45488D01*
X90611Y-45524D01*
X90625Y-45557D01*
X90650Y-45582D01*
X91263Y-46195D01*
X91296Y-46208D01*
X91332Y-46208D01*
X91365Y-46195D01*
X91390Y-46169D01*
X91474Y-46086D01*
X92668Y-47280D01*
X92658Y-47278D01*
X90666Y-47278D01*
X90474Y-47086D01*
X90583Y-46977D01*
X90596Y-46944D01*
X90596Y-46908D01*
X90583Y-46875D01*
X90557Y-46850D01*
X89945Y-46237D01*
X89912Y-46223D01*
X89876Y-46223D01*
X89843Y-46237D01*
X89818Y-46262D01*
X89734Y-46346D01*
X89333Y-45945D01*
X89357Y-45935D01*
X89382Y-45909D01*
X89396Y-45876D01*
X89396Y-45841D01*
X89396Y-45684D01*
X89382Y-45651D01*
X89357Y-45625D01*
X89324Y-45612D01*
X89288Y-45611D01*
X89052Y-45611D01*
X89019Y-45625D01*
X88994Y-45650D01*
X88980Y-45683D01*
X88980Y-45719D01*
X88980Y-45876D01*
X88994Y-45909D01*
X89019Y-45935D01*
X89052Y-45948D01*
X89068Y-45948D01*
X89068Y-45969D01*
X89077Y-46015D01*
X89103Y-46054D01*
X89565Y-46516D01*
X89456Y-46624D01*
X89442Y-46657D01*
X89442Y-46693D01*
X89456Y-46726D01*
X89481Y-46751D01*
X90094Y-47364D01*
X90127Y-47378D01*
X90162Y-47378D01*
X90195Y-47364D01*
X90221Y-47339D01*
X90304Y-47255D01*
X90532Y-47483D01*
X90532Y-47483D01*
X90571Y-47509D01*
X90571Y-47509D01*
X90617Y-47518D01*
X92608Y-47518D01*
X93124Y-48034D01*
X93116Y-48034D01*
X93027Y-48034D01*
X93011Y-48041D01*
X92994Y-48034D01*
X92958Y-48034D01*
X92870Y-48034D01*
X92837Y-48047D01*
X92811Y-48072D01*
X92798Y-48105D01*
X92798Y-48141D01*
X92798Y-48141D01*
X92583Y-48141D01*
X92566Y-48125D01*
X92566Y-48040D01*
X92534Y-47962D01*
X92474Y-47903D01*
X92396Y-47870D01*
X92312Y-47870D01*
X92234Y-47902D01*
X92174Y-47962D01*
X92142Y-48040D01*
X92142Y-48124D01*
X92174Y-48202D01*
X92234Y-48262D01*
X92311Y-48294D01*
X92396Y-48294D01*
X92396Y-48294D01*
X92448Y-48346D01*
X92448Y-48346D01*
X92487Y-48372D01*
X92487Y-48372D01*
X92524Y-48379D01*
X92533Y-48381D01*
X92533Y-48381D01*
X92533Y-48381D01*
X92798Y-48381D01*
X92798Y-48403D01*
X92776Y-48403D01*
X92686Y-48403D01*
X92656Y-48397D01*
X92138Y-48397D01*
X92056Y-48315D01*
X92056Y-48209D01*
X92042Y-48176D01*
X92017Y-48150D01*
X91984Y-48137D01*
X91948Y-48136D01*
X91712Y-48136D01*
X91679Y-48150D01*
X91664Y-48165D01*
X91475Y-48165D01*
X91447Y-48154D01*
X91363Y-48154D01*
X91285Y-48186D01*
X91225Y-48245D01*
X91193Y-48323D01*
X91193Y-48408D01*
X91225Y-48486D01*
X91285Y-48545D01*
X91307Y-48554D01*
X91227Y-48554D01*
X91083Y-48410D01*
X91083Y-48150D01*
X91069Y-48117D01*
X91044Y-48092D01*
X91011Y-48078D01*
X90975Y-48078D01*
X90725Y-48078D01*
X90692Y-48092D01*
X90667Y-48117D01*
X90653Y-48150D01*
X90653Y-48186D01*
X90653Y-48636D01*
X90667Y-48669D01*
X90692Y-48694D01*
X90725Y-48708D01*
X90761Y-48708D01*
X90985Y-48708D01*
X91009Y-48732D01*
X90483Y-48732D01*
X90483Y-48600D01*
X90483Y-48150D01*
X90469Y-48117D01*
X90444Y-48092D01*
X90411Y-48078D01*
X90375Y-48078D01*
X90125Y-48078D01*
X90092Y-48092D01*
X90067Y-48117D01*
X90053Y-48150D01*
X90053Y-48186D01*
X90053Y-48253D01*
X89598Y-48253D01*
X89598Y-48150D01*
X89584Y-48117D01*
X89559Y-48092D01*
X89526Y-48078D01*
X89490Y-48078D01*
X89277Y-48078D01*
X89277Y-47756D01*
X89245Y-47678D01*
X89185Y-47618D01*
X89107Y-47586D01*
X89023Y-47586D01*
X88945Y-47618D01*
X88885Y-47678D01*
X88860Y-47739D01*
X88860Y-47711D01*
X88828Y-47633D01*
X88768Y-47573D01*
X88690Y-47541D01*
X88678Y-47541D01*
X88678Y-47508D01*
X88694Y-47508D01*
X88727Y-47495D01*
X88752Y-47469D01*
X88766Y-47436D01*
X88766Y-47401D01*
X88766Y-47244D01*
X88752Y-47211D01*
X88727Y-47185D01*
X88694Y-47172D01*
X88658Y-47171D01*
X88422Y-47171D01*
X88389Y-47185D01*
X88364Y-47210D01*
X88350Y-47243D01*
X88350Y-47279D01*
X88350Y-47436D01*
X88364Y-47469D01*
X88389Y-47495D01*
X88422Y-47508D01*
X88438Y-47508D01*
X88438Y-47663D01*
X88444Y-47692D01*
X88436Y-47710D01*
X88436Y-47795D01*
X88468Y-47873D01*
X88528Y-47932D01*
X88605Y-47965D01*
X88663Y-47965D01*
X88663Y-48012D01*
X88654Y-48026D01*
X88643Y-48078D01*
X88640Y-48078D01*
X88607Y-48092D01*
X88582Y-48117D01*
X88568Y-48150D01*
X88568Y-48186D01*
X88568Y-48636D01*
X88582Y-48669D01*
X88607Y-48694D01*
X88640Y-48708D01*
X88676Y-48708D01*
X88926Y-48708D01*
X88959Y-48694D01*
X88984Y-48669D01*
X88998Y-48636D01*
X88998Y-48600D01*
X88998Y-48150D01*
X88984Y-48117D01*
X88964Y-48097D01*
X89051Y-48010D01*
X89107Y-48010D01*
X89185Y-47978D01*
X89245Y-47918D01*
X89277Y-47840D01*
X89277Y-47756D01*
X89277Y-48078D01*
X89240Y-48078D01*
X89207Y-48092D01*
X89182Y-48117D01*
X89168Y-48150D01*
X89168Y-48186D01*
X89168Y-48636D01*
X89182Y-48669D01*
X89207Y-48694D01*
X89240Y-48708D01*
X89276Y-48708D01*
X89526Y-48708D01*
X89559Y-48694D01*
X89584Y-48669D01*
X89598Y-48636D01*
X89598Y-48600D01*
X89598Y-48533D01*
X90053Y-48533D01*
X90053Y-48636D01*
X90067Y-48669D01*
X90092Y-48694D01*
X90125Y-48708D01*
X90161Y-48708D01*
X90411Y-48708D01*
X90444Y-48694D01*
X90469Y-48669D01*
X90483Y-48636D01*
X90483Y-48600D01*
X90483Y-48732D01*
X87936Y-48732D01*
X87936Y-48320D01*
X87904Y-48242D01*
X87844Y-48182D01*
X87766Y-48150D01*
X87710Y-48150D01*
X87595Y-48035D01*
X87550Y-48005D01*
X87496Y-47994D01*
X87480Y-47994D01*
X87480Y-47816D01*
X87480Y-45416D01*
X87480Y-44816D01*
X87466Y-44783D01*
X87441Y-44758D01*
X87408Y-44744D01*
X87372Y-44744D01*
X87072Y-44744D01*
X87039Y-44758D01*
X87014Y-44783D01*
X87000Y-44816D01*
X87000Y-44852D01*
X87000Y-45452D01*
X87014Y-45485D01*
X87039Y-45510D01*
X87072Y-45524D01*
X87108Y-45524D01*
X87408Y-45524D01*
X87441Y-45510D01*
X87466Y-45485D01*
X87480Y-45452D01*
X87480Y-45416D01*
X87480Y-47816D01*
X87466Y-47783D01*
X87441Y-47758D01*
X87408Y-47744D01*
X87372Y-47744D01*
X87072Y-47744D01*
X87039Y-47758D01*
X87014Y-47783D01*
X87000Y-47816D01*
X87000Y-47852D01*
X87000Y-48452D01*
X87014Y-48485D01*
X87039Y-48510D01*
X87072Y-48524D01*
X87108Y-48524D01*
X87408Y-48524D01*
X87441Y-48510D01*
X87466Y-48485D01*
X87480Y-48452D01*
X87480Y-48416D01*
X87480Y-48316D01*
X87512Y-48348D01*
X87512Y-48404D01*
X87544Y-48482D01*
X87604Y-48541D01*
X87682Y-48574D01*
X87766Y-48574D01*
X87844Y-48542D01*
X87904Y-48482D01*
X87936Y-48404D01*
X87936Y-48320D01*
X87936Y-48732D01*
X87019Y-48732D01*
X86860Y-48572D01*
X86860Y-48524D01*
X86908Y-48524D01*
X86941Y-48510D01*
X86966Y-48485D01*
X86980Y-48452D01*
X86980Y-48416D01*
X86980Y-47816D01*
X86980Y-45416D01*
X86980Y-44816D01*
X86966Y-44783D01*
X86941Y-44758D01*
X86908Y-44744D01*
X86872Y-44744D01*
X86572Y-44744D01*
X86539Y-44758D01*
X86514Y-44783D01*
X86500Y-44816D01*
X86500Y-44852D01*
X86500Y-45452D01*
X86514Y-45485D01*
X86539Y-45510D01*
X86572Y-45524D01*
X86608Y-45524D01*
X86908Y-45524D01*
X86941Y-45510D01*
X86966Y-45485D01*
X86980Y-45452D01*
X86980Y-45416D01*
X86980Y-47816D01*
X86966Y-47783D01*
X86941Y-47758D01*
X86908Y-47744D01*
X86872Y-47744D01*
X86572Y-47744D01*
X86539Y-47758D01*
X86514Y-47783D01*
X86500Y-47816D01*
X86500Y-47852D01*
X86500Y-48452D01*
X86514Y-48485D01*
X86539Y-48510D01*
X86572Y-48524D01*
X86608Y-48524D01*
X86620Y-48524D01*
X86620Y-48622D01*
X86629Y-48668D01*
X86655Y-48707D01*
X86838Y-48889D01*
X86677Y-48889D01*
X86360Y-48572D01*
X86360Y-48524D01*
X86408Y-48524D01*
X86441Y-48510D01*
X86466Y-48485D01*
X86480Y-48452D01*
X86480Y-48416D01*
X86480Y-47816D01*
X86480Y-45416D01*
X86480Y-44816D01*
X86466Y-44783D01*
X86441Y-44758D01*
X86408Y-44744D01*
X86372Y-44744D01*
X86072Y-44744D01*
X86039Y-44758D01*
X86014Y-44783D01*
X86000Y-44816D01*
X86000Y-44852D01*
X86000Y-45452D01*
X86014Y-45485D01*
X86039Y-45510D01*
X86072Y-45524D01*
X86108Y-45524D01*
X86408Y-45524D01*
X86441Y-45510D01*
X86466Y-45485D01*
X86480Y-45452D01*
X86480Y-45416D01*
X86480Y-47816D01*
X86466Y-47783D01*
X86441Y-47758D01*
X86408Y-47744D01*
X86372Y-47744D01*
X86072Y-47744D01*
X86039Y-47758D01*
X86014Y-47783D01*
X86000Y-47816D01*
X86000Y-47852D01*
X86000Y-48452D01*
X86014Y-48485D01*
X86039Y-48510D01*
X86072Y-48524D01*
X86108Y-48524D01*
X86120Y-48524D01*
X86120Y-48622D01*
X86129Y-48668D01*
X86155Y-48707D01*
X86495Y-49047D01*
X86345Y-49047D01*
X85860Y-48561D01*
X85860Y-48524D01*
X85908Y-48524D01*
X85941Y-48510D01*
X85966Y-48485D01*
X85980Y-48452D01*
X85980Y-48416D01*
X85980Y-47816D01*
X85966Y-47783D01*
X85941Y-47758D01*
X85908Y-47744D01*
X85872Y-47744D01*
X85572Y-47744D01*
X85539Y-47758D01*
X85514Y-47783D01*
X85500Y-47816D01*
X85500Y-47852D01*
X85500Y-48452D01*
X85514Y-48485D01*
X85539Y-48510D01*
X85572Y-48524D01*
X85608Y-48524D01*
X85620Y-48524D01*
X85620Y-48611D01*
X85629Y-48657D01*
X85655Y-48696D01*
X86211Y-49252D01*
X86250Y-49277D01*
X86250Y-49277D01*
X86296Y-49287D01*
X90322Y-49287D01*
X89380Y-50228D01*
X89354Y-50267D01*
X89345Y-50313D01*
X89345Y-51124D01*
X89211Y-51258D01*
X89157Y-51258D01*
X89141Y-51242D01*
X89108Y-51228D01*
X89072Y-51228D01*
X88752Y-51228D01*
X88719Y-51242D01*
X88694Y-51267D01*
X88680Y-51300D01*
X88680Y-51336D01*
X88680Y-51456D01*
X88694Y-51489D01*
X88719Y-51514D01*
X88752Y-51528D01*
X88788Y-51528D01*
X89108Y-51528D01*
X89141Y-51514D01*
X89157Y-51498D01*
X89261Y-51498D01*
X89307Y-51489D01*
X89307Y-51489D01*
X89346Y-51463D01*
X89550Y-51259D01*
X89550Y-51259D01*
X89550Y-51259D01*
X89569Y-51231D01*
X89569Y-51613D01*
X89437Y-51652D01*
X89157Y-51652D01*
X89141Y-51635D01*
X89108Y-51622D01*
X89072Y-51622D01*
X88752Y-51622D01*
X88719Y-51635D01*
X88718Y-51636D01*
X88703Y-51630D01*
X88667Y-51630D01*
X88547Y-51630D01*
X88526Y-51638D01*
X88506Y-51630D01*
X88470Y-51630D01*
X88350Y-51630D01*
X88329Y-51638D01*
X88309Y-51630D01*
X88273Y-51630D01*
X88176Y-51630D01*
X88176Y-51617D01*
X88176Y-51497D01*
X88167Y-51476D01*
X88176Y-51456D01*
X88176Y-51420D01*
X88176Y-51300D01*
X88167Y-51279D01*
X88176Y-51259D01*
X88176Y-51223D01*
X88176Y-51126D01*
X88189Y-51126D01*
X88309Y-51126D01*
X88330Y-51117D01*
X88350Y-51126D01*
X88386Y-51126D01*
X88506Y-51126D01*
X88526Y-51117D01*
X88547Y-51126D01*
X88583Y-51126D01*
X88703Y-51126D01*
X88718Y-51120D01*
X88719Y-51120D01*
X88752Y-51134D01*
X88788Y-51134D01*
X89108Y-51134D01*
X89141Y-51121D01*
X89166Y-51095D01*
X89180Y-51062D01*
X89180Y-51026D01*
X89180Y-50906D01*
X89166Y-50873D01*
X89141Y-50848D01*
X89108Y-50834D01*
X89072Y-50834D01*
X88775Y-50834D01*
X88775Y-50698D01*
X88765Y-50674D01*
X88765Y-50593D01*
X88765Y-50593D01*
X88765Y-50143D01*
X88786Y-50122D01*
X88799Y-50089D01*
X88799Y-50053D01*
X88799Y-49817D01*
X88786Y-49784D01*
X88760Y-49759D01*
X88727Y-49745D01*
X88692Y-49745D01*
X88535Y-49745D01*
X88502Y-49759D01*
X88476Y-49784D01*
X88464Y-49813D01*
X88320Y-49813D01*
X88266Y-49733D01*
X88165Y-49665D01*
X88046Y-49642D01*
X87927Y-49665D01*
X87826Y-49733D01*
X87746Y-49813D01*
X87668Y-49813D01*
X87652Y-49813D01*
X87652Y-49761D01*
X87620Y-49683D01*
X87561Y-49623D01*
X87483Y-49591D01*
X87398Y-49591D01*
X87321Y-49623D01*
X87261Y-49682D01*
X87229Y-49760D01*
X87228Y-49845D01*
X87261Y-49923D01*
X87301Y-49963D01*
X87301Y-50021D01*
X87269Y-50053D01*
X87236Y-50130D01*
X87236Y-50215D01*
X87268Y-50291D01*
X87228Y-50331D01*
X87161Y-50432D01*
X87137Y-50551D01*
X87156Y-50645D01*
X87026Y-50775D01*
X86889Y-50775D01*
X86856Y-50789D01*
X86830Y-50814D01*
X86817Y-50847D01*
X86816Y-50883D01*
X86816Y-51119D01*
X86830Y-51152D01*
X86855Y-51177D01*
X86888Y-51191D01*
X86924Y-51191D01*
X87081Y-51191D01*
X87114Y-51177D01*
X87140Y-51152D01*
X87151Y-51124D01*
X87242Y-51124D01*
X86918Y-51447D01*
X86812Y-51447D01*
X86779Y-51461D01*
X86754Y-51486D01*
X86740Y-51519D01*
X86740Y-51555D01*
X86740Y-51712D01*
X86754Y-51745D01*
X86779Y-51771D01*
X86812Y-51784D01*
X86848Y-51784D01*
X87084Y-51784D01*
X87117Y-51771D01*
X87142Y-51745D01*
X87156Y-51712D01*
X87156Y-51677D01*
X87156Y-51606D01*
X87441Y-51321D01*
X87676Y-51321D01*
X87676Y-51336D01*
X87676Y-51455D01*
X87601Y-51455D01*
X87601Y-51455D01*
X87592Y-51457D01*
X87555Y-51464D01*
X87517Y-51490D01*
X87517Y-51490D01*
X87502Y-51504D01*
X87418Y-51504D01*
X87340Y-51536D01*
X87281Y-51596D01*
X87248Y-51674D01*
X87248Y-51758D01*
X87280Y-51836D01*
X87340Y-51896D01*
X87418Y-51928D01*
X87502Y-51928D01*
X87580Y-51896D01*
X87640Y-51836D01*
X87672Y-51758D01*
X87672Y-51695D01*
X87699Y-51695D01*
X87715Y-51711D01*
X87748Y-51725D01*
X87784Y-51725D01*
X88081Y-51725D01*
X88081Y-51738D01*
X88081Y-52058D01*
X88095Y-52091D01*
X88111Y-52107D01*
X88111Y-52111D01*
X88065Y-52064D01*
X87987Y-52032D01*
X87902Y-52032D01*
X87824Y-52064D01*
X87765Y-52123D01*
X87732Y-52201D01*
X87732Y-52286D01*
X87765Y-52364D01*
X87813Y-52412D01*
X87788Y-52407D01*
X87669Y-52431D01*
X87629Y-52458D01*
X87568Y-52498D01*
X87568Y-52498D01*
X87567Y-52500D01*
X87499Y-52601D01*
X87476Y-52720D01*
X87483Y-52760D01*
X87483Y-53272D01*
X87474Y-53272D01*
X87238Y-53272D01*
X87205Y-53286D01*
X87190Y-53300D01*
X86986Y-53300D01*
X86269Y-52583D01*
X86269Y-51661D01*
X86259Y-51607D01*
X86228Y-51562D01*
X86228Y-51562D01*
X85890Y-51224D01*
X85845Y-51193D01*
X85791Y-51183D01*
X85583Y-51183D01*
X85583Y-51125D01*
X85569Y-51092D01*
X85544Y-51067D01*
X85511Y-51053D01*
X85475Y-51053D01*
X85115Y-51053D01*
X85082Y-51066D01*
X85057Y-51092D01*
X85043Y-51125D01*
X85043Y-51161D01*
X85043Y-51521D01*
X85057Y-51554D01*
X85082Y-51579D01*
X85115Y-51593D01*
X85151Y-51593D01*
X85511Y-51593D01*
X85544Y-51579D01*
X85569Y-51554D01*
X85583Y-51521D01*
X85583Y-51485D01*
X85583Y-51463D01*
X85733Y-51463D01*
X85990Y-51719D01*
X85990Y-52641D01*
X86000Y-52695D01*
X86030Y-52740D01*
X86830Y-53539D01*
X86830Y-53539D01*
X86875Y-53570D01*
X86928Y-53580D01*
X87190Y-53580D01*
X87205Y-53595D01*
X87238Y-53609D01*
X87273Y-53609D01*
X87281Y-53609D01*
X87281Y-53653D01*
X87209Y-53606D01*
X87090Y-53582D01*
X86971Y-53606D01*
X86870Y-53673D01*
X86802Y-53774D01*
X86779Y-53893D01*
X86802Y-54012D01*
X86870Y-54113D01*
X86964Y-54208D01*
X87065Y-54275D01*
X87065Y-54275D01*
X87159Y-54294D01*
X84783Y-54294D01*
X84783Y-51835D01*
X84783Y-51475D01*
X84769Y-51442D01*
X84744Y-51417D01*
X84711Y-51403D01*
X84680Y-51403D01*
X84680Y-48852D01*
X84680Y-48340D01*
X84666Y-48307D01*
X84641Y-48282D01*
X84608Y-48268D01*
X84572Y-48268D01*
X84405Y-48268D01*
X84405Y-48224D01*
X84446Y-48207D01*
X84506Y-48147D01*
X84538Y-48069D01*
X84538Y-47985D01*
X84506Y-47907D01*
X84446Y-47847D01*
X84369Y-47815D01*
X84284Y-47815D01*
X84206Y-47847D01*
X84147Y-47907D01*
X84114Y-47985D01*
X84114Y-48069D01*
X84146Y-48147D01*
X84165Y-48166D01*
X84165Y-48268D01*
X83962Y-48268D01*
X83929Y-48281D01*
X83904Y-48307D01*
X83890Y-48340D01*
X83890Y-48376D01*
X83890Y-48494D01*
X83870Y-48494D01*
X83870Y-45933D01*
X83735Y-45606D01*
X83485Y-45356D01*
X83158Y-45220D01*
X82804Y-45220D01*
X82476Y-45355D01*
X82226Y-45605D01*
X82090Y-45932D01*
X82090Y-46286D01*
X82225Y-46613D01*
X82475Y-46864D01*
X82802Y-47000D01*
X83156Y-47000D01*
X83483Y-46865D01*
X83734Y-46614D01*
X83870Y-46288D01*
X83870Y-45933D01*
X83870Y-48494D01*
X81550Y-48494D01*
X81550Y-48340D01*
X81536Y-48307D01*
X81511Y-48282D01*
X81478Y-48268D01*
X81442Y-48268D01*
X80832Y-48268D01*
X80799Y-48281D01*
X80774Y-48307D01*
X80760Y-48340D01*
X80760Y-48376D01*
X80760Y-48887D01*
X80774Y-48920D01*
X80799Y-48946D01*
X80832Y-48959D01*
X80868Y-48960D01*
X81478Y-48960D01*
X81511Y-48946D01*
X81536Y-48921D01*
X81550Y-48888D01*
X81550Y-48852D01*
X81550Y-48734D01*
X83890Y-48734D01*
X83890Y-48887D01*
X83904Y-48920D01*
X83929Y-48946D01*
X83962Y-48959D01*
X83998Y-48960D01*
X84608Y-48960D01*
X84641Y-48946D01*
X84666Y-48921D01*
X84680Y-48888D01*
X84680Y-48852D01*
X84680Y-51403D01*
X84675Y-51403D01*
X84315Y-51403D01*
X84282Y-51416D01*
X84257Y-51442D01*
X84243Y-51475D01*
X84243Y-51511D01*
X84243Y-51533D01*
X82968Y-51533D01*
X82968Y-51355D01*
X82955Y-51322D01*
X82929Y-51297D01*
X82896Y-51283D01*
X82860Y-51283D01*
X82260Y-51283D01*
X82227Y-51296D01*
X82202Y-51322D01*
X82188Y-51355D01*
X82188Y-51391D01*
X82188Y-51991D01*
X82202Y-52024D01*
X82227Y-52049D01*
X82260Y-52063D01*
X82296Y-52063D01*
X82896Y-52063D01*
X82929Y-52049D01*
X82954Y-52024D01*
X82968Y-51991D01*
X82968Y-51955D01*
X82968Y-51813D01*
X84243Y-51813D01*
X84243Y-51871D01*
X84257Y-51904D01*
X84282Y-51929D01*
X84315Y-51943D01*
X84351Y-51943D01*
X84711Y-51943D01*
X84744Y-51929D01*
X84769Y-51904D01*
X84783Y-51871D01*
X84783Y-51835D01*
X84783Y-54294D01*
X83582Y-54294D01*
X82286Y-52998D01*
X82253Y-52984D01*
X82218Y-52984D01*
X82184Y-52998D01*
X82159Y-53023D01*
X80628Y-54554D01*
X80614Y-54587D01*
X80614Y-54623D01*
X80628Y-54656D01*
X80653Y-54682D01*
X82184Y-56213D01*
X82217Y-56226D01*
X82253Y-56226D01*
X82286Y-56213D01*
X82312Y-56188D01*
X83582Y-54917D01*
X87374Y-54917D01*
X87431Y-54974D01*
X87431Y-54974D01*
X87532Y-55042D01*
X87532Y-55042D01*
X87628Y-55060D01*
X87651Y-55065D01*
X87651Y-55065D01*
X87651Y-55065D01*
X88168Y-55065D01*
X88168Y-56968D01*
X88192Y-57087D01*
X88260Y-57188D01*
X89051Y-57979D01*
X89051Y-60385D01*
X87755Y-61681D01*
X87741Y-61714D01*
X87741Y-61750D01*
X87755Y-61783D01*
X87780Y-61808D01*
X89311Y-63339D01*
X89344Y-63353D01*
X89380Y-63353D01*
X89413Y-63340D01*
X89438Y-63314D01*
X90969Y-61783D01*
X90983Y-61750D01*
X90983Y-61714D01*
X90969Y-61681D01*
X90944Y-61656D01*
X90733Y-61445D01*
X90733Y-60447D01*
X90733Y-59997D01*
X90720Y-59964D01*
X90694Y-59938D01*
X90661Y-59925D01*
X90626Y-59925D01*
X90376Y-59925D01*
X90343Y-59938D01*
X90317Y-59964D01*
X90303Y-59997D01*
X90303Y-60032D01*
X90303Y-60100D01*
X90148Y-60100D01*
X90120Y-60072D01*
X90042Y-60040D01*
X89958Y-60039D01*
X89880Y-60072D01*
X89820Y-60131D01*
X89788Y-60209D01*
X89787Y-60293D01*
X89820Y-60371D01*
X89879Y-60431D01*
X89957Y-60463D01*
X90041Y-60463D01*
X90119Y-60431D01*
X90171Y-60380D01*
X90303Y-60380D01*
X90303Y-60482D01*
X90317Y-60516D01*
X90342Y-60541D01*
X90375Y-60555D01*
X90411Y-60555D01*
X90661Y-60555D01*
X90694Y-60541D01*
X90720Y-60516D01*
X90733Y-60483D01*
X90733Y-60447D01*
X90733Y-61445D01*
X89673Y-60385D01*
X89673Y-57850D01*
X89673Y-57850D01*
X89673Y-57850D01*
X89669Y-57830D01*
X91067Y-59228D01*
X91168Y-59295D01*
X91201Y-59302D01*
X91162Y-59340D01*
X91130Y-59418D01*
X91130Y-59474D01*
X91019Y-59585D01*
X90989Y-59630D01*
X90978Y-59684D01*
X90978Y-59925D01*
X90976Y-59925D01*
X90943Y-59938D01*
X90917Y-59964D01*
X90903Y-59997D01*
X90903Y-60032D01*
X90903Y-60482D01*
X90917Y-60516D01*
X90942Y-60541D01*
X90975Y-60555D01*
X91011Y-60555D01*
X91261Y-60555D01*
X91294Y-60541D01*
X91320Y-60516D01*
X91333Y-60483D01*
X91333Y-60447D01*
X91333Y-60223D01*
X91458Y-60098D01*
X91691Y-60098D01*
X91691Y-60156D01*
X91704Y-60189D01*
X91730Y-60214D01*
X91763Y-60228D01*
X91798Y-60228D01*
X92158Y-60228D01*
X92191Y-60214D01*
X92217Y-60189D01*
X92230Y-60156D01*
X92230Y-60120D01*
X92230Y-59760D01*
X92217Y-59727D01*
X92192Y-59702D01*
X92158Y-59688D01*
X92123Y-59688D01*
X92045Y-59688D01*
X92045Y-59298D01*
X92148Y-59298D01*
X92181Y-59284D01*
X92206Y-59259D01*
X92220Y-59226D01*
X92220Y-59223D01*
X92443Y-59223D01*
X92497Y-59212D01*
X92542Y-59182D01*
X92580Y-59144D01*
X92686Y-59144D01*
X92720Y-59130D01*
X92745Y-59105D01*
X92759Y-59072D01*
X92759Y-59036D01*
X92759Y-58879D01*
X92745Y-58846D01*
X92720Y-58821D01*
X92687Y-58807D01*
X92651Y-58807D01*
X92415Y-58807D01*
X92382Y-58821D01*
X92356Y-58846D01*
X92343Y-58879D01*
X92343Y-58915D01*
X92343Y-58943D01*
X92220Y-58943D01*
X92220Y-58940D01*
X92206Y-58907D01*
X92181Y-58882D01*
X92148Y-58868D01*
X92112Y-58868D01*
X91662Y-58868D01*
X91629Y-58882D01*
X91604Y-58907D01*
X91590Y-58940D01*
X91590Y-58966D01*
X91575Y-58888D01*
X91507Y-58787D01*
X90004Y-57284D01*
X90004Y-56346D01*
X90021Y-56353D01*
X90057Y-56353D01*
X90391Y-56353D01*
X90391Y-56507D01*
X90401Y-56553D01*
X90427Y-56592D01*
X90860Y-57025D01*
X90860Y-57025D01*
X90899Y-57051D01*
X90899Y-57051D01*
X90935Y-57059D01*
X90945Y-57061D01*
X90945Y-57061D01*
X90945Y-57061D01*
X91002Y-57061D01*
X91006Y-57070D01*
X91031Y-57095D01*
X91064Y-57109D01*
X91100Y-57109D01*
X91336Y-57109D01*
X91369Y-57095D01*
X91394Y-57070D01*
X91408Y-57037D01*
X91408Y-57001D01*
X91408Y-56844D01*
X91395Y-56811D01*
X91369Y-56786D01*
X91336Y-56772D01*
X91300Y-56772D01*
X91064Y-56772D01*
X91031Y-56786D01*
X91006Y-56811D01*
X91002Y-56821D01*
X90994Y-56821D01*
X90631Y-56458D01*
X90631Y-56353D01*
X91002Y-56353D01*
X91035Y-56340D01*
X91060Y-56314D01*
X91074Y-56281D01*
X91074Y-56245D01*
X91074Y-56008D01*
X91242Y-55840D01*
X91269Y-55903D01*
X91328Y-55963D01*
X91406Y-55995D01*
X91490Y-55995D01*
X91568Y-55963D01*
X91610Y-55921D01*
X91624Y-55921D01*
X91639Y-55936D01*
X91672Y-55949D01*
X91708Y-55949D01*
X91944Y-55949D01*
X91977Y-55936D01*
X92002Y-55910D01*
X92006Y-55901D01*
X92576Y-55901D01*
X92582Y-55905D01*
X92637Y-55916D01*
X92872Y-55916D01*
X92927Y-55905D01*
X92974Y-55873D01*
X93006Y-55826D01*
X93017Y-55771D01*
X93006Y-55715D01*
X92977Y-55672D01*
X93006Y-55630D01*
X93017Y-55574D01*
X93006Y-55519D01*
X92977Y-55476D01*
X93006Y-55433D01*
X93017Y-55377D01*
X93006Y-55322D01*
X92974Y-55275D01*
X92927Y-55243D01*
X92872Y-55232D01*
X92637Y-55232D01*
X92582Y-55243D01*
X92561Y-55257D01*
X92206Y-55257D01*
X91765Y-54816D01*
X91828Y-54790D01*
X91888Y-54730D01*
X91888Y-54730D01*
X91921Y-54730D01*
X92504Y-54730D01*
X92503Y-54731D01*
X92492Y-54787D01*
X92503Y-54842D01*
X92532Y-54885D01*
X92503Y-54928D01*
X92492Y-54984D01*
X92503Y-55039D01*
X92535Y-55086D01*
X92582Y-55117D01*
X92637Y-55129D01*
X92872Y-55129D01*
X92927Y-55117D01*
X92974Y-55086D01*
X93006Y-55039D01*
X93017Y-54984D01*
X93006Y-54928D01*
X92977Y-54885D01*
X93006Y-54842D01*
X93017Y-54787D01*
X93006Y-54731D01*
X92977Y-54688D01*
X93006Y-54645D01*
X93017Y-54590D01*
X93006Y-54534D01*
X92974Y-54487D01*
X92927Y-54456D01*
X92872Y-54445D01*
X92637Y-54445D01*
X92612Y-54450D01*
X91921Y-54450D01*
X91848Y-54450D01*
X91828Y-54430D01*
X91775Y-54408D01*
X90970Y-53603D01*
X90970Y-53118D01*
X90959Y-53064D01*
X90929Y-53019D01*
X90929Y-53019D01*
X90861Y-52950D01*
X91523Y-52950D01*
X91577Y-52940D01*
X91622Y-52909D01*
X92303Y-52228D01*
X92303Y-52228D01*
X92303Y-52228D01*
X92333Y-52183D01*
X92344Y-52129D01*
X92344Y-50420D01*
X92375Y-50389D01*
X92467Y-50389D01*
X92467Y-50389D01*
X92500Y-50403D01*
X92536Y-50403D01*
X92812Y-50403D01*
X92845Y-50390D01*
X92870Y-50364D01*
X92884Y-50331D01*
X92884Y-50296D01*
X92884Y-50207D01*
X92877Y-50190D01*
X92884Y-50174D01*
X92884Y-50138D01*
X92884Y-50050D01*
X92877Y-50033D01*
X92884Y-50016D01*
X92884Y-49981D01*
X92884Y-49892D01*
X92877Y-49875D01*
X92884Y-49859D01*
X92884Y-49823D01*
X92884Y-49735D01*
X92877Y-49718D01*
X92884Y-49701D01*
X92884Y-49666D01*
X92884Y-49577D01*
X92877Y-49560D01*
X92884Y-49544D01*
X92884Y-49508D01*
X92884Y-49420D01*
X92877Y-49403D01*
X92884Y-49386D01*
X92884Y-49351D01*
X92884Y-49262D01*
X92877Y-49245D01*
X92884Y-49229D01*
X92884Y-49193D01*
X92884Y-49105D01*
X92877Y-49088D01*
X92884Y-49071D01*
X92884Y-49036D01*
X92884Y-48947D01*
X92877Y-48930D01*
X92884Y-48914D01*
X92884Y-48878D01*
X92884Y-48790D01*
X92877Y-48773D01*
X92884Y-48756D01*
X92884Y-48721D01*
X92884Y-48632D01*
X92877Y-48616D01*
X92884Y-48599D01*
X92884Y-48563D01*
X92884Y-48489D01*
X92905Y-48489D01*
X92994Y-48489D01*
X93011Y-48482D01*
X93027Y-48489D01*
X93063Y-48489D01*
X93151Y-48489D01*
X93168Y-48482D01*
X93185Y-48489D01*
X93220Y-48489D01*
X93309Y-48489D01*
X93325Y-48482D01*
X93342Y-48489D01*
X93378Y-48489D01*
X93466Y-48489D01*
X93483Y-48482D01*
X93499Y-48489D01*
X93535Y-48489D01*
X93624Y-48489D01*
X93640Y-48482D01*
X93657Y-48489D01*
X93693Y-48489D01*
X93781Y-48489D01*
X93798Y-48482D01*
X93814Y-48489D01*
X93850Y-48489D01*
X93939Y-48489D01*
X93955Y-48482D01*
X93972Y-48489D01*
X94008Y-48489D01*
X94096Y-48489D01*
X94113Y-48482D01*
X94129Y-48489D01*
X94165Y-48489D01*
X94254Y-48489D01*
X94270Y-48482D01*
X94287Y-48489D01*
X94323Y-48489D01*
X94411Y-48489D01*
X94428Y-48482D01*
X94444Y-48489D01*
X94480Y-48489D01*
X94569Y-48489D01*
X94585Y-48482D01*
X94602Y-48489D01*
X94638Y-48489D01*
X94712Y-48489D01*
X94712Y-48510D01*
X94712Y-48599D01*
X94719Y-48616D01*
X94712Y-48632D01*
X94712Y-48668D01*
X94712Y-48756D01*
X94726Y-48789D01*
X94751Y-48815D01*
X94784Y-48828D01*
X94820Y-48828D01*
X95095Y-48828D01*
X95128Y-48815D01*
X95154Y-48789D01*
X95167Y-48756D01*
X95167Y-48721D01*
X95167Y-48657D01*
X95646Y-48657D01*
X95692Y-48648D01*
X95692Y-48648D01*
X95731Y-48622D01*
X95850Y-48502D01*
X95985Y-48502D01*
X96018Y-48489D01*
X96043Y-48463D01*
X96057Y-48430D01*
X96057Y-48395D01*
X96057Y-48238D01*
X96043Y-48205D01*
X96018Y-48179D01*
X95985Y-48166D01*
X95949Y-48165D01*
X95713Y-48165D01*
X95680Y-48179D01*
X95655Y-48204D01*
X95641Y-48237D01*
X95641Y-48273D01*
X95641Y-48372D01*
X95596Y-48417D01*
X95129Y-48417D01*
X95128Y-48416D01*
X95095Y-48403D01*
X95080Y-48403D01*
X95080Y-48160D01*
X95120Y-48120D01*
X95152Y-48042D01*
X95152Y-47958D01*
X95120Y-47880D01*
X95060Y-47820D01*
X94982Y-47788D01*
X94898Y-47788D01*
X94820Y-47820D01*
X94784Y-47856D01*
X94784Y-47754D01*
X95498Y-47040D01*
X95498Y-47040D01*
X95498Y-47040D01*
X95524Y-47001D01*
X95524Y-47001D01*
X95533Y-46955D01*
X95533Y-45974D01*
X95524Y-45928D01*
X95524Y-45928D01*
X95498Y-45889D01*
X95498Y-45889D01*
X95320Y-45711D01*
X95355Y-45666D01*
X95868Y-45666D01*
X95874Y-45680D01*
X95899Y-45706D01*
X95932Y-45719D01*
X95968Y-45719D01*
X96204Y-45719D01*
X96237Y-45706D01*
X96262Y-45680D01*
X96276Y-45647D01*
X96276Y-45612D01*
X96276Y-48701D01*
X96225Y-48701D01*
X96179Y-48710D01*
X96140Y-48736D01*
X95829Y-49047D01*
X95129Y-49047D01*
X95128Y-49046D01*
X95095Y-49033D01*
X95060Y-49033D01*
X94784Y-49033D01*
X94751Y-49046D01*
X94726Y-49072D01*
X94712Y-49104D01*
X94712Y-49140D01*
X94712Y-49229D01*
X94719Y-49245D01*
X94712Y-49262D01*
X94712Y-49298D01*
X94712Y-49386D01*
X94719Y-49403D01*
X94712Y-49419D01*
X94712Y-49455D01*
X94712Y-49544D01*
X94719Y-49560D01*
X94712Y-49577D01*
X94712Y-49613D01*
X94712Y-49701D01*
X94719Y-49718D01*
X94712Y-49734D01*
X94712Y-49770D01*
X94712Y-49859D01*
X94719Y-49875D01*
X94712Y-49892D01*
X94712Y-49928D01*
X94712Y-50016D01*
X94719Y-50033D01*
X94712Y-50049D01*
X94712Y-50085D01*
X94712Y-50174D01*
X94719Y-50190D01*
X94712Y-50207D01*
X94712Y-50243D01*
X94712Y-50317D01*
X94691Y-50317D01*
X94602Y-50317D01*
X94585Y-50324D01*
X94569Y-50317D01*
X94533Y-50317D01*
X94445Y-50317D01*
X94428Y-50324D01*
X94411Y-50317D01*
X94376Y-50317D01*
X94287Y-50317D01*
X94270Y-50324D01*
X94254Y-50317D01*
X94218Y-50317D01*
X94130Y-50317D01*
X94113Y-50324D01*
X94096Y-50317D01*
X94061Y-50317D01*
X93972Y-50317D01*
X93955Y-50324D01*
X93939Y-50317D01*
X93903Y-50317D01*
X93815Y-50317D01*
X93798Y-50324D01*
X93781Y-50317D01*
X93746Y-50317D01*
X93657Y-50317D01*
X93640Y-50324D01*
X93624Y-50317D01*
X93588Y-50317D01*
X93500Y-50317D01*
X93483Y-50324D01*
X93466Y-50317D01*
X93431Y-50317D01*
X93342Y-50317D01*
X93325Y-50324D01*
X93309Y-50317D01*
X93273Y-50317D01*
X93185Y-50317D01*
X93168Y-50324D01*
X93151Y-50317D01*
X93116Y-50317D01*
X93027Y-50317D01*
X92994Y-50331D01*
X92969Y-50356D01*
X92955Y-50389D01*
X92955Y-50425D01*
X92955Y-50700D01*
X92969Y-50733D01*
X92969Y-50734D01*
X92969Y-50874D01*
X92859Y-50984D01*
X92833Y-51023D01*
X92824Y-51069D01*
X92824Y-51160D01*
X92808Y-51160D01*
X92775Y-51174D01*
X92750Y-51199D01*
X92736Y-51232D01*
X92736Y-51268D01*
X92736Y-51425D01*
X92750Y-51458D01*
X92775Y-51484D01*
X92808Y-51497D01*
X92844Y-51497D01*
X93080Y-51497D01*
X93094Y-51491D01*
X93094Y-51520D01*
X93080Y-51515D01*
X93044Y-51514D01*
X92808Y-51514D01*
X92775Y-51528D01*
X92750Y-51553D01*
X92736Y-51586D01*
X92736Y-51622D01*
X92736Y-51779D01*
X92750Y-51812D01*
X92775Y-51838D01*
X92808Y-51851D01*
X92824Y-51851D01*
X92824Y-53585D01*
X92833Y-53631D01*
X92859Y-53670D01*
X92915Y-53725D01*
X92906Y-53738D01*
X92895Y-53793D01*
X92895Y-54028D01*
X92901Y-54057D01*
X92872Y-54051D01*
X92819Y-54051D01*
X92819Y-53183D01*
X92787Y-53105D01*
X92727Y-53045D01*
X92649Y-53013D01*
X92584Y-53013D01*
X92600Y-52997D01*
X92613Y-52964D01*
X92613Y-52928D01*
X92613Y-52692D01*
X92600Y-52659D01*
X92574Y-52634D01*
X92541Y-52620D01*
X92506Y-52620D01*
X92349Y-52620D01*
X92316Y-52634D01*
X92290Y-52659D01*
X92277Y-52692D01*
X92276Y-52728D01*
X92276Y-52964D01*
X92290Y-52997D01*
X92315Y-53022D01*
X92325Y-53026D01*
X92325Y-53063D01*
X92334Y-53109D01*
X92360Y-53148D01*
X92395Y-53183D01*
X92395Y-53267D01*
X92427Y-53345D01*
X92487Y-53405D01*
X92565Y-53437D01*
X92649Y-53437D01*
X92727Y-53405D01*
X92787Y-53345D01*
X92819Y-53267D01*
X92819Y-53183D01*
X92819Y-54051D01*
X92729Y-54051D01*
X92331Y-53653D01*
X92344Y-53639D01*
X92377Y-53562D01*
X92377Y-53477D01*
X92345Y-53399D01*
X92285Y-53340D01*
X92207Y-53307D01*
X92206Y-53307D01*
X92211Y-53282D01*
X92211Y-53026D01*
X92220Y-53022D01*
X92246Y-52997D01*
X92259Y-52964D01*
X92259Y-52928D01*
X92259Y-52692D01*
X92246Y-52659D01*
X92220Y-52634D01*
X92187Y-52620D01*
X92152Y-52620D01*
X91995Y-52620D01*
X91962Y-52634D01*
X91936Y-52659D01*
X91923Y-52692D01*
X91922Y-52728D01*
X91922Y-52816D01*
X91722Y-53016D01*
X91666Y-53016D01*
X91588Y-53048D01*
X91529Y-53108D01*
X91496Y-53185D01*
X91496Y-53270D01*
X91528Y-53348D01*
X91588Y-53407D01*
X91595Y-53410D01*
X91595Y-53454D01*
X91580Y-53469D01*
X91567Y-53502D01*
X91566Y-53538D01*
X91566Y-53774D01*
X91580Y-53807D01*
X91605Y-53832D01*
X91638Y-53846D01*
X91674Y-53846D01*
X91773Y-53846D01*
X92208Y-54281D01*
X92208Y-54281D01*
X92247Y-54307D01*
X92247Y-54307D01*
X92293Y-54316D01*
X92561Y-54316D01*
X92582Y-54330D01*
X92637Y-54341D01*
X92872Y-54341D01*
X92927Y-54330D01*
X92974Y-54299D01*
X93006Y-54252D01*
X93017Y-54196D01*
X93011Y-54167D01*
X93040Y-54173D01*
X93096Y-54162D01*
X93139Y-54133D01*
X93181Y-54162D01*
X93237Y-54173D01*
X93292Y-54162D01*
X93335Y-54133D01*
X93378Y-54162D01*
X93434Y-54173D01*
X93489Y-54162D01*
X93532Y-54133D01*
X93575Y-54162D01*
X93631Y-54173D01*
X93686Y-54162D01*
X93729Y-54133D01*
X93772Y-54162D01*
X93828Y-54173D01*
X93883Y-54162D01*
X93926Y-54133D01*
X93969Y-54162D01*
X94024Y-54173D01*
X94080Y-54162D01*
X94123Y-54133D01*
X94166Y-54162D01*
X94221Y-54173D01*
X94277Y-54162D01*
X94320Y-54133D01*
X94363Y-54162D01*
X94418Y-54173D01*
X94474Y-54162D01*
X94516Y-54133D01*
X94559Y-54162D01*
X94615Y-54173D01*
X94670Y-54162D01*
X94713Y-54133D01*
X94756Y-54162D01*
X94812Y-54173D01*
X94841Y-54167D01*
X94835Y-54196D01*
X94846Y-54252D01*
X94877Y-54299D01*
X94924Y-54330D01*
X94980Y-54341D01*
X95214Y-54341D01*
X95270Y-54330D01*
X95317Y-54299D01*
X95348Y-54252D01*
X95359Y-54196D01*
X95348Y-54141D01*
X95335Y-54121D01*
X95400Y-54121D01*
X95478Y-54089D01*
X95537Y-54029D01*
X95570Y-53951D01*
X95570Y-53905D01*
X95596Y-53931D01*
X95674Y-53963D01*
X95716Y-53963D01*
X95436Y-54243D01*
X95431Y-54251D01*
X95407Y-54261D01*
X95347Y-54320D01*
X95315Y-54398D01*
X95315Y-54450D01*
X95240Y-54450D01*
X95214Y-54445D01*
X94980Y-54445D01*
X94924Y-54456D01*
X94877Y-54487D01*
X94846Y-54534D01*
X94835Y-54590D01*
X94846Y-54645D01*
X94875Y-54688D01*
X94846Y-54731D01*
X94835Y-54787D01*
X94846Y-54842D01*
X94877Y-54889D01*
X94924Y-54921D01*
X94980Y-54932D01*
X95214Y-54932D01*
X95240Y-54927D01*
X95383Y-54927D01*
X95415Y-54959D01*
X95493Y-54991D01*
X95577Y-54991D01*
X95655Y-54959D01*
X95715Y-54899D01*
X95747Y-54821D01*
X95747Y-54765D01*
X95921Y-54591D01*
X95946Y-54602D01*
X95982Y-54602D01*
X96139Y-54602D01*
X96172Y-54588D01*
X96198Y-54563D01*
X96211Y-54530D01*
X96211Y-54494D01*
X96211Y-54258D01*
X96198Y-54225D01*
X96172Y-54200D01*
X96139Y-54186D01*
X96104Y-54186D01*
X95947Y-54186D01*
X95914Y-54200D01*
X95888Y-54225D01*
X95876Y-54254D01*
X95821Y-54254D01*
X96069Y-54006D01*
X98161Y-54006D01*
X98214Y-53995D01*
X98260Y-53965D01*
X98480Y-53744D01*
X98480Y-53744D01*
X98480Y-53744D01*
X98511Y-53699D01*
X98513Y-53688D01*
X98872Y-53688D01*
X98905Y-53674D01*
X98930Y-53649D01*
X98944Y-53616D01*
X98944Y-53580D01*
X98944Y-53281D01*
X98944Y-53080D01*
X98944Y-52781D01*
X98944Y-52080D01*
X98944Y-51781D01*
X98944Y-51580D01*
X98944Y-51281D01*
X98930Y-51248D01*
X98905Y-51223D01*
X98872Y-51209D01*
X98836Y-51209D01*
X97891Y-51209D01*
X97858Y-51222D01*
X97833Y-51248D01*
X97819Y-51281D01*
X97819Y-51317D01*
X97819Y-51616D01*
X97833Y-51649D01*
X97858Y-51674D01*
X97891Y-51688D01*
X97927Y-51688D01*
X98872Y-51688D01*
X98905Y-51674D01*
X98930Y-51649D01*
X98944Y-51616D01*
X98944Y-51580D01*
X98944Y-51781D01*
X98930Y-51748D01*
X98905Y-51723D01*
X98872Y-51709D01*
X98836Y-51709D01*
X97891Y-51709D01*
X97858Y-51722D01*
X97833Y-51748D01*
X97819Y-51781D01*
X97819Y-51817D01*
X97819Y-52116D01*
X97833Y-52149D01*
X97858Y-52174D01*
X97891Y-52188D01*
X97927Y-52188D01*
X98872Y-52188D01*
X98905Y-52174D01*
X98930Y-52149D01*
X98944Y-52116D01*
X98944Y-52080D01*
X98944Y-52781D01*
X98930Y-52748D01*
X98905Y-52723D01*
X98872Y-52709D01*
X98836Y-52709D01*
X97891Y-52709D01*
X97858Y-52722D01*
X97833Y-52748D01*
X97819Y-52781D01*
X97819Y-52817D01*
X97819Y-53116D01*
X97833Y-53149D01*
X97858Y-53174D01*
X97891Y-53188D01*
X97927Y-53188D01*
X98872Y-53188D01*
X98905Y-53174D01*
X98930Y-53149D01*
X98944Y-53116D01*
X98944Y-53080D01*
X98944Y-53281D01*
X98930Y-53248D01*
X98905Y-53223D01*
X98872Y-53209D01*
X98836Y-53209D01*
X97891Y-53209D01*
X97858Y-53222D01*
X97833Y-53248D01*
X97819Y-53281D01*
X97819Y-53317D01*
X97819Y-53616D01*
X97833Y-53649D01*
X97858Y-53674D01*
X97891Y-53688D01*
X97927Y-53688D01*
X98141Y-53688D01*
X98103Y-53726D01*
X96011Y-53726D01*
X95958Y-53736D01*
X95928Y-53756D01*
X95928Y-53709D01*
X95896Y-53632D01*
X95836Y-53572D01*
X95758Y-53540D01*
X95747Y-53540D01*
X95781Y-53506D01*
X95814Y-53428D01*
X95814Y-53343D01*
X95782Y-53265D01*
X95726Y-53210D01*
X95758Y-53179D01*
X95781Y-53124D01*
X96190Y-53533D01*
X96190Y-53533D01*
X96229Y-53559D01*
X96229Y-53559D01*
X96266Y-53566D01*
X96275Y-53568D01*
X96275Y-53568D01*
X96275Y-53568D01*
X96284Y-53568D01*
X96284Y-53616D01*
X96297Y-53649D01*
X96323Y-53674D01*
X96356Y-53688D01*
X96391Y-53688D01*
X97336Y-53688D01*
X97369Y-53674D01*
X97395Y-53649D01*
X97408Y-53616D01*
X97408Y-53580D01*
X97408Y-53281D01*
X97395Y-53248D01*
X97369Y-53223D01*
X97336Y-53209D01*
X97301Y-53209D01*
X96356Y-53209D01*
X96323Y-53222D01*
X96297Y-53248D01*
X96284Y-53281D01*
X96284Y-53287D01*
X95529Y-52533D01*
X95529Y-52360D01*
X96202Y-53033D01*
X96202Y-53033D01*
X96241Y-53059D01*
X96241Y-53059D01*
X96284Y-53068D01*
X96284Y-53116D01*
X96297Y-53149D01*
X96323Y-53174D01*
X96356Y-53188D01*
X96391Y-53188D01*
X97336Y-53188D01*
X97369Y-53174D01*
X97395Y-53149D01*
X97408Y-53116D01*
X97408Y-53080D01*
X97408Y-52781D01*
X97408Y-52580D01*
X97408Y-52281D01*
X97408Y-52080D01*
X97408Y-51781D01*
X97408Y-51580D01*
X97408Y-51281D01*
X97395Y-51248D01*
X97369Y-51223D01*
X97336Y-51209D01*
X97301Y-51209D01*
X96356Y-51209D01*
X96323Y-51222D01*
X96297Y-51248D01*
X96284Y-51281D01*
X96284Y-51317D01*
X96284Y-51616D01*
X96297Y-51649D01*
X96323Y-51674D01*
X96356Y-51688D01*
X96391Y-51688D01*
X97336Y-51688D01*
X97369Y-51674D01*
X97395Y-51649D01*
X97408Y-51616D01*
X97408Y-51580D01*
X97408Y-51781D01*
X97395Y-51748D01*
X97369Y-51723D01*
X97336Y-51709D01*
X97301Y-51709D01*
X96356Y-51709D01*
X96323Y-51722D01*
X96297Y-51748D01*
X96284Y-51781D01*
X96284Y-51817D01*
X96284Y-52116D01*
X96297Y-52149D01*
X96323Y-52174D01*
X96356Y-52188D01*
X96391Y-52188D01*
X97336Y-52188D01*
X97369Y-52174D01*
X97395Y-52149D01*
X97408Y-52116D01*
X97408Y-52080D01*
X97408Y-52281D01*
X97395Y-52248D01*
X97369Y-52223D01*
X97336Y-52209D01*
X97301Y-52209D01*
X96356Y-52209D01*
X96323Y-52222D01*
X96297Y-52248D01*
X96284Y-52281D01*
X96284Y-52317D01*
X96284Y-52616D01*
X96297Y-52649D01*
X96323Y-52674D01*
X96356Y-52688D01*
X96391Y-52688D01*
X97336Y-52688D01*
X97369Y-52674D01*
X97395Y-52649D01*
X97408Y-52616D01*
X97408Y-52580D01*
X97408Y-52781D01*
X97395Y-52748D01*
X97369Y-52723D01*
X97336Y-52709D01*
X97301Y-52709D01*
X96356Y-52709D01*
X96323Y-52722D01*
X96297Y-52748D01*
X96285Y-52777D01*
X95667Y-52158D01*
X95667Y-51456D01*
X95658Y-51410D01*
X95658Y-51410D01*
X95632Y-51371D01*
X95632Y-51371D01*
X95210Y-50950D01*
X95581Y-50950D01*
X95585Y-50960D01*
X95610Y-50985D01*
X95643Y-50999D01*
X95679Y-50999D01*
X95915Y-50999D01*
X95948Y-50985D01*
X95973Y-50960D01*
X95987Y-50927D01*
X95987Y-50891D01*
X95987Y-50734D01*
X95977Y-50709D01*
X96134Y-50867D01*
X96134Y-50951D01*
X96166Y-51029D01*
X96226Y-51089D01*
X96304Y-51121D01*
X96388Y-51121D01*
X96466Y-51089D01*
X96526Y-51029D01*
X96558Y-50951D01*
X96558Y-50867D01*
X96537Y-50816D01*
X96588Y-50816D01*
X96669Y-50898D01*
X96669Y-50982D01*
X96702Y-51060D01*
X96761Y-51120D01*
X96839Y-51152D01*
X96923Y-51152D01*
X97001Y-51120D01*
X97061Y-51061D01*
X97093Y-50983D01*
X97093Y-50898D01*
X97061Y-50821D01*
X97002Y-50761D01*
X96924Y-50729D01*
X96839Y-50728D01*
X96839Y-50729D01*
X96722Y-50612D01*
X96683Y-50586D01*
X96637Y-50576D01*
X96490Y-50576D01*
X96431Y-50517D01*
X96392Y-50491D01*
X96346Y-50482D01*
X96297Y-50482D01*
X95890Y-50075D01*
X95962Y-50045D01*
X96022Y-49986D01*
X96054Y-49908D01*
X96054Y-49824D01*
X96027Y-49759D01*
X96055Y-49759D01*
X96055Y-49848D01*
X96069Y-49881D01*
X96094Y-49906D01*
X96127Y-49920D01*
X96163Y-49920D01*
X96399Y-49920D01*
X96432Y-49906D01*
X96457Y-49881D01*
X96471Y-49848D01*
X96471Y-49812D01*
X96471Y-49655D01*
X96458Y-49622D01*
X96437Y-49602D01*
X96996Y-49602D01*
X96996Y-49783D01*
X96980Y-49783D01*
X96947Y-49797D01*
X96922Y-49822D01*
X96908Y-49855D01*
X96908Y-49891D01*
X96908Y-50048D01*
X96922Y-50081D01*
X96947Y-50107D01*
X96980Y-50120D01*
X97016Y-50120D01*
X97252Y-50120D01*
X97285Y-50107D01*
X97310Y-50081D01*
X97324Y-50048D01*
X97324Y-50013D01*
X97324Y-49856D01*
X97310Y-49823D01*
X97285Y-49797D01*
X97252Y-49784D01*
X97236Y-49784D01*
X97236Y-49440D01*
X97236Y-49440D01*
X97236Y-49349D01*
X97246Y-49353D01*
X97281Y-49353D01*
X97380Y-49353D01*
X97413Y-49340D01*
X97438Y-49315D01*
X97452Y-49281D01*
X97452Y-49246D01*
X97452Y-49029D01*
X97438Y-48996D01*
X97430Y-48988D01*
X97438Y-48980D01*
X97452Y-48947D01*
X97452Y-48911D01*
X97452Y-48861D01*
X97488Y-48868D01*
X97590Y-48848D01*
X97676Y-48790D01*
X99089Y-47377D01*
X99089Y-47377D01*
X99128Y-47319D01*
X99147Y-47290D01*
X99147Y-47290D01*
X99167Y-47188D01*
X99167Y-47188D01*
X99167Y-46754D01*
X99841Y-46754D01*
X99841Y-63695D01*
X99841Y-63695D01*
G37*
G54D38*
X99841Y-63695D02*
X99728Y-63695D01*
X99728Y-62524D01*
X99593Y-62197D01*
X99433Y-62036D01*
X99433Y-59985D01*
X99433Y-58985D01*
X99433Y-57985D01*
X99433Y-56985D01*
X99374Y-56842D01*
X99264Y-56732D01*
X99121Y-56673D01*
X98966Y-56673D01*
X98822Y-56732D01*
X98712Y-56841D01*
X98653Y-56985D01*
X98653Y-57140D01*
X98712Y-57283D01*
X98822Y-57393D01*
X98965Y-57452D01*
X99120Y-57452D01*
X99263Y-57393D01*
X99373Y-57284D01*
X99433Y-57140D01*
X99433Y-56985D01*
X99433Y-57985D01*
X99374Y-57842D01*
X99264Y-57732D01*
X99121Y-57673D01*
X98966Y-57673D01*
X98822Y-57732D01*
X98712Y-57841D01*
X98653Y-57985D01*
X98653Y-58140D01*
X98712Y-58283D01*
X98822Y-58393D01*
X98965Y-58452D01*
X99120Y-58452D01*
X99263Y-58393D01*
X99373Y-58284D01*
X99433Y-58140D01*
X99433Y-57985D01*
X99433Y-58985D01*
X99374Y-58842D01*
X99264Y-58732D01*
X99121Y-58673D01*
X98966Y-58673D01*
X98822Y-58732D01*
X98712Y-58841D01*
X98653Y-58985D01*
X98653Y-59140D01*
X98712Y-59283D01*
X98822Y-59393D01*
X98965Y-59452D01*
X99120Y-59452D01*
X99263Y-59393D01*
X99373Y-59284D01*
X99433Y-59140D01*
X99433Y-58985D01*
X99433Y-59985D01*
X99374Y-59842D01*
X99264Y-59732D01*
X99121Y-59673D01*
X98966Y-59673D01*
X98822Y-59732D01*
X98712Y-59841D01*
X98653Y-59985D01*
X98653Y-60140D01*
X98712Y-60283D01*
X98822Y-60393D01*
X98965Y-60452D01*
X99120Y-60452D01*
X99263Y-60393D01*
X99373Y-60284D01*
X99433Y-60140D01*
X99433Y-59985D01*
X99433Y-62036D01*
X99433Y-62036D01*
X99433Y-61345D01*
X99433Y-60745D01*
X99419Y-60712D01*
X99394Y-60686D01*
X99361Y-60673D01*
X99325Y-60673D01*
X98725Y-60673D01*
X98692Y-60686D01*
X98667Y-60711D01*
X98653Y-60745D01*
X98653Y-60780D01*
X98653Y-61380D01*
X98667Y-61413D01*
X98692Y-61439D01*
X98725Y-61452D01*
X98761Y-61452D01*
X99361Y-61452D01*
X99394Y-61439D01*
X99419Y-61413D01*
X99433Y-61380D01*
X99433Y-61345D01*
X99433Y-62036D01*
X99343Y-61946D01*
X99016Y-61811D01*
X98662Y-61810D01*
X98550Y-61856D01*
X98550Y-54473D01*
X98518Y-54395D01*
X98458Y-54336D01*
X98380Y-54303D01*
X98296Y-54303D01*
X98218Y-54335D01*
X98158Y-54395D01*
X98126Y-54473D01*
X98126Y-54529D01*
X98042Y-54613D01*
X98042Y-54410D01*
X98010Y-54332D01*
X97950Y-54273D01*
X97873Y-54240D01*
X97788Y-54240D01*
X97710Y-54272D01*
X97651Y-54332D01*
X97618Y-54410D01*
X97618Y-54494D01*
X97618Y-54495D01*
X97521Y-54592D01*
X97495Y-54631D01*
X97486Y-54677D01*
X97486Y-55312D01*
X96235Y-56563D01*
X96235Y-55257D01*
X96203Y-55179D01*
X96143Y-55119D01*
X96065Y-55087D01*
X96009Y-55087D01*
X96004Y-55081D01*
X95958Y-55051D01*
X95905Y-55040D01*
X95240Y-55040D01*
X95214Y-55035D01*
X94980Y-55035D01*
X94924Y-55046D01*
X94877Y-55078D01*
X94846Y-55125D01*
X94835Y-55180D01*
X94846Y-55236D01*
X94875Y-55279D01*
X94846Y-55322D01*
X94835Y-55377D01*
X94846Y-55433D01*
X94877Y-55480D01*
X94924Y-55511D01*
X94980Y-55522D01*
X95214Y-55522D01*
X95270Y-55511D01*
X95291Y-55497D01*
X95369Y-55497D01*
X95387Y-55541D01*
X95446Y-55600D01*
X95524Y-55633D01*
X95608Y-55633D01*
X95686Y-55601D01*
X95746Y-55541D01*
X95778Y-55463D01*
X95778Y-55379D01*
X95754Y-55320D01*
X95811Y-55320D01*
X95811Y-55341D01*
X95843Y-55419D01*
X95903Y-55478D01*
X95981Y-55511D01*
X96065Y-55511D01*
X96143Y-55479D01*
X96203Y-55419D01*
X96235Y-55341D01*
X96235Y-55257D01*
X96235Y-56563D01*
X96231Y-56567D01*
X96231Y-56068D01*
X96231Y-55832D01*
X96218Y-55799D01*
X96192Y-55774D01*
X96159Y-55760D01*
X96124Y-55760D01*
X95967Y-55760D01*
X95934Y-55774D01*
X95908Y-55799D01*
X95895Y-55832D01*
X95895Y-55848D01*
X95394Y-55848D01*
X95380Y-55838D01*
X95326Y-55828D01*
X95240Y-55828D01*
X95214Y-55823D01*
X94980Y-55823D01*
X94924Y-55834D01*
X94877Y-55865D01*
X94846Y-55912D01*
X94835Y-55968D01*
X94841Y-55997D01*
X94812Y-55991D01*
X94756Y-56002D01*
X94713Y-56031D01*
X94670Y-56002D01*
X94615Y-55991D01*
X94559Y-56002D01*
X94512Y-56033D01*
X94481Y-56080D01*
X94470Y-56136D01*
X94470Y-56370D01*
X94481Y-56426D01*
X94495Y-56447D01*
X94495Y-56619D01*
X94504Y-56665D01*
X94530Y-56704D01*
X94679Y-56853D01*
X94679Y-56960D01*
X94663Y-56960D01*
X94630Y-56974D01*
X94605Y-56999D01*
X94591Y-57032D01*
X94591Y-57068D01*
X94591Y-57225D01*
X94605Y-57258D01*
X94630Y-57284D01*
X94663Y-57297D01*
X94699Y-57297D01*
X94935Y-57297D01*
X94968Y-57284D01*
X94993Y-57258D01*
X95007Y-57225D01*
X95007Y-57190D01*
X95007Y-57033D01*
X94993Y-57000D01*
X94968Y-56974D01*
X94935Y-56961D01*
X94919Y-56961D01*
X94919Y-56803D01*
X94910Y-56757D01*
X94910Y-56757D01*
X94884Y-56718D01*
X94884Y-56718D01*
X94735Y-56569D01*
X94735Y-56490D01*
X94756Y-56504D01*
X94812Y-56515D01*
X94867Y-56504D01*
X94914Y-56473D01*
X94946Y-56426D01*
X94957Y-56370D01*
X94957Y-56136D01*
X94951Y-56107D01*
X94980Y-56113D01*
X95214Y-56113D01*
X95240Y-56108D01*
X95268Y-56108D01*
X95370Y-56210D01*
X95370Y-56266D01*
X95402Y-56344D01*
X95462Y-56404D01*
X95540Y-56436D01*
X95624Y-56436D01*
X95702Y-56404D01*
X95762Y-56344D01*
X95794Y-56266D01*
X95794Y-56182D01*
X95762Y-56104D01*
X95746Y-56088D01*
X95894Y-56088D01*
X95894Y-56104D01*
X95908Y-56137D01*
X95933Y-56162D01*
X95966Y-56176D01*
X96002Y-56176D01*
X96159Y-56176D01*
X96192Y-56162D01*
X96218Y-56137D01*
X96231Y-56104D01*
X96231Y-56068D01*
X96231Y-56567D01*
X94426Y-58372D01*
X94426Y-57176D01*
X94426Y-57019D01*
X94412Y-56986D01*
X94387Y-56960D01*
X94354Y-56947D01*
X94338Y-56947D01*
X94338Y-56452D01*
X94355Y-56426D01*
X94366Y-56370D01*
X94366Y-56136D01*
X94355Y-56080D01*
X94324Y-56033D01*
X94277Y-56002D01*
X94221Y-55991D01*
X94166Y-56002D01*
X94123Y-56031D01*
X94080Y-56002D01*
X94024Y-55991D01*
X93969Y-56002D01*
X93926Y-56031D01*
X93883Y-56002D01*
X93828Y-55991D01*
X93772Y-56002D01*
X93729Y-56031D01*
X93686Y-56002D01*
X93631Y-55991D01*
X93575Y-56002D01*
X93528Y-56033D01*
X93497Y-56080D01*
X93486Y-56136D01*
X93486Y-56370D01*
X93497Y-56426D01*
X93511Y-56447D01*
X93511Y-56900D01*
X93492Y-56918D01*
X93357Y-56918D01*
X93324Y-56932D01*
X93299Y-56957D01*
X93285Y-56990D01*
X93285Y-57026D01*
X93285Y-57183D01*
X93299Y-57216D01*
X93324Y-57242D01*
X93357Y-57255D01*
X93393Y-57255D01*
X93629Y-57255D01*
X93662Y-57242D01*
X93687Y-57216D01*
X93701Y-57183D01*
X93701Y-57148D01*
X93701Y-57049D01*
X93715Y-57034D01*
X93741Y-56995D01*
X93741Y-56995D01*
X93751Y-56949D01*
X93751Y-56490D01*
X93772Y-56504D01*
X93828Y-56515D01*
X93883Y-56504D01*
X93926Y-56476D01*
X93969Y-56504D01*
X94024Y-56515D01*
X94080Y-56504D01*
X94098Y-56492D01*
X94098Y-56946D01*
X94082Y-56946D01*
X94049Y-56960D01*
X94024Y-56985D01*
X94010Y-57018D01*
X94010Y-57054D01*
X94010Y-57211D01*
X94024Y-57244D01*
X94049Y-57270D01*
X94082Y-57283D01*
X94118Y-57283D01*
X94354Y-57283D01*
X94387Y-57270D01*
X94412Y-57244D01*
X94426Y-57211D01*
X94426Y-57176D01*
X94426Y-58372D01*
X93994Y-58804D01*
X93968Y-58843D01*
X93959Y-58888D01*
X93959Y-58889D01*
X93936Y-58889D01*
X93903Y-58903D01*
X93878Y-58928D01*
X93864Y-58961D01*
X93864Y-58997D01*
X93864Y-59447D01*
X93878Y-59480D01*
X93903Y-59505D01*
X93936Y-59519D01*
X93972Y-59519D01*
X94222Y-59519D01*
X94255Y-59506D01*
X94280Y-59480D01*
X94294Y-59447D01*
X94294Y-59411D01*
X94294Y-58961D01*
X94280Y-58928D01*
X94255Y-58903D01*
X94240Y-58897D01*
X95143Y-57994D01*
X95143Y-58759D01*
X95065Y-58759D01*
X95032Y-58772D01*
X95007Y-58798D01*
X94993Y-58831D01*
X94993Y-58866D01*
X94993Y-59226D01*
X95007Y-59260D01*
X95032Y-59285D01*
X95065Y-59299D01*
X95101Y-59299D01*
X95461Y-59299D01*
X95494Y-59285D01*
X95519Y-59260D01*
X95533Y-59227D01*
X95533Y-59191D01*
X95533Y-58928D01*
X95753Y-58709D01*
X95753Y-58709D01*
X95753Y-58709D01*
X95779Y-58670D01*
X95779Y-58670D01*
X95788Y-58624D01*
X95788Y-58456D01*
X95811Y-58456D01*
X95844Y-58443D01*
X95869Y-58417D01*
X95883Y-58384D01*
X95883Y-58348D01*
X95883Y-57898D01*
X95869Y-57865D01*
X95844Y-57840D01*
X95811Y-57826D01*
X95775Y-57826D01*
X95551Y-57826D01*
X95585Y-57793D01*
X96736Y-57793D01*
X96782Y-57784D01*
X96782Y-57784D01*
X96821Y-57758D01*
X97382Y-57196D01*
X97467Y-57196D01*
X97545Y-57164D01*
X97604Y-57104D01*
X97637Y-57026D01*
X97637Y-56942D01*
X97605Y-56864D01*
X97545Y-56804D01*
X97467Y-56772D01*
X97383Y-56772D01*
X97305Y-56804D01*
X97245Y-56864D01*
X97213Y-56941D01*
X97213Y-57026D01*
X97213Y-57026D01*
X96686Y-57553D01*
X95584Y-57553D01*
X97691Y-55447D01*
X97717Y-55408D01*
X97717Y-55408D01*
X97726Y-55362D01*
X97726Y-54726D01*
X97788Y-54664D01*
X97872Y-54664D01*
X97950Y-54632D01*
X98010Y-54572D01*
X98042Y-54495D01*
X98042Y-54410D01*
X98042Y-54613D01*
X97948Y-54708D01*
X97917Y-54753D01*
X97907Y-54807D01*
X97907Y-59611D01*
X97669Y-59849D01*
X97639Y-59894D01*
X97628Y-59948D01*
X97628Y-61507D01*
X97625Y-61507D01*
X97592Y-61521D01*
X97567Y-61546D01*
X97553Y-61579D01*
X97553Y-61615D01*
X97553Y-62065D01*
X97567Y-62098D01*
X97592Y-62124D01*
X97625Y-62137D01*
X97661Y-62137D01*
X97911Y-62137D01*
X97944Y-62124D01*
X97969Y-62098D01*
X97983Y-62065D01*
X97983Y-62030D01*
X97983Y-61580D01*
X97969Y-61546D01*
X97944Y-61521D01*
X97911Y-61507D01*
X97908Y-61507D01*
X97908Y-60005D01*
X98146Y-59768D01*
X98176Y-59722D01*
X98187Y-59669D01*
X98187Y-54865D01*
X98324Y-54727D01*
X98380Y-54727D01*
X98458Y-54695D01*
X98518Y-54635D01*
X98550Y-54558D01*
X98550Y-54473D01*
X98550Y-61856D01*
X98335Y-61945D01*
X98084Y-62196D01*
X97948Y-62522D01*
X97948Y-62877D01*
X98083Y-63204D01*
X98333Y-63454D01*
X98660Y-63590D01*
X99014Y-63590D01*
X99342Y-63455D01*
X99592Y-63205D01*
X99728Y-62878D01*
X99728Y-62524D01*
X99728Y-63695D01*
X97428Y-63695D01*
X97428Y-61158D01*
X97396Y-61080D01*
X97336Y-61021D01*
X97258Y-60988D01*
X97202Y-60988D01*
X96784Y-60571D01*
X96784Y-60421D01*
X96787Y-60421D01*
X96820Y-60407D01*
X96846Y-60382D01*
X96859Y-60349D01*
X96859Y-60313D01*
X96859Y-59863D01*
X96846Y-59830D01*
X96820Y-59805D01*
X96787Y-59791D01*
X96784Y-59791D01*
X96784Y-59758D01*
X96824Y-59718D01*
X96856Y-59640D01*
X96856Y-59556D01*
X96824Y-59478D01*
X96790Y-59443D01*
X96822Y-59430D01*
X96847Y-59405D01*
X96861Y-59372D01*
X96861Y-59336D01*
X96861Y-59100D01*
X96847Y-59067D01*
X96833Y-59052D01*
X96833Y-58627D01*
X96856Y-58569D01*
X96856Y-58485D01*
X96824Y-58407D01*
X96765Y-58347D01*
X96687Y-58315D01*
X96640Y-58315D01*
X96483Y-58158D01*
X96483Y-57898D01*
X96469Y-57865D01*
X96444Y-57840D01*
X96411Y-57826D01*
X96375Y-57826D01*
X96125Y-57826D01*
X96092Y-57840D01*
X96067Y-57865D01*
X96053Y-57898D01*
X96053Y-57934D01*
X96053Y-58384D01*
X96067Y-58417D01*
X96092Y-58442D01*
X96125Y-58456D01*
X96161Y-58456D01*
X96385Y-58456D01*
X96432Y-58504D01*
X96432Y-58569D01*
X96465Y-58647D01*
X96504Y-58687D01*
X96504Y-58850D01*
X96504Y-59438D01*
X96465Y-59478D01*
X96432Y-59556D01*
X96432Y-59640D01*
X96465Y-59718D01*
X96504Y-59758D01*
X96504Y-59791D01*
X96502Y-59791D01*
X96469Y-59805D01*
X96443Y-59830D01*
X96429Y-59863D01*
X96429Y-59899D01*
X96429Y-60349D01*
X96443Y-60382D01*
X96468Y-60407D01*
X96501Y-60421D01*
X96504Y-60421D01*
X96504Y-60629D01*
X96515Y-60682D01*
X96545Y-60728D01*
X97004Y-61186D01*
X97004Y-61242D01*
X97036Y-61320D01*
X97096Y-61380D01*
X97174Y-61412D01*
X97258Y-61412D01*
X97336Y-61380D01*
X97396Y-61321D01*
X97428Y-61243D01*
X97428Y-61158D01*
X97428Y-63695D01*
X97383Y-63695D01*
X97383Y-62030D01*
X97383Y-61580D01*
X97369Y-61546D01*
X97344Y-61521D01*
X97311Y-61507D01*
X97275Y-61507D01*
X97025Y-61507D01*
X96992Y-61521D01*
X96967Y-61546D01*
X96953Y-61579D01*
X96953Y-61615D01*
X96953Y-61682D01*
X96811Y-61682D01*
X96811Y-61682D01*
X96757Y-61693D01*
X96712Y-61723D01*
X96712Y-61723D01*
X96444Y-61991D01*
X96441Y-61991D01*
X96081Y-61991D01*
X96048Y-62005D01*
X96022Y-62030D01*
X96009Y-62063D01*
X96009Y-62099D01*
X96009Y-62459D01*
X96022Y-62492D01*
X96048Y-62517D01*
X96081Y-62531D01*
X96116Y-62531D01*
X96476Y-62531D01*
X96510Y-62517D01*
X96535Y-62492D01*
X96549Y-62459D01*
X96549Y-62423D01*
X96549Y-62282D01*
X96868Y-61962D01*
X96953Y-61962D01*
X96953Y-62065D01*
X96967Y-62098D01*
X96992Y-62124D01*
X97025Y-62137D01*
X97061Y-62137D01*
X97311Y-62137D01*
X97344Y-62124D01*
X97369Y-62098D01*
X97383Y-62065D01*
X97383Y-62030D01*
X97383Y-63695D01*
X96199Y-63695D01*
X96199Y-63223D01*
X96199Y-62863D01*
X96185Y-62830D01*
X96160Y-62805D01*
X96127Y-62791D01*
X96091Y-62791D01*
X95731Y-62791D01*
X95698Y-62805D01*
X95672Y-62830D01*
X95659Y-62863D01*
X95659Y-62899D01*
X95659Y-62921D01*
X95292Y-62921D01*
X95265Y-62895D01*
X95188Y-62862D01*
X95183Y-62862D01*
X95183Y-59991D01*
X95183Y-59631D01*
X95170Y-59598D01*
X95144Y-59572D01*
X95111Y-59559D01*
X95075Y-59559D01*
X94715Y-59559D01*
X94682Y-59572D01*
X94657Y-59598D01*
X94643Y-59631D01*
X94643Y-59666D01*
X94643Y-60026D01*
X94655Y-60055D01*
X94316Y-60394D01*
X94028Y-60394D01*
X93995Y-60408D01*
X93970Y-60433D01*
X93956Y-60466D01*
X93956Y-60502D01*
X93956Y-60752D01*
X93970Y-60785D01*
X93995Y-60810D01*
X94028Y-60824D01*
X94064Y-60824D01*
X94514Y-60824D01*
X94547Y-60810D01*
X94572Y-60785D01*
X94586Y-60752D01*
X94586Y-60716D01*
X94586Y-60466D01*
X94585Y-60464D01*
X94951Y-60099D01*
X95111Y-60099D01*
X95144Y-60085D01*
X95169Y-60060D01*
X95183Y-60027D01*
X95183Y-59991D01*
X95183Y-62862D01*
X95103Y-62862D01*
X95025Y-62895D01*
X94966Y-62954D01*
X94933Y-63032D01*
X94933Y-63116D01*
X94965Y-63194D01*
X95025Y-63254D01*
X95103Y-63286D01*
X95187Y-63286D01*
X95265Y-63254D01*
X95318Y-63201D01*
X95659Y-63201D01*
X95659Y-63259D01*
X95672Y-63292D01*
X95698Y-63317D01*
X95731Y-63331D01*
X95766Y-63331D01*
X96126Y-63331D01*
X96160Y-63317D01*
X96185Y-63292D01*
X96199Y-63259D01*
X96199Y-63223D01*
X96199Y-63695D01*
X94586Y-63695D01*
X94586Y-61316D01*
X94586Y-61066D01*
X94572Y-61033D01*
X94547Y-61008D01*
X94514Y-60994D01*
X94478Y-60994D01*
X94028Y-60994D01*
X93995Y-61008D01*
X93970Y-61033D01*
X93956Y-61066D01*
X93956Y-61089D01*
X93701Y-61089D01*
X93701Y-57502D01*
X93701Y-57345D01*
X93687Y-57312D01*
X93662Y-57286D01*
X93629Y-57273D01*
X93593Y-57272D01*
X93357Y-57272D01*
X93324Y-57286D01*
X93299Y-57311D01*
X93295Y-57321D01*
X93204Y-57321D01*
X93235Y-57247D01*
X93235Y-57162D01*
X93203Y-57084D01*
X93163Y-57044D01*
X93163Y-57010D01*
X93336Y-56837D01*
X93336Y-56837D01*
X93336Y-56837D01*
X93366Y-56792D01*
X93377Y-56738D01*
X93377Y-56396D01*
X93382Y-56370D01*
X93382Y-56136D01*
X93371Y-56080D01*
X93340Y-56033D01*
X93292Y-56002D01*
X93237Y-55991D01*
X93181Y-56002D01*
X93139Y-56031D01*
X93096Y-56002D01*
X93040Y-55991D01*
X92985Y-56002D01*
X92938Y-56033D01*
X92906Y-56080D01*
X92895Y-56136D01*
X92895Y-56370D01*
X92900Y-56396D01*
X92900Y-56519D01*
X92887Y-56532D01*
X92893Y-56501D01*
X92895Y-56492D01*
X92895Y-56492D01*
X92895Y-56492D01*
X92895Y-56299D01*
X92886Y-56253D01*
X92886Y-56253D01*
X92860Y-56214D01*
X92856Y-56210D01*
X92817Y-56184D01*
X92771Y-56175D01*
X92725Y-56184D01*
X92686Y-56210D01*
X92660Y-56249D01*
X92651Y-56295D01*
X92655Y-56315D01*
X92655Y-56442D01*
X91915Y-57182D01*
X91889Y-57221D01*
X91880Y-57267D01*
X91880Y-57330D01*
X91889Y-57376D01*
X91915Y-57415D01*
X92131Y-57632D01*
X92131Y-57632D01*
X92170Y-57658D01*
X92170Y-57658D01*
X92216Y-57667D01*
X92547Y-57667D01*
X92593Y-57658D01*
X92593Y-57658D01*
X92632Y-57632D01*
X92702Y-57561D01*
X93295Y-57561D01*
X93299Y-57570D01*
X93324Y-57596D01*
X93357Y-57609D01*
X93373Y-57609D01*
X93373Y-57854D01*
X93363Y-57859D01*
X93337Y-57884D01*
X93324Y-57917D01*
X93323Y-57953D01*
X93323Y-58189D01*
X93337Y-58222D01*
X93362Y-58247D01*
X93395Y-58261D01*
X93431Y-58261D01*
X93588Y-58261D01*
X93621Y-58247D01*
X93647Y-58222D01*
X93660Y-58189D01*
X93660Y-58153D01*
X93660Y-57917D01*
X93647Y-57884D01*
X93621Y-57859D01*
X93613Y-57855D01*
X93613Y-57609D01*
X93629Y-57609D01*
X93662Y-57596D01*
X93687Y-57570D01*
X93701Y-57537D01*
X93701Y-57502D01*
X93701Y-61089D01*
X93694Y-61089D01*
X93694Y-59411D01*
X93694Y-58961D01*
X93680Y-58928D01*
X93655Y-58903D01*
X93622Y-58889D01*
X93586Y-58889D01*
X93336Y-58889D01*
X93303Y-58903D01*
X93278Y-58928D01*
X93264Y-58961D01*
X93264Y-58997D01*
X93264Y-59250D01*
X92826Y-59688D01*
X92823Y-59688D01*
X92463Y-59688D01*
X92430Y-59701D01*
X92404Y-59727D01*
X92391Y-59760D01*
X92391Y-59796D01*
X92391Y-60156D01*
X92404Y-60189D01*
X92430Y-60214D01*
X92463Y-60228D01*
X92498Y-60228D01*
X92858Y-60228D01*
X92891Y-60214D01*
X92917Y-60189D01*
X92930Y-60156D01*
X92930Y-60120D01*
X92930Y-59922D01*
X93334Y-59518D01*
X93336Y-59519D01*
X93372Y-59519D01*
X93622Y-59519D01*
X93655Y-59506D01*
X93680Y-59480D01*
X93694Y-59447D01*
X93694Y-59411D01*
X93694Y-61089D01*
X93659Y-61089D01*
X93613Y-61098D01*
X93575Y-61124D01*
X93575Y-61124D01*
X93226Y-61473D01*
X92938Y-61473D01*
X92905Y-61486D01*
X92879Y-61512D01*
X92866Y-61545D01*
X92866Y-61568D01*
X92476Y-61568D01*
X92476Y-61553D01*
X92462Y-61520D01*
X92437Y-61494D01*
X92430Y-61492D01*
X92430Y-61028D01*
X92508Y-61028D01*
X92541Y-61014D01*
X92567Y-60989D01*
X92580Y-60956D01*
X92580Y-60920D01*
X92580Y-60560D01*
X92567Y-60527D01*
X92542Y-60502D01*
X92508Y-60488D01*
X92473Y-60488D01*
X92113Y-60488D01*
X92080Y-60501D01*
X92054Y-60527D01*
X92041Y-60560D01*
X92041Y-60596D01*
X92041Y-60956D01*
X92054Y-60989D01*
X92080Y-61014D01*
X92113Y-61028D01*
X92148Y-61028D01*
X92191Y-61028D01*
X92191Y-61481D01*
X91918Y-61481D01*
X91885Y-61494D01*
X91860Y-61520D01*
X91846Y-61553D01*
X91846Y-61556D01*
X91646Y-61556D01*
X91592Y-61566D01*
X91547Y-61597D01*
X91547Y-61597D01*
X90462Y-62681D01*
X90406Y-62681D01*
X90328Y-62713D01*
X90269Y-62773D01*
X90236Y-62851D01*
X90236Y-62935D01*
X90269Y-63013D01*
X90328Y-63073D01*
X90406Y-63105D01*
X90490Y-63105D01*
X90568Y-63073D01*
X90628Y-63013D01*
X90660Y-62936D01*
X90660Y-62879D01*
X91704Y-61835D01*
X91846Y-61835D01*
X91846Y-61838D01*
X91860Y-61871D01*
X91885Y-61897D01*
X91918Y-61910D01*
X91954Y-61910D01*
X92404Y-61910D01*
X92437Y-61897D01*
X92462Y-61872D01*
X92476Y-61839D01*
X92476Y-61808D01*
X92866Y-61808D01*
X92866Y-61830D01*
X92879Y-61864D01*
X92905Y-61889D01*
X92938Y-61903D01*
X92973Y-61903D01*
X93423Y-61903D01*
X93456Y-61889D01*
X93482Y-61864D01*
X93496Y-61831D01*
X93496Y-61795D01*
X93496Y-61545D01*
X93495Y-61543D01*
X93709Y-61329D01*
X93956Y-61329D01*
X93956Y-61352D01*
X93970Y-61385D01*
X93995Y-61410D01*
X94028Y-61424D01*
X94064Y-61424D01*
X94514Y-61424D01*
X94547Y-61410D01*
X94572Y-61385D01*
X94586Y-61352D01*
X94586Y-61316D01*
X94586Y-63695D01*
X82519Y-63695D01*
X82519Y-62193D01*
X82384Y-61866D01*
X82134Y-61616D01*
X81807Y-61480D01*
X81453Y-61480D01*
X81126Y-61615D01*
X80875Y-61865D01*
X80740Y-62192D01*
X80739Y-62546D01*
X80875Y-62873D01*
X81125Y-63124D01*
X81452Y-63259D01*
X81806Y-63260D01*
X82133Y-63124D01*
X82383Y-62874D01*
X82519Y-62547D01*
X82519Y-62193D01*
X82519Y-63695D01*
X80398Y-63695D01*
X80398Y-44253D01*
X97340Y-44253D01*
X97340Y-46754D01*
X98635Y-46754D01*
X98635Y-47078D01*
X97299Y-48414D01*
X97242Y-48500D01*
X97221Y-48602D01*
X97227Y-48630D01*
X97213Y-48636D01*
X97187Y-48661D01*
X97174Y-48694D01*
X97174Y-48730D01*
X97174Y-48773D01*
X97173Y-48777D01*
X97173Y-48821D01*
X97174Y-48824D01*
X97174Y-48947D01*
X97178Y-48957D01*
X97147Y-48957D01*
X97054Y-48957D01*
X97058Y-48947D01*
X97058Y-48911D01*
X97058Y-48695D01*
X97045Y-48661D01*
X97019Y-48636D01*
X96986Y-48622D01*
X96950Y-48622D01*
X96852Y-48622D01*
X96819Y-48636D01*
X96794Y-48661D01*
X96780Y-48694D01*
X96780Y-48701D01*
X96276Y-48701D01*
X96276Y-45612D01*
X96276Y-45455D01*
X96262Y-45422D01*
X96237Y-45396D01*
X96204Y-45383D01*
X96168Y-45382D01*
X95932Y-45382D01*
X95899Y-45396D01*
X95874Y-45421D01*
X95872Y-45426D01*
X95361Y-45426D01*
X94955Y-45108D01*
X94920Y-45099D01*
X94885Y-45103D01*
X94854Y-45121D01*
X94832Y-45149D01*
X94757Y-45245D01*
X94757Y-45003D01*
X94752Y-44967D01*
X94735Y-44936D01*
X94707Y-44914D01*
X94272Y-44575D01*
X94238Y-44565D01*
X94202Y-44570D01*
X94171Y-44587D01*
X94149Y-44615D01*
X93858Y-44988D01*
X93849Y-45022D01*
X93853Y-45058D01*
X93871Y-45089D01*
X93899Y-45111D01*
X94333Y-45450D01*
X94368Y-45460D01*
X94403Y-45456D01*
X94434Y-45438D01*
X94456Y-45410D01*
X94747Y-45037D01*
X94757Y-45003D01*
X94757Y-45245D01*
X94541Y-45521D01*
X94531Y-45555D01*
X94536Y-45591D01*
X94553Y-45622D01*
X94581Y-45644D01*
X95016Y-45983D01*
X95050Y-45993D01*
X95086Y-45989D01*
X95117Y-45971D01*
X95139Y-45943D01*
X95171Y-45901D01*
X95293Y-46023D01*
X95293Y-46906D01*
X95027Y-47171D01*
X95027Y-46064D01*
X95023Y-46028D01*
X95005Y-45997D01*
X94977Y-45975D01*
X94543Y-45636D01*
X94508Y-45626D01*
X94473Y-45630D01*
X94442Y-45648D01*
X94420Y-45676D01*
X94129Y-46048D01*
X94119Y-46083D01*
X94123Y-46118D01*
X94141Y-46150D01*
X94169Y-46172D01*
X94604Y-46511D01*
X94638Y-46520D01*
X94674Y-46516D01*
X94705Y-46499D01*
X94727Y-46470D01*
X95018Y-46098D01*
X95027Y-46064D01*
X95027Y-47171D01*
X94627Y-47572D01*
X94627Y-47032D01*
X94617Y-46986D01*
X94617Y-46986D01*
X94591Y-46947D01*
X94011Y-46366D01*
X94011Y-45972D01*
X94022Y-45965D01*
X94044Y-45937D01*
X94335Y-45565D01*
X94345Y-45530D01*
X94340Y-45495D01*
X94323Y-45464D01*
X94295Y-45442D01*
X93860Y-45102D01*
X93826Y-45093D01*
X93790Y-45097D01*
X93759Y-45115D01*
X93737Y-45143D01*
X93520Y-45420D01*
X92866Y-45420D01*
X92862Y-45412D01*
X92837Y-45386D01*
X92804Y-45373D01*
X92768Y-45372D01*
X92532Y-45372D01*
X92499Y-45386D01*
X92474Y-45411D01*
X92460Y-45444D01*
X92460Y-45480D01*
X92460Y-45637D01*
X92474Y-45670D01*
X92499Y-45696D01*
X92532Y-45709D01*
X92568Y-45709D01*
X92804Y-45709D01*
X92837Y-45696D01*
X92862Y-45670D01*
X92866Y-45660D01*
X93514Y-45660D01*
X93771Y-45860D01*
X93771Y-46416D01*
X93780Y-46462D01*
X93806Y-46500D01*
X94387Y-47081D01*
X94387Y-47713D01*
X94024Y-47351D01*
X94024Y-47216D01*
X94011Y-47183D01*
X93985Y-47158D01*
X93952Y-47144D01*
X93917Y-47144D01*
X93760Y-47144D01*
X93727Y-47158D01*
X93701Y-47183D01*
X93688Y-47216D01*
X93687Y-47252D01*
X93687Y-47488D01*
X93701Y-47521D01*
X93726Y-47546D01*
X93759Y-47560D01*
X93795Y-47560D01*
X93894Y-47560D01*
X94229Y-47895D01*
X94229Y-48034D01*
X94218Y-48034D01*
X94130Y-48034D01*
X94113Y-48041D01*
X94096Y-48034D01*
X94061Y-48034D01*
X93972Y-48034D01*
X93955Y-48041D01*
X93939Y-48034D01*
X93903Y-48034D01*
X93815Y-48034D01*
X93798Y-48041D01*
X93781Y-48034D01*
X93746Y-48034D01*
X93657Y-48034D01*
X93640Y-48041D01*
X93624Y-48034D01*
X93588Y-48034D01*
X93524Y-48034D01*
X93524Y-47847D01*
X93524Y-47847D01*
X93524Y-47847D01*
X93522Y-47836D01*
X93515Y-47801D01*
X93515Y-47801D01*
X93508Y-47791D01*
X93489Y-47762D01*
X93489Y-47762D01*
X91643Y-45916D01*
X91752Y-45808D01*
X91766Y-45775D01*
X91766Y-45739D01*
X91752Y-45706D01*
X91727Y-45680D01*
X91114Y-45068D01*
X91081Y-45054D01*
X91045Y-45054D01*
X91012Y-45068D01*
X90987Y-45093D01*
X90904Y-45177D01*
X90610Y-44883D01*
X90610Y-44721D01*
X90619Y-44717D01*
X90645Y-44692D01*
X90658Y-44659D01*
X90658Y-44623D01*
X90658Y-44387D01*
X90645Y-44354D01*
X90619Y-44329D01*
X90586Y-44315D01*
X90551Y-44315D01*
X90394Y-44315D01*
X90361Y-44329D01*
X90335Y-44354D01*
X90322Y-44387D01*
X90321Y-44423D01*
X90321Y-44659D01*
X90335Y-44692D01*
X90360Y-44717D01*
X90370Y-44721D01*
X90370Y-44933D01*
X90379Y-44979D01*
X90405Y-45017D01*
X90734Y-45346D01*
X90625Y-45455D01*
X90611Y-45488D01*
X90611Y-45524D01*
X90625Y-45557D01*
X90650Y-45582D01*
X91263Y-46195D01*
X91296Y-46208D01*
X91332Y-46208D01*
X91365Y-46195D01*
X91390Y-46169D01*
X91474Y-46086D01*
X92668Y-47280D01*
X92658Y-47278D01*
X90666Y-47278D01*
X90474Y-47086D01*
X90583Y-46977D01*
X90596Y-46944D01*
X90596Y-46908D01*
X90583Y-46875D01*
X90557Y-46850D01*
X89945Y-46237D01*
X89912Y-46223D01*
X89876Y-46223D01*
X89843Y-46237D01*
X89818Y-46262D01*
X89734Y-46346D01*
X89333Y-45945D01*
X89357Y-45935D01*
X89382Y-45909D01*
X89396Y-45876D01*
X89396Y-45841D01*
X89396Y-45684D01*
X89382Y-45651D01*
X89357Y-45625D01*
X89324Y-45612D01*
X89288Y-45611D01*
X89052Y-45611D01*
X89019Y-45625D01*
X88994Y-45650D01*
X88980Y-45683D01*
X88980Y-45719D01*
X88980Y-45876D01*
X88994Y-45909D01*
X89019Y-45935D01*
X89052Y-45948D01*
X89068Y-45948D01*
X89068Y-45969D01*
X89077Y-46015D01*
X89103Y-46054D01*
X89565Y-46516D01*
X89456Y-46624D01*
X89442Y-46657D01*
X89442Y-46693D01*
X89456Y-46726D01*
X89481Y-46751D01*
X90094Y-47364D01*
X90127Y-47378D01*
X90162Y-47378D01*
X90195Y-47364D01*
X90221Y-47339D01*
X90304Y-47255D01*
X90532Y-47483D01*
X90532Y-47483D01*
X90571Y-47509D01*
X90571Y-47509D01*
X90617Y-47518D01*
X92608Y-47518D01*
X93124Y-48034D01*
X93116Y-48034D01*
X93027Y-48034D01*
X93011Y-48041D01*
X92994Y-48034D01*
X92958Y-48034D01*
X92870Y-48034D01*
X92837Y-48047D01*
X92811Y-48072D01*
X92798Y-48105D01*
X92798Y-48141D01*
X92798Y-48141D01*
X92583Y-48141D01*
X92566Y-48125D01*
X92566Y-48040D01*
X92534Y-47962D01*
X92474Y-47903D01*
X92396Y-47870D01*
X92312Y-47870D01*
X92234Y-47902D01*
X92174Y-47962D01*
X92142Y-48040D01*
X92142Y-48124D01*
X92174Y-48202D01*
X92234Y-48262D01*
X92311Y-48294D01*
X92396Y-48294D01*
X92396Y-48294D01*
X92448Y-48346D01*
X92448Y-48346D01*
X92487Y-48372D01*
X92487Y-48372D01*
X92524Y-48379D01*
X92533Y-48381D01*
X92533Y-48381D01*
X92533Y-48381D01*
X92798Y-48381D01*
X92798Y-48403D01*
X92776Y-48403D01*
X92686Y-48403D01*
X92656Y-48397D01*
X92138Y-48397D01*
X92056Y-48315D01*
X92056Y-48209D01*
X92042Y-48176D01*
X92017Y-48150D01*
X91984Y-48137D01*
X91948Y-48136D01*
X91712Y-48136D01*
X91679Y-48150D01*
X91664Y-48165D01*
X91475Y-48165D01*
X91447Y-48154D01*
X91363Y-48154D01*
X91285Y-48186D01*
X91225Y-48245D01*
X91193Y-48323D01*
X91193Y-48408D01*
X91225Y-48486D01*
X91285Y-48545D01*
X91307Y-48554D01*
X91227Y-48554D01*
X91083Y-48410D01*
X91083Y-48150D01*
X91069Y-48117D01*
X91044Y-48092D01*
X91011Y-48078D01*
X90975Y-48078D01*
X90725Y-48078D01*
X90692Y-48092D01*
X90667Y-48117D01*
X90653Y-48150D01*
X90653Y-48186D01*
X90653Y-48636D01*
X90667Y-48669D01*
X90692Y-48694D01*
X90725Y-48708D01*
X90761Y-48708D01*
X90985Y-48708D01*
X91009Y-48732D01*
X90483Y-48732D01*
X90483Y-48600D01*
X90483Y-48150D01*
X90469Y-48117D01*
X90444Y-48092D01*
X90411Y-48078D01*
X90375Y-48078D01*
X90125Y-48078D01*
X90092Y-48092D01*
X90067Y-48117D01*
X90053Y-48150D01*
X90053Y-48186D01*
X90053Y-48253D01*
X89598Y-48253D01*
X89598Y-48150D01*
X89584Y-48117D01*
X89559Y-48092D01*
X89526Y-48078D01*
X89490Y-48078D01*
X89277Y-48078D01*
X89277Y-47756D01*
X89245Y-47678D01*
X89185Y-47618D01*
X89107Y-47586D01*
X89023Y-47586D01*
X88945Y-47618D01*
X88885Y-47678D01*
X88860Y-47739D01*
X88860Y-47711D01*
X88828Y-47633D01*
X88768Y-47573D01*
X88690Y-47541D01*
X88678Y-47541D01*
X88678Y-47508D01*
X88694Y-47508D01*
X88727Y-47495D01*
X88752Y-47469D01*
X88766Y-47436D01*
X88766Y-47401D01*
X88766Y-47244D01*
X88752Y-47211D01*
X88727Y-47185D01*
X88694Y-47172D01*
X88658Y-47171D01*
X88422Y-47171D01*
X88389Y-47185D01*
X88364Y-47210D01*
X88350Y-47243D01*
X88350Y-47279D01*
X88350Y-47436D01*
X88364Y-47469D01*
X88389Y-47495D01*
X88422Y-47508D01*
X88438Y-47508D01*
X88438Y-47663D01*
X88444Y-47692D01*
X88436Y-47710D01*
X88436Y-47795D01*
X88468Y-47873D01*
X88528Y-47932D01*
X88605Y-47965D01*
X88663Y-47965D01*
X88663Y-48012D01*
X88654Y-48026D01*
X88643Y-48078D01*
X88640Y-48078D01*
X88607Y-48092D01*
X88582Y-48117D01*
X88568Y-48150D01*
X88568Y-48186D01*
X88568Y-48636D01*
X88582Y-48669D01*
X88607Y-48694D01*
X88640Y-48708D01*
X88676Y-48708D01*
X88926Y-48708D01*
X88959Y-48694D01*
X88984Y-48669D01*
X88998Y-48636D01*
X88998Y-48600D01*
X88998Y-48150D01*
X88984Y-48117D01*
X88964Y-48097D01*
X89051Y-48010D01*
X89107Y-48010D01*
X89185Y-47978D01*
X89245Y-47918D01*
X89277Y-47840D01*
X89277Y-47756D01*
X89277Y-48078D01*
X89240Y-48078D01*
X89207Y-48092D01*
X89182Y-48117D01*
X89168Y-48150D01*
X89168Y-48186D01*
X89168Y-48636D01*
X89182Y-48669D01*
X89207Y-48694D01*
X89240Y-48708D01*
X89276Y-48708D01*
X89526Y-48708D01*
X89559Y-48694D01*
X89584Y-48669D01*
X89598Y-48636D01*
X89598Y-48600D01*
X89598Y-48533D01*
X90053Y-48533D01*
X90053Y-48636D01*
X90067Y-48669D01*
X90092Y-48694D01*
X90125Y-48708D01*
X90161Y-48708D01*
X90411Y-48708D01*
X90444Y-48694D01*
X90469Y-48669D01*
X90483Y-48636D01*
X90483Y-48600D01*
X90483Y-48732D01*
X87936Y-48732D01*
X87936Y-48320D01*
X87904Y-48242D01*
X87844Y-48182D01*
X87766Y-48150D01*
X87710Y-48150D01*
X87595Y-48035D01*
X87550Y-48005D01*
X87496Y-47994D01*
X87480Y-47994D01*
X87480Y-47816D01*
X87480Y-45416D01*
X87480Y-44816D01*
X87466Y-44783D01*
X87441Y-44758D01*
X87408Y-44744D01*
X87372Y-44744D01*
X87072Y-44744D01*
X87039Y-44758D01*
X87014Y-44783D01*
X87000Y-44816D01*
X87000Y-44852D01*
X87000Y-45452D01*
X87014Y-45485D01*
X87039Y-45510D01*
X87072Y-45524D01*
X87108Y-45524D01*
X87408Y-45524D01*
X87441Y-45510D01*
X87466Y-45485D01*
X87480Y-45452D01*
X87480Y-45416D01*
X87480Y-47816D01*
X87466Y-47783D01*
X87441Y-47758D01*
X87408Y-47744D01*
X87372Y-47744D01*
X87072Y-47744D01*
X87039Y-47758D01*
X87014Y-47783D01*
X87000Y-47816D01*
X87000Y-47852D01*
X87000Y-48452D01*
X87014Y-48485D01*
X87039Y-48510D01*
X87072Y-48524D01*
X87108Y-48524D01*
X87408Y-48524D01*
X87441Y-48510D01*
X87466Y-48485D01*
X87480Y-48452D01*
X87480Y-48416D01*
X87480Y-48316D01*
X87512Y-48348D01*
X87512Y-48404D01*
X87544Y-48482D01*
X87604Y-48541D01*
X87682Y-48574D01*
X87766Y-48574D01*
X87844Y-48542D01*
X87904Y-48482D01*
X87936Y-48404D01*
X87936Y-48320D01*
X87936Y-48732D01*
X87019Y-48732D01*
X86860Y-48572D01*
X86860Y-48524D01*
X86908Y-48524D01*
X86941Y-48510D01*
X86966Y-48485D01*
X86980Y-48452D01*
X86980Y-48416D01*
X86980Y-47816D01*
X86980Y-45416D01*
X86980Y-44816D01*
X86966Y-44783D01*
X86941Y-44758D01*
X86908Y-44744D01*
X86872Y-44744D01*
X86572Y-44744D01*
X86539Y-44758D01*
X86514Y-44783D01*
X86500Y-44816D01*
X86500Y-44852D01*
X86500Y-45452D01*
X86514Y-45485D01*
X86539Y-45510D01*
X86572Y-45524D01*
X86608Y-45524D01*
X86908Y-45524D01*
X86941Y-45510D01*
X86966Y-45485D01*
X86980Y-45452D01*
X86980Y-45416D01*
X86980Y-47816D01*
X86966Y-47783D01*
X86941Y-47758D01*
X86908Y-47744D01*
X86872Y-47744D01*
X86572Y-47744D01*
X86539Y-47758D01*
X86514Y-47783D01*
X86500Y-47816D01*
X86500Y-47852D01*
X86500Y-48452D01*
X86514Y-48485D01*
X86539Y-48510D01*
X86572Y-48524D01*
X86608Y-48524D01*
X86620Y-48524D01*
X86620Y-48622D01*
X86629Y-48668D01*
X86655Y-48707D01*
X86838Y-48889D01*
X86677Y-48889D01*
X86360Y-48572D01*
X86360Y-48524D01*
X86408Y-48524D01*
X86441Y-48510D01*
X86466Y-48485D01*
X86480Y-48452D01*
X86480Y-48416D01*
X86480Y-47816D01*
X86480Y-45416D01*
X86480Y-44816D01*
X86466Y-44783D01*
X86441Y-44758D01*
X86408Y-44744D01*
X86372Y-44744D01*
X86072Y-44744D01*
X86039Y-44758D01*
X86014Y-44783D01*
X86000Y-44816D01*
X86000Y-44852D01*
X86000Y-45452D01*
X86014Y-45485D01*
X86039Y-45510D01*
X86072Y-45524D01*
X86108Y-45524D01*
X86408Y-45524D01*
X86441Y-45510D01*
X86466Y-45485D01*
X86480Y-45452D01*
X86480Y-45416D01*
X86480Y-47816D01*
X86466Y-47783D01*
X86441Y-47758D01*
X86408Y-47744D01*
X86372Y-47744D01*
X86072Y-47744D01*
X86039Y-47758D01*
X86014Y-47783D01*
X86000Y-47816D01*
X86000Y-47852D01*
X86000Y-48452D01*
X86014Y-48485D01*
X86039Y-48510D01*
X86072Y-48524D01*
X86108Y-48524D01*
X86120Y-48524D01*
X86120Y-48622D01*
X86129Y-48668D01*
X86155Y-48707D01*
X86495Y-49047D01*
X86345Y-49047D01*
X85860Y-48561D01*
X85860Y-48524D01*
X85908Y-48524D01*
X85941Y-48510D01*
X85966Y-48485D01*
X85980Y-48452D01*
X85980Y-48416D01*
X85980Y-47816D01*
X85966Y-47783D01*
X85941Y-47758D01*
X85908Y-47744D01*
X85872Y-47744D01*
X85572Y-47744D01*
X85539Y-47758D01*
X85514Y-47783D01*
X85500Y-47816D01*
X85500Y-47852D01*
X85500Y-48452D01*
X85514Y-48485D01*
X85539Y-48510D01*
X85572Y-48524D01*
X85608Y-48524D01*
X85620Y-48524D01*
X85620Y-48611D01*
X85629Y-48657D01*
X85655Y-48696D01*
X86211Y-49252D01*
X86250Y-49277D01*
X86250Y-49277D01*
X86296Y-49287D01*
X90322Y-49287D01*
X89380Y-50228D01*
X89354Y-50267D01*
X89345Y-50313D01*
X89345Y-51124D01*
X89211Y-51258D01*
X89157Y-51258D01*
X89141Y-51242D01*
X89108Y-51228D01*
X89072Y-51228D01*
X88752Y-51228D01*
X88719Y-51242D01*
X88694Y-51267D01*
X88680Y-51300D01*
X88680Y-51336D01*
X88680Y-51456D01*
X88694Y-51489D01*
X88719Y-51514D01*
X88752Y-51528D01*
X88788Y-51528D01*
X89108Y-51528D01*
X89141Y-51514D01*
X89157Y-51498D01*
X89261Y-51498D01*
X89307Y-51489D01*
X89307Y-51489D01*
X89346Y-51463D01*
X89550Y-51259D01*
X89550Y-51259D01*
X89550Y-51259D01*
X89569Y-51231D01*
X89569Y-51613D01*
X89437Y-51652D01*
X89157Y-51652D01*
X89141Y-51635D01*
X89108Y-51622D01*
X89072Y-51622D01*
X88752Y-51622D01*
X88719Y-51635D01*
X88718Y-51636D01*
X88703Y-51630D01*
X88667Y-51630D01*
X88547Y-51630D01*
X88526Y-51638D01*
X88506Y-51630D01*
X88470Y-51630D01*
X88350Y-51630D01*
X88329Y-51638D01*
X88309Y-51630D01*
X88273Y-51630D01*
X88176Y-51630D01*
X88176Y-51617D01*
X88176Y-51497D01*
X88167Y-51476D01*
X88176Y-51456D01*
X88176Y-51420D01*
X88176Y-51300D01*
X88167Y-51279D01*
X88176Y-51259D01*
X88176Y-51223D01*
X88176Y-51126D01*
X88189Y-51126D01*
X88309Y-51126D01*
X88330Y-51117D01*
X88350Y-51126D01*
X88386Y-51126D01*
X88506Y-51126D01*
X88526Y-51117D01*
X88547Y-51126D01*
X88583Y-51126D01*
X88703Y-51126D01*
X88718Y-51120D01*
X88719Y-51120D01*
X88752Y-51134D01*
X88788Y-51134D01*
X89108Y-51134D01*
X89141Y-51121D01*
X89166Y-51095D01*
X89180Y-51062D01*
X89180Y-51026D01*
X89180Y-50906D01*
X89166Y-50873D01*
X89141Y-50848D01*
X89108Y-50834D01*
X89072Y-50834D01*
X88775Y-50834D01*
X88775Y-50698D01*
X88765Y-50674D01*
X88765Y-50593D01*
X88765Y-50593D01*
X88765Y-50143D01*
X88786Y-50122D01*
X88799Y-50089D01*
X88799Y-50053D01*
X88799Y-49817D01*
X88786Y-49784D01*
X88760Y-49759D01*
X88727Y-49745D01*
X88692Y-49745D01*
X88535Y-49745D01*
X88502Y-49759D01*
X88476Y-49784D01*
X88464Y-49813D01*
X88320Y-49813D01*
X88266Y-49733D01*
X88165Y-49665D01*
X88046Y-49642D01*
X87927Y-49665D01*
X87826Y-49733D01*
X87746Y-49813D01*
X87668Y-49813D01*
X87652Y-49813D01*
X87652Y-49761D01*
X87620Y-49683D01*
X87561Y-49623D01*
X87483Y-49591D01*
X87398Y-49591D01*
X87321Y-49623D01*
X87261Y-49682D01*
X87229Y-49760D01*
X87228Y-49845D01*
X87261Y-49923D01*
X87301Y-49963D01*
X87301Y-50021D01*
X87269Y-50053D01*
X87236Y-50130D01*
X87236Y-50215D01*
X87268Y-50291D01*
X87228Y-50331D01*
X87161Y-50432D01*
X87137Y-50551D01*
X87156Y-50645D01*
X87026Y-50775D01*
X86889Y-50775D01*
X86856Y-50789D01*
X86830Y-50814D01*
X86817Y-50847D01*
X86816Y-50883D01*
X86816Y-51119D01*
X86830Y-51152D01*
X86855Y-51177D01*
X86888Y-51191D01*
X86924Y-51191D01*
X87081Y-51191D01*
X87114Y-51177D01*
X87140Y-51152D01*
X87151Y-51124D01*
X87242Y-51124D01*
X86918Y-51447D01*
X86812Y-51447D01*
X86779Y-51461D01*
X86754Y-51486D01*
X86740Y-51519D01*
X86740Y-51555D01*
X86740Y-51712D01*
X86754Y-51745D01*
X86779Y-51771D01*
X86812Y-51784D01*
X86848Y-51784D01*
X87084Y-51784D01*
X87117Y-51771D01*
X87142Y-51745D01*
X87156Y-51712D01*
X87156Y-51677D01*
X87156Y-51606D01*
X87441Y-51321D01*
X87676Y-51321D01*
X87676Y-51336D01*
X87676Y-51455D01*
X87601Y-51455D01*
X87601Y-51455D01*
X87592Y-51457D01*
X87555Y-51464D01*
X87517Y-51490D01*
X87517Y-51490D01*
X87502Y-51504D01*
X87418Y-51504D01*
X87340Y-51536D01*
X87281Y-51596D01*
X87248Y-51674D01*
X87248Y-51758D01*
X87280Y-51836D01*
X87340Y-51896D01*
X87418Y-51928D01*
X87502Y-51928D01*
X87580Y-51896D01*
X87640Y-51836D01*
X87672Y-51758D01*
X87672Y-51695D01*
X87699Y-51695D01*
X87715Y-51711D01*
X87748Y-51725D01*
X87784Y-51725D01*
X88081Y-51725D01*
X88081Y-51738D01*
X88081Y-52058D01*
X88095Y-52091D01*
X88111Y-52107D01*
X88111Y-52111D01*
X88065Y-52064D01*
X87987Y-52032D01*
X87902Y-52032D01*
X87824Y-52064D01*
X87765Y-52123D01*
X87732Y-52201D01*
X87732Y-52286D01*
X87765Y-52364D01*
X87813Y-52412D01*
X87788Y-52407D01*
X87669Y-52431D01*
X87629Y-52458D01*
X87568Y-52498D01*
X87568Y-52498D01*
X87567Y-52500D01*
X87499Y-52601D01*
X87476Y-52720D01*
X87483Y-52760D01*
X87483Y-53272D01*
X87474Y-53272D01*
X87238Y-53272D01*
X87205Y-53286D01*
X87190Y-53300D01*
X86986Y-53300D01*
X86269Y-52583D01*
X86269Y-51661D01*
X86259Y-51607D01*
X86228Y-51562D01*
X86228Y-51562D01*
X85890Y-51224D01*
X85845Y-51193D01*
X85791Y-51183D01*
X85583Y-51183D01*
X85583Y-51125D01*
X85569Y-51092D01*
X85544Y-51067D01*
X85511Y-51053D01*
X85475Y-51053D01*
X85115Y-51053D01*
X85082Y-51066D01*
X85057Y-51092D01*
X85043Y-51125D01*
X85043Y-51161D01*
X85043Y-51521D01*
X85057Y-51554D01*
X85082Y-51579D01*
X85115Y-51593D01*
X85151Y-51593D01*
X85511Y-51593D01*
X85544Y-51579D01*
X85569Y-51554D01*
X85583Y-51521D01*
X85583Y-51485D01*
X85583Y-51463D01*
X85733Y-51463D01*
X85990Y-51719D01*
X85990Y-52641D01*
X86000Y-52695D01*
X86030Y-52740D01*
X86830Y-53539D01*
X86830Y-53539D01*
X86875Y-53570D01*
X86928Y-53580D01*
X87190Y-53580D01*
X87205Y-53595D01*
X87238Y-53609D01*
X87273Y-53609D01*
X87281Y-53609D01*
X87281Y-53653D01*
X87209Y-53606D01*
X87090Y-53582D01*
X86971Y-53606D01*
X86870Y-53673D01*
X86802Y-53774D01*
X86779Y-53893D01*
X86802Y-54012D01*
X86870Y-54113D01*
X86964Y-54208D01*
X87065Y-54275D01*
X87065Y-54275D01*
X87159Y-54294D01*
X84783Y-54294D01*
X84783Y-51835D01*
X84783Y-51475D01*
X84769Y-51442D01*
X84744Y-51417D01*
X84711Y-51403D01*
X84680Y-51403D01*
X84680Y-48852D01*
X84680Y-48340D01*
X84666Y-48307D01*
X84641Y-48282D01*
X84608Y-48268D01*
X84572Y-48268D01*
X84405Y-48268D01*
X84405Y-48224D01*
X84446Y-48207D01*
X84506Y-48147D01*
X84538Y-48069D01*
X84538Y-47985D01*
X84506Y-47907D01*
X84446Y-47847D01*
X84369Y-47815D01*
X84284Y-47815D01*
X84206Y-47847D01*
X84147Y-47907D01*
X84114Y-47985D01*
X84114Y-48069D01*
X84146Y-48147D01*
X84165Y-48166D01*
X84165Y-48268D01*
X83962Y-48268D01*
X83929Y-48281D01*
X83904Y-48307D01*
X83890Y-48340D01*
X83890Y-48376D01*
X83890Y-48494D01*
X83870Y-48494D01*
X83870Y-45933D01*
X83735Y-45606D01*
X83485Y-45356D01*
X83158Y-45220D01*
X82804Y-45220D01*
X82476Y-45355D01*
X82226Y-45605D01*
X82090Y-45932D01*
X82090Y-46286D01*
X82225Y-46613D01*
X82475Y-46864D01*
X82802Y-47000D01*
X83156Y-47000D01*
X83483Y-46865D01*
X83734Y-46614D01*
X83870Y-46288D01*
X83870Y-45933D01*
X83870Y-48494D01*
X81550Y-48494D01*
X81550Y-48340D01*
X81536Y-48307D01*
X81511Y-48282D01*
X81478Y-48268D01*
X81442Y-48268D01*
X80832Y-48268D01*
X80799Y-48281D01*
X80774Y-48307D01*
X80760Y-48340D01*
X80760Y-48376D01*
X80760Y-48887D01*
X80774Y-48920D01*
X80799Y-48946D01*
X80832Y-48959D01*
X80868Y-48960D01*
X81478Y-48960D01*
X81511Y-48946D01*
X81536Y-48921D01*
X81550Y-48888D01*
X81550Y-48852D01*
X81550Y-48734D01*
X83890Y-48734D01*
X83890Y-48887D01*
X83904Y-48920D01*
X83929Y-48946D01*
X83962Y-48959D01*
X83998Y-48960D01*
X84608Y-48960D01*
X84641Y-48946D01*
X84666Y-48921D01*
X84680Y-48888D01*
X84680Y-48852D01*
X84680Y-51403D01*
X84675Y-51403D01*
X84315Y-51403D01*
X84282Y-51416D01*
X84257Y-51442D01*
X84243Y-51475D01*
X84243Y-51511D01*
X84243Y-51533D01*
X82968Y-51533D01*
X82968Y-51355D01*
X82955Y-51322D01*
X82929Y-51297D01*
X82896Y-51283D01*
X82860Y-51283D01*
X82260Y-51283D01*
X82227Y-51296D01*
X82202Y-51322D01*
X82188Y-51355D01*
X82188Y-51391D01*
X82188Y-51991D01*
X82202Y-52024D01*
X82227Y-52049D01*
X82260Y-52063D01*
X82296Y-52063D01*
X82896Y-52063D01*
X82929Y-52049D01*
X82954Y-52024D01*
X82968Y-51991D01*
X82968Y-51955D01*
X82968Y-51813D01*
X84243Y-51813D01*
X84243Y-51871D01*
X84257Y-51904D01*
X84282Y-51929D01*
X84315Y-51943D01*
X84351Y-51943D01*
X84711Y-51943D01*
X84744Y-51929D01*
X84769Y-51904D01*
X84783Y-51871D01*
X84783Y-51835D01*
X84783Y-54294D01*
X83582Y-54294D01*
X82286Y-52998D01*
X82253Y-52984D01*
X82218Y-52984D01*
X82184Y-52998D01*
X82159Y-53023D01*
X80628Y-54554D01*
X80614Y-54587D01*
X80614Y-54623D01*
X80628Y-54656D01*
X80653Y-54682D01*
X82184Y-56213D01*
X82217Y-56226D01*
X82253Y-56226D01*
X82286Y-56213D01*
X82312Y-56188D01*
X83582Y-54917D01*
X87374Y-54917D01*
X87431Y-54974D01*
X87431Y-54974D01*
X87532Y-55042D01*
X87532Y-55042D01*
X87628Y-55060D01*
X87651Y-55065D01*
X87651Y-55065D01*
X87651Y-55065D01*
X88168Y-55065D01*
X88168Y-56968D01*
X88192Y-57087D01*
X88260Y-57188D01*
X89051Y-57979D01*
X89051Y-60385D01*
X87755Y-61681D01*
X87741Y-61714D01*
X87741Y-61750D01*
X87755Y-61783D01*
X87780Y-61808D01*
X89311Y-63339D01*
X89344Y-63353D01*
X89380Y-63353D01*
X89413Y-63340D01*
X89438Y-63314D01*
X90969Y-61783D01*
X90983Y-61750D01*
X90983Y-61714D01*
X90969Y-61681D01*
X90944Y-61656D01*
X90733Y-61445D01*
X90733Y-60447D01*
X90733Y-59997D01*
X90720Y-59964D01*
X90694Y-59938D01*
X90661Y-59925D01*
X90626Y-59925D01*
X90376Y-59925D01*
X90343Y-59938D01*
X90317Y-59964D01*
X90303Y-59997D01*
X90303Y-60032D01*
X90303Y-60100D01*
X90148Y-60100D01*
X90120Y-60072D01*
X90042Y-60040D01*
X89958Y-60039D01*
X89880Y-60072D01*
X89820Y-60131D01*
X89788Y-60209D01*
X89787Y-60293D01*
X89820Y-60371D01*
X89879Y-60431D01*
X89957Y-60463D01*
X90041Y-60463D01*
X90119Y-60431D01*
X90171Y-60380D01*
X90303Y-60380D01*
X90303Y-60482D01*
X90317Y-60516D01*
X90342Y-60541D01*
X90375Y-60555D01*
X90411Y-60555D01*
X90661Y-60555D01*
X90694Y-60541D01*
X90720Y-60516D01*
X90733Y-60483D01*
X90733Y-60447D01*
X90733Y-61445D01*
X89673Y-60385D01*
X89673Y-57850D01*
X89673Y-57850D01*
X89673Y-57850D01*
X89669Y-57830D01*
X91067Y-59228D01*
X91168Y-59295D01*
X91201Y-59302D01*
X91162Y-59340D01*
X91130Y-59418D01*
X91130Y-59474D01*
X91019Y-59585D01*
X90989Y-59630D01*
X90978Y-59684D01*
X90978Y-59925D01*
X90976Y-59925D01*
X90943Y-59938D01*
X90917Y-59964D01*
X90903Y-59997D01*
X90903Y-60032D01*
X90903Y-60482D01*
X90917Y-60516D01*
X90942Y-60541D01*
X90975Y-60555D01*
X91011Y-60555D01*
X91261Y-60555D01*
X91294Y-60541D01*
X91320Y-60516D01*
X91333Y-60483D01*
X91333Y-60447D01*
X91333Y-60223D01*
X91458Y-60098D01*
X91691Y-60098D01*
X91691Y-60156D01*
X91704Y-60189D01*
X91730Y-60214D01*
X91763Y-60228D01*
X91798Y-60228D01*
X92158Y-60228D01*
X92191Y-60214D01*
X92217Y-60189D01*
X92230Y-60156D01*
X92230Y-60120D01*
X92230Y-59760D01*
X92217Y-59727D01*
X92192Y-59702D01*
X92158Y-59688D01*
X92123Y-59688D01*
X92045Y-59688D01*
X92045Y-59298D01*
X92148Y-59298D01*
X92181Y-59284D01*
X92206Y-59259D01*
X92220Y-59226D01*
X92220Y-59223D01*
X92443Y-59223D01*
X92497Y-59212D01*
X92542Y-59182D01*
X92580Y-59144D01*
X92686Y-59144D01*
X92720Y-59130D01*
X92745Y-59105D01*
X92759Y-59072D01*
X92759Y-59036D01*
X92759Y-58879D01*
X92745Y-58846D01*
X92720Y-58821D01*
X92687Y-58807D01*
X92651Y-58807D01*
X92415Y-58807D01*
X92382Y-58821D01*
X92356Y-58846D01*
X92343Y-58879D01*
X92343Y-58915D01*
X92343Y-58943D01*
X92220Y-58943D01*
X92220Y-58940D01*
X92206Y-58907D01*
X92181Y-58882D01*
X92148Y-58868D01*
X92112Y-58868D01*
X91662Y-58868D01*
X91629Y-58882D01*
X91604Y-58907D01*
X91590Y-58940D01*
X91590Y-58966D01*
X91575Y-58888D01*
X91507Y-58787D01*
X90004Y-57284D01*
X90004Y-56346D01*
X90021Y-56353D01*
X90057Y-56353D01*
X90391Y-56353D01*
X90391Y-56507D01*
X90401Y-56553D01*
X90427Y-56592D01*
X90860Y-57025D01*
X90860Y-57025D01*
X90899Y-57051D01*
X90899Y-57051D01*
X90935Y-57059D01*
X90945Y-57061D01*
X90945Y-57061D01*
X90945Y-57061D01*
X91002Y-57061D01*
X91006Y-57070D01*
X91031Y-57095D01*
X91064Y-57109D01*
X91100Y-57109D01*
X91336Y-57109D01*
X91369Y-57095D01*
X91394Y-57070D01*
X91408Y-57037D01*
X91408Y-57001D01*
X91408Y-56844D01*
X91395Y-56811D01*
X91369Y-56786D01*
X91336Y-56772D01*
X91300Y-56772D01*
X91064Y-56772D01*
X91031Y-56786D01*
X91006Y-56811D01*
X91002Y-56821D01*
X90994Y-56821D01*
X90631Y-56458D01*
X90631Y-56353D01*
X91002Y-56353D01*
X91035Y-56340D01*
X91060Y-56314D01*
X91074Y-56281D01*
X91074Y-56245D01*
X91074Y-56008D01*
X91242Y-55840D01*
X91269Y-55903D01*
X91328Y-55963D01*
X91406Y-55995D01*
X91490Y-55995D01*
X91568Y-55963D01*
X91610Y-55921D01*
X91624Y-55921D01*
X91639Y-55936D01*
X91672Y-55949D01*
X91708Y-55949D01*
X91944Y-55949D01*
X91977Y-55936D01*
X92002Y-55910D01*
X92006Y-55901D01*
X92576Y-55901D01*
X92582Y-55905D01*
X92637Y-55916D01*
X92872Y-55916D01*
X92927Y-55905D01*
X92974Y-55873D01*
X93006Y-55826D01*
X93017Y-55771D01*
X93006Y-55715D01*
X92977Y-55672D01*
X93006Y-55630D01*
X93017Y-55574D01*
X93006Y-55519D01*
X92977Y-55476D01*
X93006Y-55433D01*
X93017Y-55377D01*
X93006Y-55322D01*
X92974Y-55275D01*
X92927Y-55243D01*
X92872Y-55232D01*
X92637Y-55232D01*
X92582Y-55243D01*
X92561Y-55257D01*
X92206Y-55257D01*
X91765Y-54816D01*
X91828Y-54790D01*
X91888Y-54730D01*
X91888Y-54730D01*
X91921Y-54730D01*
X92504Y-54730D01*
X92503Y-54731D01*
X92492Y-54787D01*
X92503Y-54842D01*
X92532Y-54885D01*
X92503Y-54928D01*
X92492Y-54984D01*
X92503Y-55039D01*
X92535Y-55086D01*
X92582Y-55117D01*
X92637Y-55129D01*
X92872Y-55129D01*
X92927Y-55117D01*
X92974Y-55086D01*
X93006Y-55039D01*
X93017Y-54984D01*
X93006Y-54928D01*
X92977Y-54885D01*
X93006Y-54842D01*
X93017Y-54787D01*
X93006Y-54731D01*
X92977Y-54688D01*
X93006Y-54645D01*
X93017Y-54590D01*
X93006Y-54534D01*
X92974Y-54487D01*
X92927Y-54456D01*
X92872Y-54445D01*
X92637Y-54445D01*
X92612Y-54450D01*
X91921Y-54450D01*
X91848Y-54450D01*
X91828Y-54430D01*
X91775Y-54408D01*
X90970Y-53603D01*
X90970Y-53118D01*
X90959Y-53064D01*
X90929Y-53019D01*
X90929Y-53019D01*
X90861Y-52950D01*
X91523Y-52950D01*
X91577Y-52940D01*
X91622Y-52909D01*
X92303Y-52228D01*
X92303Y-52228D01*
X92303Y-52228D01*
X92333Y-52183D01*
X92344Y-52129D01*
X92344Y-50420D01*
X92375Y-50389D01*
X92467Y-50389D01*
X92467Y-50389D01*
X92500Y-50403D01*
X92536Y-50403D01*
X92812Y-50403D01*
X92845Y-50390D01*
X92870Y-50364D01*
X92884Y-50331D01*
X92884Y-50296D01*
X92884Y-50207D01*
X92877Y-50190D01*
X92884Y-50174D01*
X92884Y-50138D01*
X92884Y-50050D01*
X92877Y-50033D01*
X92884Y-50016D01*
X92884Y-49981D01*
X92884Y-49892D01*
X92877Y-49875D01*
X92884Y-49859D01*
X92884Y-49823D01*
X92884Y-49735D01*
X92877Y-49718D01*
X92884Y-49701D01*
X92884Y-49666D01*
X92884Y-49577D01*
X92877Y-49560D01*
X92884Y-49544D01*
X92884Y-49508D01*
X92884Y-49420D01*
X92877Y-49403D01*
X92884Y-49386D01*
X92884Y-49351D01*
X92884Y-49262D01*
X92877Y-49245D01*
X92884Y-49229D01*
X92884Y-49193D01*
X92884Y-49105D01*
X92877Y-49088D01*
X92884Y-49071D01*
X92884Y-49036D01*
X92884Y-48947D01*
X92877Y-48930D01*
X92884Y-48914D01*
X92884Y-48878D01*
X92884Y-48790D01*
X92877Y-48773D01*
X92884Y-48756D01*
X92884Y-48721D01*
X92884Y-48632D01*
X92877Y-48616D01*
X92884Y-48599D01*
X92884Y-48563D01*
X92884Y-48489D01*
X92905Y-48489D01*
X92994Y-48489D01*
X93011Y-48482D01*
X93027Y-48489D01*
X93063Y-48489D01*
X93151Y-48489D01*
X93168Y-48482D01*
X93185Y-48489D01*
X93220Y-48489D01*
X93309Y-48489D01*
X93325Y-48482D01*
X93342Y-48489D01*
X93378Y-48489D01*
X93466Y-48489D01*
X93483Y-48482D01*
X93499Y-48489D01*
X93535Y-48489D01*
X93624Y-48489D01*
X93640Y-48482D01*
X93657Y-48489D01*
X93693Y-48489D01*
X93781Y-48489D01*
X93798Y-48482D01*
X93814Y-48489D01*
X93850Y-48489D01*
X93939Y-48489D01*
X93955Y-48482D01*
X93972Y-48489D01*
X94008Y-48489D01*
X94096Y-48489D01*
X94113Y-48482D01*
X94129Y-48489D01*
X94165Y-48489D01*
X94254Y-48489D01*
X94270Y-48482D01*
X94287Y-48489D01*
X94323Y-48489D01*
X94411Y-48489D01*
X94428Y-48482D01*
X94444Y-48489D01*
X94480Y-48489D01*
X94569Y-48489D01*
X94585Y-48482D01*
X94602Y-48489D01*
X94638Y-48489D01*
X94712Y-48489D01*
X94712Y-48510D01*
X94712Y-48599D01*
X94719Y-48616D01*
X94712Y-48632D01*
X94712Y-48668D01*
X94712Y-48756D01*
X94726Y-48789D01*
X94751Y-48815D01*
X94784Y-48828D01*
X94820Y-48828D01*
X95095Y-48828D01*
X95128Y-48815D01*
X95154Y-48789D01*
X95167Y-48756D01*
X95167Y-48721D01*
X95167Y-48657D01*
X95646Y-48657D01*
X95692Y-48648D01*
X95692Y-48648D01*
X95731Y-48622D01*
X95850Y-48502D01*
X95985Y-48502D01*
X96018Y-48489D01*
X96043Y-48463D01*
X96057Y-48430D01*
X96057Y-48395D01*
X96057Y-48238D01*
X96043Y-48205D01*
X96018Y-48179D01*
X95985Y-48166D01*
X95949Y-48165D01*
X95713Y-48165D01*
X95680Y-48179D01*
X95655Y-48204D01*
X95641Y-48237D01*
X95641Y-48273D01*
X95641Y-48372D01*
X95596Y-48417D01*
X95129Y-48417D01*
X95128Y-48416D01*
X95095Y-48403D01*
X95080Y-48403D01*
X95080Y-48160D01*
X95120Y-48120D01*
X95152Y-48042D01*
X95152Y-47958D01*
X95120Y-47880D01*
X95060Y-47820D01*
X94982Y-47788D01*
X94898Y-47788D01*
X94820Y-47820D01*
X94784Y-47856D01*
X94784Y-47754D01*
X95498Y-47040D01*
X95498Y-47040D01*
X95498Y-47040D01*
X95524Y-47001D01*
X95524Y-47001D01*
X95533Y-46955D01*
X95533Y-45974D01*
X95524Y-45928D01*
X95524Y-45928D01*
X95498Y-45889D01*
X95498Y-45889D01*
X95320Y-45711D01*
X95355Y-45666D01*
X95868Y-45666D01*
X95874Y-45680D01*
X95899Y-45706D01*
X95932Y-45719D01*
X95968Y-45719D01*
X96204Y-45719D01*
X96237Y-45706D01*
X96262Y-45680D01*
X96276Y-45647D01*
X96276Y-45612D01*
X96276Y-48701D01*
X96225Y-48701D01*
X96179Y-48710D01*
X96140Y-48736D01*
X95829Y-49047D01*
X95129Y-49047D01*
X95128Y-49046D01*
X95095Y-49033D01*
X95060Y-49033D01*
X94784Y-49033D01*
X94751Y-49046D01*
X94726Y-49072D01*
X94712Y-49104D01*
X94712Y-49140D01*
X94712Y-49229D01*
X94719Y-49245D01*
X94712Y-49262D01*
X94712Y-49298D01*
X94712Y-49386D01*
X94719Y-49403D01*
X94712Y-49419D01*
X94712Y-49455D01*
X94712Y-49544D01*
X94719Y-49560D01*
X94712Y-49577D01*
X94712Y-49613D01*
X94712Y-49701D01*
X94719Y-49718D01*
X94712Y-49734D01*
X94712Y-49770D01*
X94712Y-49859D01*
X94719Y-49875D01*
X94712Y-49892D01*
X94712Y-49928D01*
X94712Y-50016D01*
X94719Y-50033D01*
X94712Y-50049D01*
X94712Y-50085D01*
X94712Y-50174D01*
X94719Y-50190D01*
X94712Y-50207D01*
X94712Y-50243D01*
X94712Y-50317D01*
X94691Y-50317D01*
X94602Y-50317D01*
X94585Y-50324D01*
X94569Y-50317D01*
X94533Y-50317D01*
X94445Y-50317D01*
X94428Y-50324D01*
X94411Y-50317D01*
X94376Y-50317D01*
X94287Y-50317D01*
X94270Y-50324D01*
X94254Y-50317D01*
X94218Y-50317D01*
X94130Y-50317D01*
X94113Y-50324D01*
X94096Y-50317D01*
X94061Y-50317D01*
X93972Y-50317D01*
X93955Y-50324D01*
X93939Y-50317D01*
X93903Y-50317D01*
X93815Y-50317D01*
X93798Y-50324D01*
X93781Y-50317D01*
X93746Y-50317D01*
X93657Y-50317D01*
X93640Y-50324D01*
X93624Y-50317D01*
X93588Y-50317D01*
X93500Y-50317D01*
X93483Y-50324D01*
X93466Y-50317D01*
X93431Y-50317D01*
X93342Y-50317D01*
X93325Y-50324D01*
X93309Y-50317D01*
X93273Y-50317D01*
X93185Y-50317D01*
X93168Y-50324D01*
X93151Y-50317D01*
X93116Y-50317D01*
X93027Y-50317D01*
X92994Y-50331D01*
X92969Y-50356D01*
X92955Y-50389D01*
X92955Y-50425D01*
X92955Y-50700D01*
X92969Y-50733D01*
X92969Y-50734D01*
X92969Y-50874D01*
X92859Y-50984D01*
X92833Y-51023D01*
X92824Y-51069D01*
X92824Y-51160D01*
X92808Y-51160D01*
X92775Y-51174D01*
X92750Y-51199D01*
X92736Y-51232D01*
X92736Y-51268D01*
X92736Y-51425D01*
X92750Y-51458D01*
X92775Y-51484D01*
X92808Y-51497D01*
X92844Y-51497D01*
X93080Y-51497D01*
X93094Y-51491D01*
X93094Y-51520D01*
X93080Y-51515D01*
X93044Y-51514D01*
X92808Y-51514D01*
X92775Y-51528D01*
X92750Y-51553D01*
X92736Y-51586D01*
X92736Y-51622D01*
X92736Y-51779D01*
X92750Y-51812D01*
X92775Y-51838D01*
X92808Y-51851D01*
X92824Y-51851D01*
X92824Y-53585D01*
X92833Y-53631D01*
X92859Y-53670D01*
X92915Y-53725D01*
X92906Y-53738D01*
X92895Y-53793D01*
X92895Y-54028D01*
X92901Y-54057D01*
X92872Y-54051D01*
X92819Y-54051D01*
X92819Y-53183D01*
X92787Y-53105D01*
X92727Y-53045D01*
X92649Y-53013D01*
X92584Y-53013D01*
X92600Y-52997D01*
X92613Y-52964D01*
X92613Y-52928D01*
X92613Y-52692D01*
X92600Y-52659D01*
X92574Y-52634D01*
X92541Y-52620D01*
X92506Y-52620D01*
X92349Y-52620D01*
X92316Y-52634D01*
X92290Y-52659D01*
X92277Y-52692D01*
X92276Y-52728D01*
X92276Y-52964D01*
X92290Y-52997D01*
X92315Y-53022D01*
X92325Y-53026D01*
X92325Y-53063D01*
X92334Y-53109D01*
X92360Y-53148D01*
X92395Y-53183D01*
X92395Y-53267D01*
X92427Y-53345D01*
X92487Y-53405D01*
X92565Y-53437D01*
X92649Y-53437D01*
X92727Y-53405D01*
X92787Y-53345D01*
X92819Y-53267D01*
X92819Y-53183D01*
X92819Y-54051D01*
X92729Y-54051D01*
X92331Y-53653D01*
X92344Y-53639D01*
X92377Y-53562D01*
X92377Y-53477D01*
X92345Y-53399D01*
X92285Y-53340D01*
X92207Y-53307D01*
X92206Y-53307D01*
X92211Y-53282D01*
X92211Y-53026D01*
X92220Y-53022D01*
X92246Y-52997D01*
X92259Y-52964D01*
X92259Y-52928D01*
X92259Y-52692D01*
X92246Y-52659D01*
X92220Y-52634D01*
X92187Y-52620D01*
X92152Y-52620D01*
X91995Y-52620D01*
X91962Y-52634D01*
X91936Y-52659D01*
X91923Y-52692D01*
X91922Y-52728D01*
X91922Y-52816D01*
X91722Y-53016D01*
X91666Y-53016D01*
X91588Y-53048D01*
X91529Y-53108D01*
X91496Y-53185D01*
X91496Y-53270D01*
X91528Y-53348D01*
X91588Y-53407D01*
X91595Y-53410D01*
X91595Y-53454D01*
X91580Y-53469D01*
X91567Y-53502D01*
X91566Y-53538D01*
X91566Y-53774D01*
X91580Y-53807D01*
X91605Y-53832D01*
X91638Y-53846D01*
X91674Y-53846D01*
X91773Y-53846D01*
X92208Y-54281D01*
X92208Y-54281D01*
X92247Y-54307D01*
X92247Y-54307D01*
X92293Y-54316D01*
X92561Y-54316D01*
X92582Y-54330D01*
X92637Y-54341D01*
X92872Y-54341D01*
X92927Y-54330D01*
X92974Y-54299D01*
X93006Y-54252D01*
X93017Y-54196D01*
X93011Y-54167D01*
X93040Y-54173D01*
X93096Y-54162D01*
X93139Y-54133D01*
X93181Y-54162D01*
X93237Y-54173D01*
X93292Y-54162D01*
X93335Y-54133D01*
X93378Y-54162D01*
X93434Y-54173D01*
X93489Y-54162D01*
X93532Y-54133D01*
X93575Y-54162D01*
X93631Y-54173D01*
X93686Y-54162D01*
X93729Y-54133D01*
X93772Y-54162D01*
X93828Y-54173D01*
X93883Y-54162D01*
X93926Y-54133D01*
X93969Y-54162D01*
X94024Y-54173D01*
X94080Y-54162D01*
X94123Y-54133D01*
X94166Y-54162D01*
X94221Y-54173D01*
X94277Y-54162D01*
X94320Y-54133D01*
X94363Y-54162D01*
X94418Y-54173D01*
X94474Y-54162D01*
X94516Y-54133D01*
X94559Y-54162D01*
X94615Y-54173D01*
X94670Y-54162D01*
X94713Y-54133D01*
X94756Y-54162D01*
X94812Y-54173D01*
X94841Y-54167D01*
X94835Y-54196D01*
X94846Y-54252D01*
X94877Y-54299D01*
X94924Y-54330D01*
X94980Y-54341D01*
X95214Y-54341D01*
X95270Y-54330D01*
X95317Y-54299D01*
X95348Y-54252D01*
X95359Y-54196D01*
X95348Y-54141D01*
X95335Y-54121D01*
X95400Y-54121D01*
X95478Y-54089D01*
X95537Y-54029D01*
X95570Y-53951D01*
X95570Y-53905D01*
X95596Y-53931D01*
X95674Y-53963D01*
X95716Y-53963D01*
X95436Y-54243D01*
X95431Y-54251D01*
X95407Y-54261D01*
X95347Y-54320D01*
X95315Y-54398D01*
X95315Y-54450D01*
X95240Y-54450D01*
X95214Y-54445D01*
X94980Y-54445D01*
X94924Y-54456D01*
X94877Y-54487D01*
X94846Y-54534D01*
X94835Y-54590D01*
X94846Y-54645D01*
X94875Y-54688D01*
X94846Y-54731D01*
X94835Y-54787D01*
X94846Y-54842D01*
X94877Y-54889D01*
X94924Y-54921D01*
X94980Y-54932D01*
X95214Y-54932D01*
X95240Y-54927D01*
X95383Y-54927D01*
X95415Y-54959D01*
X95493Y-54991D01*
X95577Y-54991D01*
X95655Y-54959D01*
X95715Y-54899D01*
X95747Y-54821D01*
X95747Y-54765D01*
X95921Y-54591D01*
X95946Y-54602D01*
X95982Y-54602D01*
X96139Y-54602D01*
X96172Y-54588D01*
X96198Y-54563D01*
X96211Y-54530D01*
X96211Y-54494D01*
X96211Y-54258D01*
X96198Y-54225D01*
X96172Y-54200D01*
X96139Y-54186D01*
X96104Y-54186D01*
X95947Y-54186D01*
X95914Y-54200D01*
X95888Y-54225D01*
X95876Y-54254D01*
X95821Y-54254D01*
X96069Y-54006D01*
X98161Y-54006D01*
X98214Y-53995D01*
X98260Y-53965D01*
X98480Y-53744D01*
X98480Y-53744D01*
X98480Y-53744D01*
X98511Y-53699D01*
X98513Y-53688D01*
X98872Y-53688D01*
X98905Y-53674D01*
X98930Y-53649D01*
X98944Y-53616D01*
X98944Y-53580D01*
X98944Y-53281D01*
X98944Y-53080D01*
X98944Y-52781D01*
X98944Y-52080D01*
X98944Y-51781D01*
X98944Y-51580D01*
X98944Y-51281D01*
X98930Y-51248D01*
X98905Y-51223D01*
X98872Y-51209D01*
X98836Y-51209D01*
X97891Y-51209D01*
X97858Y-51222D01*
X97833Y-51248D01*
X97819Y-51281D01*
X97819Y-51317D01*
X97819Y-51616D01*
X97833Y-51649D01*
X97858Y-51674D01*
X97891Y-51688D01*
X97927Y-51688D01*
X98872Y-51688D01*
X98905Y-51674D01*
X98930Y-51649D01*
X98944Y-51616D01*
X98944Y-51580D01*
X98944Y-51781D01*
X98930Y-51748D01*
X98905Y-51723D01*
X98872Y-51709D01*
X98836Y-51709D01*
X97891Y-51709D01*
X97858Y-51722D01*
X97833Y-51748D01*
X97819Y-51781D01*
X97819Y-51817D01*
X97819Y-52116D01*
X97833Y-52149D01*
X97858Y-52174D01*
X97891Y-52188D01*
X97927Y-52188D01*
X98872Y-52188D01*
X98905Y-52174D01*
X98930Y-52149D01*
X98944Y-52116D01*
X98944Y-52080D01*
X98944Y-52781D01*
X98930Y-52748D01*
X98905Y-52723D01*
X98872Y-52709D01*
X98836Y-52709D01*
X97891Y-52709D01*
X97858Y-52722D01*
X97833Y-52748D01*
X97819Y-52781D01*
X97819Y-52817D01*
X97819Y-53116D01*
X97833Y-53149D01*
X97858Y-53174D01*
X97891Y-53188D01*
X97927Y-53188D01*
X98872Y-53188D01*
X98905Y-53174D01*
X98930Y-53149D01*
X98944Y-53116D01*
X98944Y-53080D01*
X98944Y-53281D01*
X98930Y-53248D01*
X98905Y-53223D01*
X98872Y-53209D01*
X98836Y-53209D01*
X97891Y-53209D01*
X97858Y-53222D01*
X97833Y-53248D01*
X97819Y-53281D01*
X97819Y-53317D01*
X97819Y-53616D01*
X97833Y-53649D01*
X97858Y-53674D01*
X97891Y-53688D01*
X97927Y-53688D01*
X98141Y-53688D01*
X98103Y-53726D01*
X96011Y-53726D01*
X95958Y-53736D01*
X95928Y-53756D01*
X95928Y-53709D01*
X95896Y-53632D01*
X95836Y-53572D01*
X95758Y-53540D01*
X95747Y-53540D01*
X95781Y-53506D01*
X95814Y-53428D01*
X95814Y-53343D01*
X95782Y-53265D01*
X95726Y-53210D01*
X95758Y-53179D01*
X95781Y-53124D01*
X96190Y-53533D01*
X96190Y-53533D01*
X96229Y-53559D01*
X96229Y-53559D01*
X96266Y-53566D01*
X96275Y-53568D01*
X96275Y-53568D01*
X96275Y-53568D01*
X96284Y-53568D01*
X96284Y-53616D01*
X96297Y-53649D01*
X96323Y-53674D01*
X96356Y-53688D01*
X96391Y-53688D01*
X97336Y-53688D01*
X97369Y-53674D01*
X97395Y-53649D01*
X97408Y-53616D01*
X97408Y-53580D01*
X97408Y-53281D01*
X97395Y-53248D01*
X97369Y-53223D01*
X97336Y-53209D01*
X97301Y-53209D01*
X96356Y-53209D01*
X96323Y-53222D01*
X96297Y-53248D01*
X96284Y-53281D01*
X96284Y-53287D01*
X95529Y-52533D01*
X95529Y-52360D01*
X96202Y-53033D01*
X96202Y-53033D01*
X96241Y-53059D01*
X96241Y-53059D01*
X96284Y-53068D01*
X96284Y-53116D01*
X96297Y-53149D01*
X96323Y-53174D01*
X96356Y-53188D01*
X96391Y-53188D01*
X97336Y-53188D01*
X97369Y-53174D01*
X97395Y-53149D01*
X97408Y-53116D01*
X97408Y-53080D01*
X97408Y-52781D01*
X97408Y-52580D01*
X97408Y-52281D01*
X97408Y-52080D01*
X97408Y-51781D01*
X97408Y-51580D01*
X97408Y-51281D01*
X97395Y-51248D01*
X97369Y-51223D01*
X97336Y-51209D01*
X97301Y-51209D01*
X96356Y-51209D01*
X96323Y-51222D01*
X96297Y-51248D01*
X96284Y-51281D01*
X96284Y-51317D01*
X96284Y-51616D01*
X96297Y-51649D01*
X96323Y-51674D01*
X96356Y-51688D01*
X96391Y-51688D01*
X97336Y-51688D01*
X97369Y-51674D01*
X97395Y-51649D01*
X97408Y-51616D01*
X97408Y-51580D01*
X97408Y-51781D01*
X97395Y-51748D01*
X97369Y-51723D01*
X97336Y-51709D01*
X97301Y-51709D01*
X96356Y-51709D01*
X96323Y-51722D01*
X96297Y-51748D01*
X96284Y-51781D01*
X96284Y-51817D01*
X96284Y-52116D01*
X96297Y-52149D01*
X96323Y-52174D01*
X96356Y-52188D01*
X96391Y-52188D01*
X97336Y-52188D01*
X97369Y-52174D01*
X97395Y-52149D01*
X97408Y-52116D01*
X97408Y-52080D01*
X97408Y-52281D01*
X97395Y-52248D01*
X97369Y-52223D01*
X97336Y-52209D01*
X97301Y-52209D01*
X96356Y-52209D01*
X96323Y-52222D01*
X96297Y-52248D01*
X96284Y-52281D01*
X96284Y-52317D01*
X96284Y-52616D01*
X96297Y-52649D01*
X96323Y-52674D01*
X96356Y-52688D01*
X96391Y-52688D01*
X97336Y-52688D01*
X97369Y-52674D01*
X97395Y-52649D01*
X97408Y-52616D01*
X97408Y-52580D01*
X97408Y-52781D01*
X97395Y-52748D01*
X97369Y-52723D01*
X97336Y-52709D01*
X97301Y-52709D01*
X96356Y-52709D01*
X96323Y-52722D01*
X96297Y-52748D01*
X96285Y-52777D01*
X95667Y-52158D01*
X95667Y-51456D01*
X95658Y-51410D01*
X95658Y-51410D01*
X95632Y-51371D01*
X95632Y-51371D01*
X95210Y-50950D01*
X95581Y-50950D01*
X95585Y-50960D01*
X95610Y-50985D01*
X95643Y-50999D01*
X95679Y-50999D01*
X95915Y-50999D01*
X95948Y-50985D01*
X95973Y-50960D01*
X95987Y-50927D01*
X95987Y-50891D01*
X95987Y-50734D01*
X95977Y-50709D01*
X96134Y-50867D01*
X96134Y-50951D01*
X96166Y-51029D01*
X96226Y-51089D01*
X96304Y-51121D01*
X96388Y-51121D01*
X96466Y-51089D01*
X96526Y-51029D01*
X96558Y-50951D01*
X96558Y-50867D01*
X96537Y-50816D01*
X96588Y-50816D01*
X96669Y-50898D01*
X96669Y-50982D01*
X96702Y-51060D01*
X96761Y-51120D01*
X96839Y-51152D01*
X96923Y-51152D01*
X97001Y-51120D01*
X97061Y-51061D01*
X97093Y-50983D01*
X97093Y-50898D01*
X97061Y-50821D01*
X97002Y-50761D01*
X96924Y-50729D01*
X96839Y-50728D01*
X96839Y-50729D01*
X96722Y-50612D01*
X96683Y-50586D01*
X96637Y-50576D01*
X96490Y-50576D01*
X96431Y-50517D01*
X96392Y-50491D01*
X96346Y-50482D01*
X96297Y-50482D01*
X95890Y-50075D01*
X95962Y-50045D01*
X96022Y-49986D01*
X96054Y-49908D01*
X96054Y-49824D01*
X96027Y-49759D01*
X96055Y-49759D01*
X96055Y-49848D01*
X96069Y-49881D01*
X96094Y-49906D01*
X96127Y-49920D01*
X96163Y-49920D01*
X96399Y-49920D01*
X96432Y-49906D01*
X96457Y-49881D01*
X96471Y-49848D01*
X96471Y-49812D01*
X96471Y-49655D01*
X96458Y-49622D01*
X96437Y-49602D01*
X96996Y-49602D01*
X96996Y-49783D01*
X96980Y-49783D01*
X96947Y-49797D01*
X96922Y-49822D01*
X96908Y-49855D01*
X96908Y-49891D01*
X96908Y-50048D01*
X96922Y-50081D01*
X96947Y-50107D01*
X96980Y-50120D01*
X97016Y-50120D01*
X97252Y-50120D01*
X97285Y-50107D01*
X97310Y-50081D01*
X97324Y-50048D01*
X97324Y-50013D01*
X97324Y-49856D01*
X97310Y-49823D01*
X97285Y-49797D01*
X97252Y-49784D01*
X97236Y-49784D01*
X97236Y-49440D01*
X97236Y-49440D01*
X97236Y-49349D01*
X97246Y-49353D01*
X97281Y-49353D01*
X97380Y-49353D01*
X97413Y-49340D01*
X97438Y-49315D01*
X97452Y-49281D01*
X97452Y-49246D01*
X97452Y-49029D01*
X97438Y-48996D01*
X97430Y-48988D01*
X97438Y-48980D01*
X97452Y-48947D01*
X97452Y-48911D01*
X97452Y-48861D01*
X97488Y-48868D01*
X97590Y-48848D01*
X97676Y-48790D01*
X99089Y-47377D01*
X99089Y-47377D01*
X99128Y-47319D01*
X99147Y-47290D01*
X99147Y-47290D01*
X99167Y-47188D01*
X99167Y-47188D01*
X99167Y-46754D01*
X99841Y-46754D01*
X99841Y-63695D01*
M02*
