G04 (created by PCBNEW (2013-07-07 BZR 4022)-stable) date Mon 15 Dec 2014 10:20:57 PM EET*
%MOIN*%
G04 Gerber Fmt 3.4, Leading zero omitted, Abs format*
%FSLAX34Y34*%
G01*
G70*
G90*
G04 APERTURE LIST*
%ADD10C,0.006*%
%ADD11R,0.0610236X0.0511811*%
%ADD12R,0.036X0.036*%
%ADD13R,0.03X0.06*%
%ADD14R,0.025X0.045*%
%ADD15R,0.045X0.025*%
%ADD16R,0.0236X0.0157*%
%ADD17R,0.0157X0.0236*%
%ADD18O,0.0110236X0.0334646*%
%ADD19R,0.163386X0.163386*%
%ADD20O,0.0334646X0.0110236*%
%ADD21R,0.06X0.06*%
%ADD22C,0.06*%
%ADD23R,0.0944882X0.0299213*%
%ADD24R,0.0359449X0.0159449*%
%ADD25R,0.0159449X0.0359449*%
%ADD26R,0.00984252X0.0216535*%
%ADD27R,0.0787X0.0394*%
%ADD28R,0.0944882X0.0669291*%
%ADD29C,0.314961*%
%ADD30C,0.0244094*%
%ADD31R,0.0275591X0.00885827*%
%ADD32R,0.00885827X0.0275591*%
%ADD33R,0.181102X0.181102*%
%ADD34C,0.16*%
G04 APERTURE END LIST*
G54D10*
G54D11*
X84285Y-50385D03*
X81155Y-50385D03*
X84285Y-48614D03*
X81155Y-48614D03*
G54D12*
X85313Y-51323D03*
X85313Y-52023D03*
X84513Y-51673D03*
X88130Y-53954D03*
X88830Y-53954D03*
X88480Y-54754D03*
X95579Y-62261D03*
X96279Y-62261D03*
X95929Y-63061D03*
X95613Y-59829D03*
X94913Y-59829D03*
X95263Y-59029D03*
X91961Y-59958D03*
X92661Y-59958D03*
X92311Y-60758D03*
G54D13*
X87240Y-45134D03*
X86740Y-45134D03*
X86240Y-45134D03*
X85740Y-45134D03*
X87240Y-48134D03*
X86740Y-48134D03*
X86240Y-48134D03*
X85740Y-48134D03*
G54D14*
X90268Y-48393D03*
X90868Y-48393D03*
X93479Y-59204D03*
X94079Y-59204D03*
X96268Y-58141D03*
X95668Y-58141D03*
G54D15*
X94271Y-61209D03*
X94271Y-60609D03*
X92161Y-61696D03*
X92161Y-62296D03*
X90460Y-52504D03*
X90460Y-51904D03*
X91905Y-59083D03*
X91905Y-58483D03*
X93181Y-61688D03*
X93181Y-62288D03*
G54D14*
X88783Y-48393D03*
X89383Y-48393D03*
X96644Y-60106D03*
X97244Y-60106D03*
X91118Y-60240D03*
X90518Y-60240D03*
X97168Y-61822D03*
X97768Y-61822D03*
G54D16*
X94218Y-57115D03*
X94218Y-57469D03*
X93493Y-57441D03*
X93493Y-57087D03*
G54D17*
X93492Y-58053D03*
X93846Y-58053D03*
G54D16*
X93328Y-52511D03*
X93328Y-52865D03*
X94127Y-51473D03*
X94127Y-51827D03*
X93552Y-51428D03*
X93552Y-51782D03*
X93931Y-52446D03*
X93931Y-52800D03*
G54D17*
X88631Y-49953D03*
X88985Y-49953D03*
G54D16*
X86948Y-51616D03*
X86948Y-51970D03*
G54D17*
X86985Y-50983D03*
X86631Y-50983D03*
X96693Y-59236D03*
X97047Y-59236D03*
G54D16*
X92551Y-58976D03*
X92551Y-58622D03*
X91824Y-50465D03*
X91824Y-50819D03*
X97116Y-49952D03*
X97116Y-50306D03*
X90448Y-51098D03*
X90448Y-50744D03*
X95849Y-48334D03*
X95849Y-47980D03*
X87374Y-53440D03*
X87374Y-53086D03*
X96068Y-45905D03*
X96068Y-45551D03*
X92668Y-45895D03*
X92668Y-45541D03*
X95779Y-50830D03*
X95779Y-51184D03*
G54D17*
X93856Y-47352D03*
X93502Y-47352D03*
G54D16*
X89188Y-45426D03*
X89188Y-45780D03*
G54D17*
X90136Y-44523D03*
X90490Y-44523D03*
G54D16*
X96263Y-49752D03*
X96263Y-50106D03*
G54D17*
X91735Y-53638D03*
X91381Y-53638D03*
G54D16*
X91848Y-48305D03*
X91848Y-47951D03*
X88558Y-47340D03*
X88558Y-46986D03*
X91808Y-56135D03*
X91808Y-55781D03*
X94799Y-57129D03*
X94799Y-57483D03*
X90283Y-53515D03*
X90283Y-53161D03*
X91200Y-57295D03*
X91200Y-56941D03*
G54D17*
X96063Y-55968D03*
X96417Y-55968D03*
X96043Y-54394D03*
X96397Y-54394D03*
G54D16*
X92944Y-51683D03*
X92944Y-51329D03*
G54D17*
X92091Y-52828D03*
X92445Y-52828D03*
G54D18*
X93237Y-56253D03*
G54D19*
X93926Y-55082D03*
G54D18*
X93040Y-56253D03*
X93434Y-56253D03*
X93631Y-56253D03*
X93828Y-56253D03*
X94024Y-56253D03*
X94221Y-56253D03*
X94418Y-56253D03*
X94615Y-56253D03*
X94812Y-56253D03*
G54D20*
X95097Y-55968D03*
X95097Y-55771D03*
X95097Y-55574D03*
X95097Y-55377D03*
X95097Y-55180D03*
X95097Y-54984D03*
X95097Y-54787D03*
X95097Y-54590D03*
X95097Y-54393D03*
X95097Y-54196D03*
G54D18*
X94812Y-53911D03*
X94615Y-53911D03*
X94418Y-53911D03*
X94221Y-53911D03*
X94024Y-53911D03*
X93828Y-53911D03*
X93631Y-53911D03*
X93434Y-53911D03*
X93237Y-53911D03*
X93040Y-53911D03*
G54D20*
X92755Y-54196D03*
X92755Y-54393D03*
X92755Y-54590D03*
X92755Y-54787D03*
X92755Y-54984D03*
X92755Y-55180D03*
X92755Y-55377D03*
X92755Y-55574D03*
X92755Y-55771D03*
X92755Y-55968D03*
G54D21*
X82578Y-51673D03*
G54D22*
X81578Y-51673D03*
G54D21*
X99043Y-61062D03*
G54D22*
X99043Y-60062D03*
X99043Y-59062D03*
X99043Y-58062D03*
X99043Y-57062D03*
X99043Y-56062D03*
G54D23*
X98381Y-52448D03*
X98381Y-51948D03*
X98381Y-51448D03*
X98381Y-53448D03*
X98381Y-52948D03*
X96846Y-51448D03*
X96846Y-51948D03*
X96846Y-52448D03*
X96846Y-52948D03*
X96846Y-53448D03*
G54D24*
X87926Y-50984D03*
X87926Y-51181D03*
X87926Y-51378D03*
X87926Y-51575D03*
X87926Y-51772D03*
G54D25*
X88231Y-51880D03*
X88428Y-51880D03*
X88625Y-51880D03*
G54D24*
X88930Y-51772D03*
X88930Y-51575D03*
X88930Y-51378D03*
X88930Y-51181D03*
X88930Y-50984D03*
G54D25*
X88625Y-50876D03*
X88428Y-50876D03*
X88231Y-50876D03*
G54D26*
X97313Y-48821D03*
X97116Y-48821D03*
X96919Y-48821D03*
X96919Y-49155D03*
X97116Y-49155D03*
X97313Y-49155D03*
G54D27*
X98901Y-46342D03*
X98901Y-45004D03*
G54D28*
X90511Y-55929D03*
X90511Y-54472D03*
G54D10*
G36*
X89894Y-46313D02*
X90506Y-46926D01*
X90145Y-47288D01*
X89532Y-46675D01*
X89894Y-46313D01*
X89894Y-46313D01*
G37*
G36*
X91063Y-45144D02*
X91676Y-45757D01*
X91314Y-46118D01*
X90701Y-45506D01*
X91063Y-45144D01*
X91063Y-45144D01*
G37*
G36*
X95348Y-45529D02*
X95057Y-45902D01*
X94623Y-45562D01*
X94913Y-45190D01*
X95348Y-45529D01*
X95348Y-45529D01*
G37*
G36*
X94665Y-44996D02*
X94374Y-45368D01*
X93940Y-45029D01*
X94231Y-44657D01*
X94665Y-44996D01*
X94665Y-44996D01*
G37*
G36*
X94253Y-45524D02*
X93962Y-45896D01*
X93528Y-45556D01*
X93819Y-45184D01*
X94253Y-45524D01*
X94253Y-45524D01*
G37*
G36*
X94936Y-46057D02*
X94645Y-46429D01*
X94211Y-46090D01*
X94501Y-45717D01*
X94936Y-46057D01*
X94936Y-46057D01*
G37*
G54D29*
X85799Y-58169D03*
G54D10*
G36*
X89362Y-60201D02*
X90893Y-61732D01*
X89362Y-63263D01*
X87831Y-61732D01*
X89362Y-60201D01*
X89362Y-60201D01*
G37*
G36*
X82235Y-53074D02*
X83766Y-54605D01*
X82235Y-56137D01*
X80704Y-54605D01*
X82235Y-53074D01*
X82235Y-53074D01*
G37*
G54D30*
X97185Y-46870D03*
X97185Y-46594D03*
X97185Y-46318D03*
X97185Y-46043D03*
X97185Y-45748D03*
X97185Y-45413D03*
X97185Y-45059D03*
X97185Y-44685D03*
X97165Y-44429D03*
X97460Y-46909D03*
X97755Y-46909D03*
X98070Y-46909D03*
X98385Y-46909D03*
X99370Y-46909D03*
X99645Y-46909D03*
X98248Y-47185D03*
X98051Y-47381D03*
X97795Y-47637D03*
X97578Y-47854D03*
X97381Y-48051D03*
X97165Y-48267D03*
X97755Y-48996D03*
X97972Y-48799D03*
X98208Y-48562D03*
X98444Y-48326D03*
X98681Y-48090D03*
X98917Y-47854D03*
X99153Y-47618D03*
X99350Y-47381D03*
X99370Y-47145D03*
X92539Y-51200D03*
X92535Y-51606D03*
X92539Y-52259D03*
X91877Y-51559D03*
X91763Y-52106D03*
X91425Y-52448D03*
X90850Y-50885D03*
X90822Y-51448D03*
X96011Y-46389D03*
X95893Y-46929D03*
X95905Y-47523D03*
X96755Y-47283D03*
X96661Y-48090D03*
X95885Y-48712D03*
X95429Y-48838D03*
X96496Y-48413D03*
X95366Y-47692D03*
X96543Y-46598D03*
X94905Y-46724D03*
X93228Y-47039D03*
X93381Y-46629D03*
X92503Y-46342D03*
X93129Y-46220D03*
X92870Y-46610D03*
X91811Y-46850D03*
X90921Y-46669D03*
X90169Y-45429D03*
X89799Y-45799D03*
X91011Y-44578D03*
X91771Y-44590D03*
X92559Y-44740D03*
X93409Y-44688D03*
X89129Y-44590D03*
X88208Y-44740D03*
X88031Y-45551D03*
X85149Y-44759D03*
X84208Y-45330D03*
X84629Y-45929D03*
X80818Y-46740D03*
X83779Y-44598D03*
X83039Y-44669D03*
X83551Y-47444D03*
X84133Y-46846D03*
X84448Y-47326D03*
X81870Y-47354D03*
X81059Y-47291D03*
X84629Y-44818D03*
X89173Y-47220D03*
X87779Y-46484D03*
X87795Y-47370D03*
X84921Y-49192D03*
X85822Y-49543D03*
X84720Y-49917D03*
X85295Y-49763D03*
X85141Y-48641D03*
X86570Y-49940D03*
X86185Y-50543D03*
X84968Y-50641D03*
X80850Y-49590D03*
X80669Y-51133D03*
X80791Y-52696D03*
X83236Y-52708D03*
X84161Y-52996D03*
X84196Y-51118D03*
X85633Y-58948D03*
X86248Y-58822D03*
X86602Y-58259D03*
X86421Y-57681D03*
X85338Y-57492D03*
X85015Y-57830D03*
X85023Y-58295D03*
X85240Y-58724D03*
X85929Y-57385D03*
X85007Y-56980D03*
X84448Y-57657D03*
X84377Y-58433D03*
X84909Y-59299D03*
X85799Y-59570D03*
X86610Y-59358D03*
X87157Y-58677D03*
X87240Y-57992D03*
X87066Y-57464D03*
X86763Y-57086D03*
X86370Y-56834D03*
X85917Y-56724D03*
X85429Y-56767D03*
X84681Y-57251D03*
X91240Y-61169D03*
X93031Y-61019D03*
X94409Y-61940D03*
X94440Y-62385D03*
X95370Y-61078D03*
X96212Y-60933D03*
X96673Y-61425D03*
X95055Y-61996D03*
X90944Y-63389D03*
X96539Y-63389D03*
X96913Y-62759D03*
X97574Y-62909D03*
X99641Y-61838D03*
X98220Y-61618D03*
X97566Y-59248D03*
X97551Y-59625D03*
X95838Y-61251D03*
X95118Y-61551D03*
X95988Y-59051D03*
X98259Y-60051D03*
X84039Y-59850D03*
X85094Y-60181D03*
X83401Y-59055D03*
X97649Y-55948D03*
X97645Y-56421D03*
X99374Y-54433D03*
X99389Y-52409D03*
X98559Y-49736D03*
X99118Y-48893D03*
X99259Y-50681D03*
X99330Y-49594D03*
X91885Y-54255D03*
X89649Y-55251D03*
X90240Y-56921D03*
X92330Y-57858D03*
X94318Y-58015D03*
X91078Y-57846D03*
X92681Y-57870D03*
X91055Y-56531D03*
X91649Y-56704D03*
X89000Y-50350D03*
G54D31*
X92656Y-48537D03*
X92656Y-48694D03*
X92656Y-48852D03*
X92656Y-49009D03*
X92656Y-49167D03*
X92656Y-49324D03*
X92656Y-49482D03*
X92656Y-49639D03*
X92656Y-49797D03*
X92656Y-49954D03*
X92656Y-50112D03*
X92656Y-50269D03*
X94940Y-49009D03*
X94940Y-48852D03*
X94940Y-48694D03*
X94940Y-48537D03*
G54D32*
X93562Y-50545D03*
X93719Y-50545D03*
X93877Y-50545D03*
X94034Y-50545D03*
X94192Y-50545D03*
X94349Y-50545D03*
X94507Y-50545D03*
X94664Y-50545D03*
G54D33*
X93798Y-49403D03*
G54D32*
X92932Y-50545D03*
X93089Y-50545D03*
X93247Y-50545D03*
X93404Y-50545D03*
G54D31*
X94940Y-50269D03*
X94940Y-50112D03*
X94940Y-49954D03*
X94940Y-49797D03*
X94940Y-49639D03*
X94940Y-49482D03*
X94940Y-49324D03*
X94940Y-49167D03*
G54D32*
X94664Y-48261D03*
X94507Y-48261D03*
X94349Y-48261D03*
X94192Y-48261D03*
X94034Y-48261D03*
X93877Y-48261D03*
X93719Y-48261D03*
X93562Y-48261D03*
X93404Y-48261D03*
X93247Y-48261D03*
X93089Y-48261D03*
X92932Y-48261D03*
G54D34*
X82980Y-46110D03*
X98838Y-62700D03*
X81629Y-62370D03*
M02*
