M48
;DRILL file {Pcbnew (2013-07-07 BZR 4022)-stable} date Mon 15 Dec 2014 10:21:00 PM EET
;FORMAT={-:-/ absolute / metric / decimal}
FMAT,2
METRIC,TZ
T1C0.320
T2C1.016
T3C3.048
%
G90
G05
M71
T1
X204.9Y-129.88
X205.21Y-133.85
X205.28Y-118.72
X205.36Y-125.96
X205.89Y-120.12
X207.95Y-120.28
X210.92Y-113.46
X211.42Y-133.88
X211.84Y-150.
X212.22Y-120.51
X212.8Y-113.28
X213.46Y-152.02
X213.7Y-118.99
X213.77Y-134.61
X213.86Y-129.84
X213.89Y-115.14
X214.19Y-121.99
X214.32Y-148.42
X214.5Y-120.21
X214.5Y-146.45
X214.96Y-113.84
X214.96Y-116.66
X215.09Y-145.42
X215.19Y-126.79
X215.67Y-150.62
X215.7Y-124.95
X215.82Y-128.63
X215.92Y-144.73
X215.94Y-146.89
X215.96Y-148.07
X216.14Y-152.86
X216.26Y-123.55
X216.28Y-113.69
X216.51Y-149.16
X216.65Y-126.4
X216.76Y-146.03
X216.99Y-144.19
X217.26Y-127.97
X217.51Y-149.73
X217.93Y-147.75
X217.93Y-151.31
X217.99Y-125.84
X218.23Y-144.08
X218.26Y-145.76
X218.91Y-128.38
X219.07Y-149.41
X219.38Y-144.36
X219.51Y-146.51
X219.89Y-126.85
X219.97Y-147.98
X219.99Y-150.77
X220.38Y-145.
X220.7Y-134.27
X221.15Y-145.96
X221.21Y-136.89
X221.38Y-149.04
X221.56Y-161.21
X221.59Y-147.3
X222.1Y-126.5
X222.12Y-127.44
X222.12Y-128.4
X222.15Y-131.36
X222.28Y-137.13
X222.82Y-122.84
X222.96Y-118.07
X222.98Y-133.91
X223.Y-120.32
X223.Y-135.66
X223.38Y-132.7
X223.6Y-115.7
X223.9Y-135.47
X224.05Y-113.64
X224.45Y-125.7
X224.55Y-135.99
X225.167Y-121.293
X225.43Y-125.7
X226.06Y-127.89
X226.18Y-141.16
X226.226Y-121.408
X226.39Y-113.26
X226.5Y-119.94
X226.98Y-141.85
X227.05Y-138.15
X227.23Y-130.86
X227.29Y-125.97
X227.71Y-140.34
X227.82Y-141.74
X228.09Y-116.33
X228.6Y-153.04
X229.03Y-115.39
X229.21Y-144.58
X229.74Y-159.75
X230.31Y-145.92
X230.69Y-130.68
X230.76Y-129.25
X230.85Y-128.17
X230.94Y-118.54
X231.Y-161.01
X231.17Y-113.23
X231.28Y-143.59
X231.34Y-146.93
X231.75Y-155.37
X231.87Y-149.88
X232.01Y-151.03
X232.17Y-122.85
X232.22Y-133.22
X232.28Y-141.69
X232.79Y-144.03
X232.94Y-135.2
X232.94Y-138.71
X233.08Y-132.35
X233.1Y-113.26
X233.2Y-119.
X233.3Y-130.08
X233.37Y-130.96
X233.39Y-137.81
X234.1Y-135.94
X234.52Y-146.96
X234.54Y-145.49
X234.58Y-122.13
X234.88Y-129.03
X234.96Y-117.71
X235.04Y-131.08
X235.05Y-130.05
X235.05Y-132.74
X235.1Y-113.64
X235.223Y-135.193
X235.41Y-146.99
X235.89Y-118.39
X236.28Y-145.3
X236.3Y-154.99
X236.55Y-117.4
X236.719Y-135.95
X236.8Y-119.48
X237.19Y-118.44
X237.26Y-113.51
X237.623Y-132.48
X238.586Y-135.14
X239.084Y-132.41
X239.57Y-147.36
X239.8Y-157.33
X239.88Y-158.46
X241.06Y-118.68
X241.149Y-121.921
X241.39Y-132.44
X241.44Y-157.47
X241.47Y-131.43
X241.49Y-135.73
X241.6Y-156.34
X241.67Y-160.21
X242.21Y-136.93
X242.23Y-121.14
X242.24Y-155.14
X242.39Y-124.05
X242.52Y-127.84
X242.64Y-138.28
X242.66Y-139.14
X242.74Y-140.77
X242.77Y-134.77
X242.78Y-142.81
X242.83Y-135.6
X243.12Y-136.53
X243.43Y-155.58
X243.44Y-126.66
X243.55Y-123.73
X243.57Y-119.2
X243.6Y-120.71
X243.81Y-149.99
X243.87Y-117.83
X243.9Y-140.46
X244.38Y-154.77
X244.72Y-129.31
X245.1Y-122.97
X245.21Y-161.01
X245.22Y-118.36
X245.478Y-148.66
X245.478Y-151.38
X245.52Y-122.15
X245.55Y-156.02
X245.76Y-120.1
X246.08Y-129.39
X246.16Y-159.41
X246.8Y-112.85
X246.8Y-122.6
X246.85Y-113.5
X246.85Y-114.45
X246.85Y-115.35
X246.85Y-116.2
X246.85Y-116.95
X246.85Y-117.65
X246.85Y-118.35
X246.85Y-119.05
X246.93Y-155.45
X247.35Y-122.05
X247.46Y-144.74
X247.55Y-119.15
X247.78Y-151.45
X247.82Y-150.49
X247.84Y-159.79
X247.85Y-121.55
X248.02Y-143.31
X248.03Y-142.11
X248.3Y-119.15
X248.3Y-124.45
X248.4Y-121.
X248.49Y-138.31
X248.85Y-123.95
X249.05Y-120.35
X249.1Y-119.15
X249.45Y-123.35
X249.48Y-156.51
X249.55Y-119.85
X249.58Y-152.53
X249.78Y-138.47
X249.9Y-119.15
X250.05Y-122.75
X250.34Y-126.33
X250.65Y-122.15
X251.25Y-121.55
X251.76Y-124.19
X251.85Y-120.95
X252.12Y-128.73
X252.3Y-125.97
X252.35Y-120.35
X252.4Y-119.15
X252.4Y-119.75
X252.41Y-138.26
X252.45Y-133.12
X253.09Y-157.07
X253.1Y-119.15
T2
X207.21Y-131.25
X209.75Y-131.25
X251.57Y-142.4
X251.57Y-144.94
X251.57Y-147.48
X251.57Y-150.02
X251.57Y-152.56
X251.57Y-155.1
T3
X207.34Y-158.42
X210.77Y-117.12
X251.05Y-159.26
T0
M30
